<svg width="145" height="143" viewBox="0 0 145 143" fill="none" xmlns="http://www.w3.org/2000/svg">
<path d="M81.6336 88.9176C81.3201 88.9176 81.0789 88.8135 80.9097 88.6054C80.7456 88.3973 80.6336 88.1471 80.5739 87.8548C80.5142 87.5624 80.4844 87.2875 80.4844 87.0298C80.4844 86.4798 80.6137 85.9348 80.8724 85.3947C81.1361 84.8546 81.4967 84.3641 81.9544 83.9231C82.4121 83.4772 82.9369 83.1229 83.529 82.8603C84.1259 82.5928 84.7552 82.459 85.4169 82.459C85.6408 82.459 85.8522 82.4838 86.0512 82.5333C86.2502 82.5779 86.4566 82.6349 86.6705 82.7042C86.6606 82.7637 86.6258 82.9247 86.5661 83.1873C86.5064 83.445 86.4367 83.7547 86.3571 84.1164C86.2775 84.4781 86.1979 84.8447 86.1183 85.2163C86.0437 85.588 85.979 85.9224 85.9243 86.2197C85.8746 86.512 85.8497 86.7201 85.8497 86.844C85.8497 87.1611 85.9243 87.3197 86.0736 87.3197C86.2079 87.3197 86.3895 87.228 86.6183 87.0447C86.8521 86.8613 87.1183 86.6186 87.4168 86.3163C87.7152 86.0141 88.0287 85.6821 88.357 85.3204V86.1751C88.2376 86.3188 88.0635 86.5046 87.8346 86.7325C87.6108 86.9555 87.3571 87.1933 87.0735 87.446C86.7899 87.6987 86.5039 87.9365 86.2153 88.1595C85.9318 88.3825 85.6656 88.5633 85.4169 88.7021C85.1731 88.8457 84.9766 88.9176 84.8274 88.9176C84.6035 88.9176 84.4518 88.8185 84.3722 88.6203C84.2976 88.4172 84.2602 88.1917 84.2602 87.944C84.2602 87.8151 84.2652 87.6888 84.2752 87.5649C84.2901 87.4361 84.305 87.3221 84.3199 87.223C84.116 87.4856 83.8722 87.7483 83.5886 88.0109C83.3051 88.2735 82.9966 88.4915 82.6633 88.6649C82.33 88.8334 81.9868 88.9176 81.6336 88.9176ZM82.8051 87.7284C82.9593 87.7284 83.1335 87.6715 83.3275 87.5575C83.5265 87.4435 83.723 87.3048 83.917 87.1413C84.111 86.9778 84.2752 86.8242 84.4095 86.6805L85.2676 83.0238C84.8498 83.0238 84.4493 83.1353 84.0662 83.3583C83.6832 83.5813 83.3424 83.8736 83.0439 84.2353C82.7454 84.592 82.5091 84.981 82.335 85.4021C82.1609 85.8184 82.0738 86.2222 82.0738 86.6136C82.0738 86.901 82.1261 87.1586 82.2305 87.3865C82.34 87.6145 82.5315 87.7284 82.8051 87.7284Z" fill="white"/>
<path d="M78.0806 88.9176C77.8218 88.9176 77.6576 88.8507 77.5879 88.7169C77.5182 88.5831 77.4834 88.4617 77.4834 88.3527C77.4834 87.9564 77.5381 87.555 77.6476 87.1487C77.7621 86.7424 77.8939 86.3535 78.0432 85.9819C78.1925 85.6102 78.3219 85.2733 78.4314 84.9711C78.5458 84.6688 78.6031 84.426 78.6031 84.2427C78.6031 84.1139 78.5732 84.0148 78.5135 83.9454C78.4538 83.8711 78.3866 83.8339 78.312 83.8339C78.0681 83.8339 77.8218 83.9628 77.573 84.2204C77.3242 84.4781 77.0828 84.81 76.8489 85.2163C76.62 85.6226 76.4085 86.0512 76.2144 86.5021C76.0253 86.953 75.8636 87.3766 75.7292 87.773C75.5999 88.1645 75.5078 88.4741 75.4531 88.7021H74.0273C74.0323 88.4741 74.0647 88.1768 74.1244 87.8102C74.1791 87.4435 74.2538 87.0471 74.3483 86.621C74.4478 86.19 74.5523 85.7614 74.6618 85.3353C74.7713 84.9091 74.8808 84.5177 74.9903 84.161C75.0997 83.7993 75.1968 83.5119 75.2814 83.2988C75.3809 83.0362 75.5277 82.8727 75.7218 82.8083C75.9159 82.7389 76.1423 82.7042 76.401 82.7042H76.9012C76.9012 82.7042 76.8713 82.8033 76.8116 83.0015C76.7569 83.1997 76.6847 83.4475 76.5951 83.7448C76.5105 84.042 76.421 84.3418 76.3264 84.6441C76.2368 84.9413 76.1597 85.194 76.095 85.4021C76.2443 85.1247 76.4433 84.8175 76.6922 84.4805C76.946 84.1436 77.2321 83.8216 77.5506 83.5144C77.8691 83.2072 78.2025 82.9545 78.5508 82.7563C78.8992 82.5581 79.2425 82.459 79.5809 82.459C80.0686 82.459 80.3124 82.7488 80.3124 83.3286C80.3124 83.4822 80.2776 83.6927 80.2079 83.9603C80.1383 84.2279 80.0512 84.5202 79.9467 84.8373C79.8422 85.1494 79.7352 85.4591 79.6257 85.7663C79.5212 86.0686 79.4341 86.3361 79.3644 86.569C79.2948 86.7969 79.2599 86.9555 79.2599 87.0447C79.2599 87.1339 79.2898 87.1784 79.3495 87.1784C79.4142 87.1784 79.5013 87.1438 79.6108 87.0744C79.6755 87.0298 79.7849 86.9381 79.9392 86.7994C80.0935 86.6557 80.2627 86.4947 80.4468 86.3163C80.6359 86.1379 80.8126 85.9695 80.9768 85.8109C81.146 85.6524 81.2754 85.5359 81.3649 85.4616V86.294C81.2455 86.4129 81.0763 86.5789 80.8573 86.792C80.6384 87.0001 80.3945 87.228 80.1258 87.4757C79.8571 87.7185 79.5884 87.9489 79.3197 88.1669C79.0559 88.3849 78.8121 88.5633 78.5881 88.7021C78.3692 88.8457 78.2 88.9176 78.0806 88.9176Z" fill="white"/>
<path d="M71.5831 88.9191C71.3455 88.9191 71.1772 88.8148 71.0782 88.6064C70.9792 88.393 70.9297 88.1721 70.9297 87.9438C70.9297 87.785 70.9569 87.5492 71.0114 87.2365C71.0708 86.9189 71.1425 86.5715 71.2267 86.1943C71.3158 85.8121 71.4074 85.4349 71.5014 85.0627C71.6004 84.6855 71.6895 84.3554 71.7687 84.0725C71.8529 83.7846 71.9173 83.5861 71.9618 83.4769C72.0658 83.2089 72.192 83.0228 72.3405 82.9186C72.494 82.8094 72.6746 82.7448 72.8825 82.725C73.0905 82.7051 73.3305 82.6952 73.6028 82.6952C73.5533 82.864 73.4815 83.1022 73.3875 83.4099C73.2934 83.7176 73.1919 84.0601 73.083 84.4373C72.9741 84.8095 72.8702 85.1818 72.7712 85.554C72.6722 85.9213 72.5905 86.2538 72.5261 86.5516C72.4618 86.8494 72.4296 87.0727 72.4296 87.2216C72.4296 87.2911 72.4445 87.3904 72.4742 87.5194C72.5088 87.6485 72.5806 87.713 72.6895 87.713C72.7489 87.713 72.8825 87.6212 73.0905 87.4375C73.3033 87.2539 73.5434 87.033 73.8107 86.775C74.078 86.5119 74.3305 86.2563 74.5681 86.0081C74.8057 85.76 74.9814 85.5714 75.0953 85.4423V86.2762C74.2587 87.1 73.5781 87.7403 73.0533 88.1969C72.5286 88.6535 72.0385 88.8942 71.5831 88.9191ZM73.5805 80.9308C73.3726 80.9308 73.2241 80.8737 73.135 80.7596C73.0459 80.6405 73.0014 80.504 73.0014 80.3501C73.0014 80.1814 73.0434 80.0076 73.1276 79.829C73.2167 79.6453 73.338 79.4915 73.4914 79.3674C73.6498 79.2383 73.8305 79.1738 74.0335 79.1738C74.3255 79.1738 74.5359 79.2334 74.6646 79.3525C74.7933 79.4667 74.8577 79.6007 74.8577 79.7545C74.8577 79.9233 74.7983 80.0995 74.6795 80.2831C74.5607 80.4667 74.4047 80.6206 74.2117 80.7447C74.0186 80.8688 73.8082 80.9308 73.5805 80.9308Z" fill="white"/>
<path d="M45.2686 91.8995C45.092 91.8995 44.9491 91.7778 44.8398 91.5343C44.7304 91.2908 44.6758 90.8374 44.6758 90.1742C44.6758 89.83 44.8229 89.5529 45.1173 89.343C45.4116 89.1331 45.79 88.94 46.2525 88.7637C46.715 88.5958 47.2112 88.4027 47.741 88.1844C48.2708 87.9662 48.7795 87.6849 49.2673 87.3407C49.755 86.9881 50.1629 86.5221 50.4908 85.9428C50.9702 84.9185 51.5126 83.7684 52.1181 82.4922C52.7319 81.2077 53.3626 79.8854 54.0102 78.5253C54.6577 77.1652 55.2884 75.8471 55.9023 74.571C56.5161 73.2864 57.0628 72.1321 57.5421 71.1078C57.8869 70.4781 58.3914 69.966 59.0558 69.5714C59.7201 69.1684 60.4223 68.9669 61.1623 68.9669L61.3137 69.0551C61.0194 71.2715 60.8217 73.5089 60.7208 75.7673C60.6199 78.0174 60.498 80.2674 60.355 82.5174H60.5442C60.9563 81.6946 61.3095 80.9978 61.6038 80.4269C61.8981 79.856 62.1841 79.3061 62.4616 78.7772C62.7391 78.2399 63.0502 77.6354 63.395 76.9637C63.7398 76.2837 64.1645 75.4399 64.669 74.4324C65.1736 73.425 65.8043 72.153 66.5611 70.6167C66.6789 70.4236 66.8891 70.2221 67.1918 70.0122C67.503 69.7939 67.852 69.5924 68.2388 69.4077C68.6256 69.2146 68.9998 69.0593 69.3614 68.9417C69.7314 68.8158 70.03 68.7486 70.257 68.7402C70.257 68.7486 70.2696 68.757 70.2949 68.7654C70.3285 68.7654 70.3495 68.7738 70.3579 68.7906C70.1477 69.8904 69.9207 71.0742 69.6768 72.3419C69.4329 73.6013 69.1932 74.8774 68.9578 76.1703C68.7223 77.4549 68.5079 78.7016 68.3145 79.9106C68.1211 81.1111 67.9655 82.2068 67.8478 83.1975C67.73 84.1797 67.6712 84.9899 67.6712 85.628C67.6712 86.4424 67.8688 86.8495 68.264 86.8495C68.4658 86.8495 68.7644 86.7152 69.1596 86.4465C69.5548 86.1779 69.9879 85.8421 70.4589 85.4391C70.9382 85.0277 71.4007 84.6121 71.8464 84.1923C72.3005 83.7726 72.6831 83.4115 72.9943 83.1093V84.5449C72.0777 85.4349 71.1821 86.2409 70.3075 86.9629C69.4329 87.6849 68.6298 88.2558 67.8982 88.6756C67.175 89.1038 66.5653 89.3178 66.0692 89.3178C65.6151 89.3178 65.2619 89.1121 65.0096 88.7008C64.7657 88.2978 64.6438 87.6261 64.6438 86.6858C64.6438 85.9386 64.6984 85.0907 64.8078 84.142C64.9255 83.1849 65.0685 82.1984 65.2366 81.1825C65.4048 80.1666 65.5772 79.1844 65.7538 78.2357C65.9388 77.287 66.0944 76.4432 66.2205 75.7044C66.2542 75.4441 66.3046 75.1461 66.3719 74.8103C66.4392 74.4744 66.5023 74.168 66.5611 73.8909C66.6284 73.6055 66.662 73.4208 66.662 73.3368C66.662 73.1941 66.62 73.1227 66.5359 73.1227C66.4182 73.1227 66.3425 73.1731 66.3088 73.2739C66.1322 73.6181 65.8631 74.147 65.5015 74.8606C65.1399 75.5743 64.7153 76.4012 64.2275 77.3415C63.7482 78.2818 63.2394 79.2683 62.7012 80.301C62.1714 81.3336 61.6459 82.3453 61.1245 83.336C60.6031 84.3267 60.1154 85.2292 59.6612 86.0436C59.2156 86.8579 58.8371 87.517 58.526 88.0207C58.2232 88.5245 58.0256 88.8015 57.9331 88.8519C57.6724 88.7763 57.4958 88.663 57.4033 88.5119C57.3108 88.3523 57.2646 88.218 57.2646 88.1089L57.6178 74.4199H57.4412L51.3991 86.9755C51.1468 87.4288 50.7894 87.9368 50.3269 88.4993C49.8644 89.0618 49.343 89.5991 48.7627 90.1112C48.1825 90.6318 47.5896 91.0599 46.9841 91.3958C46.3787 91.7316 45.8068 91.8995 45.2686 91.8995Z" fill="white"/>
<path fill-rule="evenodd" clip-rule="evenodd" d="M50.3611 68.6708C48.9662 69.8052 47.6667 71.2564 46.8878 72.8054C46.1813 74.2105 45.6813 75.7582 45.1669 77.3503C45.0044 77.8532 44.8405 78.3605 44.6682 78.8692C44.038 80.7294 43.6916 82.768 43.4862 84.7869C43.4724 84.9228 43.4585 85.0522 43.4451 85.177C43.3917 85.6748 43.3462 86.0984 43.3451 86.5609C43.3451 86.5609 43.3451 86.5608 43.3451 86.5608C43.3452 86.5608 43.3456 86.5761 43.35 86.6125C43.3547 86.6531 43.3623 86.7042 43.3731 86.7699C43.3791 86.8062 43.387 86.852 43.3957 86.9027C43.4136 87.0067 43.4351 87.1316 43.4513 87.2397C43.4767 87.4099 43.5027 87.6221 43.5014 87.8325C43.5004 88.0155 43.481 88.3466 43.2966 88.6551C43.0233 89.1121 42.4312 89.2611 41.9742 88.9878C41.5621 88.7414 41.4005 88.2359 41.5729 87.8039C41.5718 87.7433 41.5631 87.6526 41.544 87.5243C41.5304 87.4334 41.5168 87.3548 41.5018 87.2684C41.492 87.2117 41.4816 87.1516 41.4702 87.0826C41.4477 86.9458 41.4162 86.7443 41.4167 86.558C41.418 85.9839 41.477 85.4375 41.5318 84.93C41.5442 84.8152 41.5564 84.7025 41.5677 84.5918C41.7807 82.4976 42.1471 80.3009 42.8417 78.2505C42.9935 77.8022 43.1444 77.3347 43.2988 76.8563C43.8217 75.2358 44.3851 73.4901 45.1649 71.9392C46.0992 70.0809 47.604 68.4274 49.1443 67.1747C50.9119 65.7371 52.8105 64.4406 54.7615 63.2743C57.0083 61.9311 59.152 61.2006 61.5557 60.5041C62.2668 60.2981 62.9924 60.2414 63.6208 60.1973C63.6628 60.1944 63.7045 60.1915 63.7457 60.1886C64.3517 60.1465 64.8685 60.1106 65.3631 59.9977C65.572 59.9501 65.7933 59.8967 66.0239 59.8411C66.9821 59.6102 68.0993 59.3409 69.1385 59.2831C71.4922 59.1523 73.8671 59.7118 75.9705 60.323C78.3716 61.0207 80.5782 62.2727 82.5211 63.721C83.0744 64.1334 83.5954 64.4787 84.1344 64.8359C84.5138 65.0873 84.902 65.3446 85.3167 65.6354C86.2662 66.3012 87.2187 67.058 88.0556 68.0744C90.3541 70.8658 91.7287 73.8259 93.0555 76.9606C93.328 77.6044 93.467 78.2913 93.5637 78.9155C93.6119 79.2273 93.6466 79.4939 93.6792 79.7448C93.7197 80.0562 93.757 80.3432 93.8132 80.6619C93.9638 81.5151 94.0791 82.4207 94.0771 83.3288C94.0752 84.1858 93.8339 85.7785 93.6517 86.8842C93.5866 87.2793 93.526 87.6289 93.4813 87.8846C93.48 87.9407 93.4737 87.9975 93.4622 88.0544L93.4549 88.0903C93.4259 88.2341 93.4009 88.3577 93.3878 88.4072L93.3876 88.4079C93.3859 88.4142 93.377 88.448 93.3625 88.4882C93.3579 88.5009 93.346 88.5311 93.3385 88.5486C93.3265 88.5752 93.2901 88.6446 93.2643 88.6867C93.2066 88.7666 92.9537 88.988 92.7358 89.0852C92.3072 89.1157 91.7169 88.7835 91.5787 88.5656C91.5399 88.4672 91.5025 88.3141 91.4957 88.2626C91.493 88.2323 91.4907 88.1824 91.4905 88.1627C91.4905 88.1258 91.4927 88.0968 91.4935 88.0864C91.4954 88.0618 91.4979 88.0422 91.4987 88.0359C91.5019 88.0108 91.5063 87.9844 91.5082 87.973L91.5083 87.9723C91.511 87.9564 91.5143 87.9367 91.5183 87.9139C91.5224 87.8899 91.5272 87.8626 91.5324 87.8329C91.5373 87.8053 91.5427 87.7746 91.5486 87.741C91.5934 87.4858 91.6675 87.0648 91.7489 86.5706C91.9393 85.4157 92.1472 83.9927 92.1487 83.3245C92.1503 82.5751 92.0547 81.7933 91.9142 80.997C91.857 80.6734 91.8046 80.2797 91.7552 79.9084C91.7216 79.6558 91.6894 79.4136 91.6579 79.2106C91.5687 78.6346 91.4584 78.1347 91.2797 77.7123C89.9644 74.6051 88.6779 71.8639 86.5669 69.3002C85.8888 68.4767 85.0958 67.8358 84.2096 67.2144C83.8872 66.9883 83.528 66.7494 83.1547 66.5011C82.5648 66.1087 81.9396 65.6928 81.3686 65.2671C79.5511 63.9124 77.5505 62.7903 75.4324 62.1748C73.3667 61.5746 71.2553 61.0968 69.2456 61.2086C68.3991 61.2557 67.5067 61.4697 66.5642 61.6957C66.3105 61.7565 66.0531 61.8183 65.7921 61.8778C65.1441 62.0257 64.4817 62.0711 63.9073 62.1105C63.856 62.1141 63.8054 62.1175 63.7556 62.121C63.1158 62.1659 62.5817 62.2146 62.0924 62.3564C59.7415 63.0375 57.7851 63.7134 55.751 64.9295C53.8661 66.0563 52.0456 67.3007 50.3611 68.6708ZM41.5712 87.8544C41.571 87.8541 41.5712 87.8495 41.5725 87.8412C41.572 87.8504 41.5714 87.8546 41.5712 87.8544Z" fill="#F59324"/>
<path fill-rule="evenodd" clip-rule="evenodd" d="M28.0485 42.3665C28.1169 42.4225 28.1998 42.4911 28.281 42.5584C28.4077 42.6632 28.5302 42.7646 28.5871 42.8091C31.315 44.9406 32.1629 48.3292 33.0724 51.9641C33.1159 52.1381 33.1596 52.3127 33.2036 52.4876C33.6005 54.0653 34.3544 55.433 35.0538 56.7019C35.2627 57.081 35.4669 57.4514 35.6551 57.8158C36.1462 58.7664 36.9238 59.4873 37.6337 60.0802C37.8534 60.2637 38.0629 60.4327 38.2625 60.5936C38.7554 60.9909 39.1876 61.3393 39.5622 61.7376C40.5828 62.8224 41.4148 63.914 42.0363 65.2055C41.2538 65.029 40.4561 64.945 39.8042 64.9236C38.6668 64.8861 37.5217 64.8999 36.3968 64.9135C35.7748 64.921 35.159 64.9284 34.554 64.927L34.4742 64.9268C32.915 64.9234 31.5387 64.9203 30.0499 64.7592C29.4628 64.6957 28.7225 64.4213 27.9102 64.0252C27.2575 63.7069 26.625 63.3447 26.0488 63.0147C25.9177 62.9396 25.7895 62.8661 25.6647 62.7953C24.7504 62.2764 23.7922 61.9063 22.9016 61.5691C22.8507 61.5498 22.8001 61.5306 22.7497 61.5116C21.8972 61.1891 21.1119 60.8921 20.372 60.5037C19.4942 60.0428 18.5637 59.8496 17.6871 59.7535C17.1105 59.6903 16.4956 59.6653 15.9305 59.6424C15.668 59.6317 15.4162 59.6215 15.1839 59.608C15.11 59.6038 14.9277 59.5782 14.7047 59.5469C14.6693 59.5419 14.6329 59.5368 14.5958 59.5316C14.4841 59.5161 14.3552 59.4984 14.2638 59.4901C14.2397 59.4879 14.205 59.4851 14.1674 59.4839C14.1486 59.4834 14.1194 59.4828 14.0846 59.4842C14.0603 59.4852 13.9847 59.4886 13.8924 59.5105C13.8482 59.521 13.7519 59.5466 13.6425 59.6077C13.5432 59.6632 13.3142 59.815 13.203 60.1281C13.0786 60.4788 13.1863 60.7815 13.2827 60.944C13.3692 61.0898 13.4729 61.1763 13.5158 61.2102C13.607 61.2823 13.6914 61.3215 13.7143 61.3321L13.7148 61.3324C13.7505 61.3489 13.7814 61.3608 13.8007 61.3679C14.4149 61.5946 14.9311 61.801 15.4021 62.0915C16.7225 62.9058 17.9301 63.6774 19.127 64.6126C20.5186 65.6999 21.7257 66.9646 23.0017 68.3015C23.1232 68.4288 23.2454 68.5568 23.3684 68.6853C23.663 68.9932 23.9521 69.313 24.2535 69.6464C24.2925 69.6896 24.3318 69.733 24.3713 69.7767C24.7114 70.1526 25.0669 70.5426 25.4399 70.9202C26.1855 71.675 27.0327 72.4139 28.0631 72.9599C29.2339 73.5805 30.5669 73.8962 31.7418 74.1746C32.0968 74.2587 32.4373 74.3393 32.7546 74.424C34.1987 74.8092 35.3711 75.2997 36.2464 76.4216C36.3065 76.4986 36.3685 76.5748 36.4321 76.6501C36.1721 76.6888 35.9197 76.7388 35.6804 76.7919C35.358 76.8634 35.0384 76.9454 34.7435 77.0212L34.6885 77.0353C34.3714 77.1167 34.0862 77.189 33.8206 77.2443C32.5087 77.5174 30.7553 78.0276 29.5167 78.9293C29.1725 79.1798 28.7698 79.3626 28.2774 79.5861C28.1744 79.6328 28.0676 79.6813 27.9566 79.7326C27.7775 79.8153 27.5365 79.947 27.3339 80.0577C27.23 80.1145 27.1362 80.1657 27.066 80.202C26.7775 80.3513 26.6033 80.4125 26.5045 80.4247C26.1627 80.4666 25.8188 80.5198 25.4902 80.5706C25.4576 80.5756 25.4252 80.5806 25.393 80.5856C25.0291 80.6417 24.6819 80.694 24.3381 80.7319C23.65 80.8079 23.0245 80.8201 22.433 80.7004C21.1079 80.4323 19.7295 80.3587 18.4581 80.2909C18.2464 80.2796 18.0377 80.2685 17.8326 80.2566C16.2979 80.1679 14.8431 80.3995 13.4738 80.6774C13.0848 80.7563 12.7073 80.8378 12.3365 80.9178C11.6437 81.0673 10.9746 81.2117 10.2997 81.3247C10.1565 81.3404 10.0171 81.3597 9.90887 81.3753C9.77564 81.3946 9.65431 81.4139 9.5681 81.4281C9.52515 81.4352 9.48941 81.4413 9.46418 81.4458C9.45302 81.4478 9.43873 81.4503 9.42588 81.4528C9.42239 81.4535 9.41631 81.4547 9.40905 81.4562C9.40887 81.4562 9.38345 81.4614 9.35306 81.4696C9.34424 81.472 9.32452 81.4775 9.29987 81.4857L9.29974 81.4858C9.29582 81.487 9.20623 81.515 9.10794 81.5742C9.0312 81.6255 8.81191 81.8522 8.70687 82.0499C8.64392 82.4762 8.94518 83.1033 9.17166 83.2616C9.27365 83.3058 9.43275 83.349 9.48601 83.3572C9.5168 83.3605 9.56766 83.3638 9.58768 83.3644C9.62489 83.3651 9.65395 83.3634 9.66417 83.3628C9.67792 83.3619 9.689 83.361 9.69554 83.3603C9.70862 83.3591 9.71897 83.3579 9.72378 83.3573C10.0003 83.3233 10.2768 83.2826 10.5522 83.2372C10.5988 83.2324 10.639 83.2289 10.6721 83.2267C10.6904 83.2255 10.7047 83.2248 10.7153 83.2245C10.7247 83.2241 10.729 83.2242 10.7292 83.2242C11.3559 83.2366 11.8604 83.2485 12.4653 83.3043C13.6756 83.4159 14.8928 83.7754 16.1702 84.1527C16.2322 84.171 16.2944 84.1894 16.3567 84.2078C17.8093 84.6362 19.1849 85.3033 20.6394 86.0158L20.7329 86.0616C22.1354 86.7488 23.6165 87.4746 25.2007 87.9579C25.3262 87.9962 25.4723 88.0437 25.633 88.0959C26.0955 88.2463 26.6786 88.4359 27.2389 88.5579C27.9943 88.7225 28.9463 88.8268 29.8108 88.4731C30.4569 88.2087 31.3398 88.1899 32.3098 88.1693C32.3758 88.1679 32.4421 88.1665 32.5088 88.165C33.6625 88.1391 34.5044 88.313 35.588 88.7614C35.9183 88.898 36.5659 89.2087 37.1355 89.5774C37.4211 89.7622 37.657 89.9424 37.8191 90.1024C37.9372 90.219 37.9734 90.2831 37.9804 90.2936C38.0916 90.7978 38.5832 91.1274 39.0953 91.0337C39.6191 90.9379 39.9661 90.4356 39.8703 89.9118C39.7762 89.397 39.4422 88.995 39.1738 88.73C38.8816 88.4416 38.5259 88.1802 38.1833 87.9584C37.4966 87.514 36.741 87.1514 36.3253 86.9795C35.0169 86.438 33.91 86.2046 32.4655 86.2371C32.3845 86.2389 32.299 86.2404 32.2097 86.2419C31.3306 86.2572 30.081 86.2789 29.0805 86.6883C28.7739 86.8137 28.3034 86.8161 27.6494 86.6737C27.1903 86.5737 26.7579 86.4331 26.3228 86.2915C26.1376 86.2313 25.9519 86.1709 25.7634 86.1134C24.328 85.6755 22.9661 85.0082 21.5197 84.2997L21.4878 84.284C20.0539 83.5816 18.5358 82.8399 16.9022 82.3581C16.8243 82.3351 16.7456 82.3119 16.6663 82.2884C16.5625 82.2577 16.4575 82.2266 16.3516 82.1954C16.8081 82.1627 17.2633 82.1554 17.7213 82.1818C17.9419 82.1946 18.1607 82.2064 18.3778 82.2181C19.6564 82.287 20.8757 82.3528 22.0506 82.5905C22.9209 82.7666 23.7707 82.7347 24.5497 82.6487C24.9395 82.6057 25.3239 82.5475 25.6869 82.4915C25.7186 82.4866 25.75 82.4817 25.7813 82.4769C26.1151 82.4253 26.4292 82.3768 26.7394 82.3387C27.2053 82.2816 27.6419 82.0754 27.9521 81.9148C28.1259 81.825 28.2568 81.7523 28.3703 81.6894C28.5128 81.6105 28.6277 81.5468 28.7649 81.4834C28.8453 81.4463 28.9314 81.4075 29.0218 81.3668C29.5136 81.1452 30.132 80.8666 30.6516 80.4884C31.5449 79.8382 32.9609 79.3931 34.2136 79.1323C34.5293 79.0666 34.8563 78.9832 35.1679 78.9032L35.2147 78.8912C35.5168 78.8136 35.8077 78.7389 36.0977 78.6746C36.7181 78.5371 37.2431 78.4696 37.6784 78.5184C37.7055 78.5215 37.7411 78.5274 37.8005 78.5372C37.844 78.5444 37.9001 78.5537 37.9749 78.5655C38.1135 78.5873 38.3119 78.6166 38.4941 78.6241C38.5805 78.6276 38.7154 78.629 38.8589 78.6032L38.8624 78.6026C38.9407 78.5886 39.3675 78.5125 39.6083 78.0899C39.9135 77.5547 39.618 77.0811 39.5378 76.9676C39.4285 76.813 39.2906 76.6957 39.1912 76.6181C38.6622 76.2047 38.1477 75.7236 37.7668 75.2354C36.4982 73.6092 34.8199 72.979 33.2516 72.5607C32.8183 72.4451 32.4038 72.3465 32.0051 72.2516C30.8901 71.9862 29.8987 71.7502 28.9661 71.256C28.1815 70.8402 27.4928 70.2543 26.8118 69.5649C26.4715 69.2204 26.141 68.8584 25.8013 68.4829C25.7625 68.44 25.7235 68.3969 25.6843 68.3536C25.3851 68.0225 25.0766 67.6812 24.7617 67.3521C24.6368 67.2215 24.5116 67.0903 24.3859 66.9586C23.1265 65.6383 21.8229 64.2718 20.3144 63.0931C19.7635 62.6626 19.2129 62.2664 18.6588 61.8896C18.9479 61.972 19.22 62.077 19.4757 62.2111C20.324 62.6565 21.2135 62.9926 22.0412 63.3054C22.1007 63.3279 22.1599 63.3503 22.2187 63.3725C23.1166 63.7126 23.9444 64.0363 24.7128 64.4724C24.8253 64.5363 24.9447 64.6047 25.07 64.6765C25.6472 65.0073 26.3484 65.4092 27.065 65.7586C27.926 66.1784 28.9122 66.5758 29.8424 66.6765C31.4338 66.8487 32.8994 66.8519 34.4312 66.8552L34.5497 66.8554C35.2154 66.8569 35.8573 66.849 36.4892 66.8412C37.5793 66.8278 38.6396 66.8147 39.7408 66.8509C40.2929 66.8691 40.9712 66.9414 41.62 67.0885C42.2826 67.2387 42.84 67.4504 43.2064 67.7052C43.284 67.7592 43.3638 67.812 43.4401 67.8551C43.4778 67.8765 43.5308 67.9047 43.5929 67.9305C43.637 67.9488 43.7701 68.0029 43.9456 68.0114C44.1316 68.0204 44.6109 67.9709 44.8619 67.4859C45.0402 67.1416 44.9507 66.8249 44.9344 66.7671L44.9336 66.7643C44.8887 66.6041 44.8078 66.4777 44.7885 66.4476L44.7862 66.444C44.7433 66.3763 44.6777 66.2858 44.6399 66.2335C44.631 66.2213 44.6236 66.2111 44.6184 66.2038C44.6024 66.1814 44.5916 66.1657 44.5849 66.1557C44.3382 65.5752 44.0674 64.9861 43.7999 64.4236C43.0634 62.8747 42.0863 61.6063 40.9668 60.4162C40.494 59.9135 39.905 59.4389 39.3763 59.0129C39.1984 58.8695 39.0274 58.7317 38.8699 58.6001C38.1916 58.0336 37.672 57.5184 37.3685 56.9308C37.1287 56.4667 36.8913 56.035 36.6633 55.6203C35.9935 54.4022 35.4043 53.3307 35.0738 52.0171C35.0172 51.7922 34.9606 51.5642 34.9034 51.3338C34.4559 49.5303 33.9718 47.5796 33.1513 45.7629C33.1657 45.7742 33.18 45.7854 33.1943 45.7966C33.599 46.1127 33.9456 46.5288 34.3521 47.0412C34.3832 47.0804 34.4148 47.1203 34.4468 47.1608C34.8094 47.6193 35.2333 48.1554 35.7418 48.6018C36.7538 49.49 37.824 50.6013 38.682 51.6433C39.2041 52.2775 39.8372 52.694 40.4393 53.0138C40.7392 53.1731 41.0433 53.3143 41.3257 53.4439C41.3602 53.4597 41.3944 53.4753 41.4282 53.4908C41.6781 53.6053 41.9089 53.711 42.1338 53.8241C42.9395 54.2292 43.7652 54.5619 44.549 54.8777L44.5669 54.8849C45.3681 55.2076 46.1263 55.5137 46.856 55.8806C48.262 56.5875 49.5654 57.3636 50.7754 58.309C51.1563 58.6067 51.4721 59.0062 51.688 59.4601C51.7114 59.5093 51.7447 59.5772 51.784 59.6417C51.8018 59.6708 51.8417 59.7345 51.9023 59.8026C51.9328 59.837 51.9888 59.8956 52.0701 59.9534C52.1457 60.0072 52.3019 60.1026 52.5251 60.1279C52.7843 60.1573 53.0392 60.0809 53.2367 59.9244C53.4061 59.7901 53.4873 59.6343 53.5227 59.5539C53.5889 59.4041 53.601 59.2712 53.6041 59.2381L53.6042 59.2362C53.612 59.1521 53.6086 59.0727 53.6075 59.0475L53.6074 59.0445C53.6017 58.9096 53.6013 58.8706 53.5989 58.8705C53.5986 58.8705 53.5983 58.871 53.598 58.872C53.8168 57.9729 53.6575 56.9747 53.4422 56.1421C53.2377 55.3513 52.9446 54.5771 52.7237 53.9937C52.7041 53.9419 52.6851 53.8917 52.6667 53.8431C52.4628 53.3024 52.2174 52.717 51.9808 52.1525C51.8098 51.7445 51.6434 51.3475 51.5004 50.986C51.1337 50.0587 50.8338 49.1656 50.6829 48.2523C50.6068 47.7916 50.4998 47.3282 50.4016 46.9029C50.3667 46.7519 50.333 46.6057 50.3021 46.4662C50.1787 45.9082 50.0864 45.3987 50.0689 44.8818C50.0578 44.5505 49.9997 44.1901 49.9557 43.9166C49.9416 43.829 49.9289 43.7502 49.9196 43.6843C49.874 43.3582 49.8705 43.1432 49.9178 42.9539C50.0421 42.4569 50.0296 41.9738 50.0044 41.5884C49.9949 41.4426 49.9845 41.3163 49.975 41.2014C49.9562 40.9729 49.9412 40.7899 49.9443 40.5894C49.9476 40.3768 49.9525 40.1585 49.9576 39.9362C49.9757 39.1363 49.9951 38.284 49.9422 37.4508C49.8462 35.9373 49.537 34.5824 49.199 33.2339C49.8384 34.139 50.3627 35.0884 50.6771 35.9882C50.9197 36.6823 51.1432 37.3905 51.3713 38.1159L51.3953 38.1922C51.6143 38.8888 51.8382 39.6012 52.0817 40.3074C52.5867 41.7717 53.1897 43.2529 54.0633 44.6326C54.1572 44.7807 54.2461 44.9376 54.3383 45.1004C54.6635 45.674 55.0306 46.3217 55.8028 46.9251L58.7254 49.2088C58.8764 49.3268 59.026 49.4411 59.1741 49.5543C59.5428 49.8362 59.9022 50.1109 60.2502 50.4163C60.7301 50.8375 61.1003 51.2448 61.3233 51.6579C61.6154 52.1987 61.8285 52.6739 62.0898 53.2564C62.1064 53.2934 62.1232 53.3309 62.1402 53.3688C62.2172 53.5405 62.2871 53.7192 62.367 53.9243L62.3708 53.934C62.4442 54.1224 62.5267 54.3342 62.621 54.5461C62.6232 54.554 62.6296 54.5761 62.6395 54.6173C62.6527 54.6727 62.6649 54.7297 62.6787 54.7949C62.6831 54.8155 62.6877 54.837 62.6925 54.8594C62.6932 54.863 62.6941 54.867 62.6951 54.8716C62.7077 54.9308 62.7377 55.0724 62.7795 55.1826L62.7802 55.1844C62.7906 55.212 62.832 55.3213 62.917 55.4355C62.9571 55.4893 63.0708 55.6332 63.276 55.732C63.5396 55.859 63.8767 55.8707 64.1744 55.7017C64.4053 55.5706 64.514 55.3846 64.551 55.3159C64.5967 55.2309 64.6204 55.1567 64.6316 55.1178C64.6546 55.0383 64.6639 54.9694 64.668 54.9366C64.6889 54.7673 64.7697 54.5848 64.9274 54.229C64.9503 54.1775 64.9747 54.1223 65.0008 54.063C65.1649 53.6904 65.4245 53.087 65.3621 52.4214C65.3058 51.8213 65.3123 51.2153 65.3195 50.5461C65.3199 50.5042 65.3204 50.462 65.3208 50.4195C65.3281 49.7186 65.3315 48.9524 65.2353 48.1686C64.8613 45.1209 65.1364 42.1225 66.8365 39.725C67.4045 38.924 67.8078 38.0167 68.1659 37.211L68.1852 37.1677C68.5633 36.3172 68.8967 35.5763 69.3434 34.949C69.8009 34.3068 70.2073 33.4393 70.4888 32.5665C70.5917 32.2474 70.6822 31.9142 70.7526 31.5785C70.7021 32.1606 70.6589 32.742 70.6293 33.3323C70.6151 33.6165 70.5482 33.9026 70.456 34.2967L70.4501 34.3218C70.3628 34.6954 70.251 35.1775 70.2498 35.6916C70.249 36.0705 70.2016 36.4161 70.1451 36.8287C70.1333 36.9147 70.1211 37.0037 70.1088 37.0964C70.041 37.61 69.9781 38.2079 70.0604 38.8788C70.1914 39.9456 70.4077 40.9817 70.6232 41.9795C71.0071 43.7563 71.8355 45.3211 72.5984 46.7623C72.6633 46.8849 72.7277 47.0066 72.7914 47.1274C73.848 49.134 74.5403 51.9609 74.1218 54.0295C74.0887 54.1929 74.0203 54.6351 74.3259 55.0257C74.6806 55.4791 75.1918 55.454 75.3823 55.4253C75.5985 55.3929 75.7891 55.3095 75.9155 55.247C76.0557 55.1776 76.1938 55.0945 76.3188 55.0127C76.5693 54.8489 76.8197 54.656 77.0135 54.496C77.1115 54.4151 77.2009 54.3377 77.2739 54.2712C77.3246 54.2249 77.4266 54.1313 77.5012 54.0358C77.5755 53.9407 77.6485 53.8464 77.7206 53.7534C78.2344 53.0906 78.6991 52.491 79.2098 52.1121C80.596 51.0835 81.4503 49.7111 81.9306 48.1155C82.0968 47.5633 82.1899 47.0013 82.2706 46.5149C82.2892 46.4025 82.3071 46.2942 82.3252 46.191C82.4265 45.6106 82.5384 45.1211 82.7606 44.6547C83.1399 43.8585 83.5388 43.374 84.0749 42.7228C84.265 42.4919 84.4724 42.24 84.7023 41.9457C84.9477 41.6317 85.2849 41.3557 85.7271 41.023C85.7799 40.9832 85.8348 40.9422 85.8913 40.9001C86.2729 40.6155 86.7263 40.2772 87.1132 39.8814C87.4692 39.5171 87.8684 39.1809 88.3106 38.8083C88.4159 38.7196 88.5237 38.6289 88.6339 38.5352C88.9345 38.2795 89.2494 38.0051 89.553 37.7063C89.2823 38.3579 89.021 39.0016 88.7615 39.6406C88.3547 40.6426 87.9524 41.6333 87.5258 42.6259C87.1882 43.4112 87.0595 44.2701 86.9972 45.0539C86.9657 45.4502 86.9502 45.8443 86.9376 46.2134C86.9355 46.2749 86.9334 46.3355 86.9314 46.3953C86.9212 46.7012 86.9117 46.9854 86.8955 47.2578C86.8649 47.7701 86.9281 48.2579 86.979 48.651L86.9841 48.6908C87.0393 49.1181 87.0785 49.4478 87.0584 49.7769C87.0386 50.1019 87.026 50.3929 87.0139 50.673C86.9965 51.0746 86.9801 51.4536 86.9447 51.8772C86.9041 52.3637 86.8801 52.8451 86.8558 53.3305C86.8177 54.0931 86.7792 54.8654 86.6751 55.6821C86.5103 56.9754 86.2048 58.055 85.6312 58.7891C85.5216 58.9294 85.3277 59.1873 85.2638 59.4985C85.2246 59.6893 85.2124 60.0155 85.4303 60.3246C85.6368 60.6174 85.9242 60.7134 86.072 60.7466C86.3232 60.8028 86.576 60.7647 86.669 60.7507L86.6776 60.7495C86.7346 60.7409 86.8455 60.7215 86.932 60.7064C86.9803 60.698 87.021 60.6909 87.0405 60.6877C87.5978 60.5975 88.1392 60.3428 88.5832 60.0785C89.0386 59.8074 89.4574 59.4864 89.7802 59.1989C90.2943 58.741 90.8338 58.316 91.3982 57.8761C91.443 57.8412 91.4881 57.8061 91.5332 57.7709C92.0496 57.3687 92.5871 56.95 93.109 56.5014C93.8765 55.8416 94.5369 55.1144 95.1431 54.4122C95.3217 54.2053 95.4935 54.0032 95.6617 53.8053C96.0786 53.3149 96.4733 52.8506 96.894 52.4049C98.0443 51.1863 99.2392 50.2758 100.98 49.9732C101.695 49.8489 102.384 49.6373 103.023 49.4247C103.209 49.3628 103.389 49.3017 103.564 49.242C104.012 49.0895 104.432 48.9464 104.862 48.8241C105.778 48.5638 106.676 48.0285 107.396 47.5987C107.559 47.5021 107.712 47.4108 107.854 47.3292C107.908 47.2983 107.964 47.2664 108.022 47.2334C108.112 47.1818 108.207 47.1274 108.306 47.0705C108.033 47.69 107.775 48.2175 107.42 48.6718C107.097 49.0854 106.624 49.4759 106.042 49.9027C105.895 50.0109 105.736 50.124 105.573 50.2406C105.138 50.5516 104.666 50.8882 104.268 51.2271C103.836 51.5957 103.373 51.9147 102.865 52.2654C102.667 52.4019 102.463 52.5431 102.25 52.6939C101.527 53.2066 100.755 53.8052 100.137 54.5958C99.0956 55.9283 98.3358 57.3759 97.7404 58.9209C97.4495 59.6756 97.2957 60.4654 97.1609 61.1576C97.1439 61.245 97.1272 61.3308 97.1105 61.4148C96.9548 62.2007 96.7997 62.865 96.4999 63.4612C96.3704 63.7188 96.2535 63.9672 96.138 64.2126C95.9505 64.6111 95.7667 65.0018 95.5384 65.4115C95.1834 66.0486 94.8298 66.5129 94.4558 66.7714C94.2458 66.9164 94.0548 67.0668 93.9046 67.2248C93.786 67.3495 93.5413 67.6315 93.5125 68.04C93.4956 68.2794 93.5572 68.5202 93.6966 68.7253C93.8254 68.9146 93.9878 69.0263 94.1084 69.0903C94.3327 69.2093 94.5663 69.2438 94.7052 69.2583C95.0086 69.2898 95.3599 69.2678 95.632 69.243C95.8614 69.222 96.0896 69.1932 96.2531 69.1726C96.2922 69.1676 96.3276 69.1632 96.3584 69.1594C97.2329 69.0521 98.0024 68.761 98.6786 68.4813C98.8157 68.4246 98.9478 68.369 99.0763 68.3149C99.6099 68.0901 100.081 67.8915 100.593 67.7506C101.97 67.3716 103.357 66.7898 104.597 66.2172C105.067 66.0001 105.635 65.8922 106.306 65.8294C106.626 65.7995 106.951 65.7811 107.292 65.7617L107.332 65.7595C107.681 65.7397 108.048 65.7184 108.406 65.6814C108.968 65.6232 109.562 65.6892 110.27 65.7851C110.326 65.7928 110.383 65.8006 110.441 65.8085C111.074 65.8954 111.805 65.9957 112.536 65.9672C113.484 65.9303 114.431 65.8725 115.366 65.8154L115.445 65.8106C116.084 65.7716 116.719 65.7332 117.35 65.7016C117.034 65.8226 116.702 65.9361 116.357 66.0486C116.156 66.1138 115.949 66.1794 115.737 66.2463C115.069 66.4573 114.359 66.6815 113.704 66.9493C113.081 67.2043 112.46 67.4261 111.816 67.656C111.654 67.7138 111.491 67.772 111.326 67.8315C110.516 68.1231 109.678 68.4376 108.841 68.8352C107.204 69.614 105.871 71.0341 104.882 72.3001C104.519 72.7648 104.092 73.194 103.616 73.671L103.596 73.6904C103.14 74.1476 102.636 74.6517 102.196 75.2148C101.867 75.6363 101.417 75.9716 100.851 76.3087C100.605 76.4552 100.353 76.5932 100.084 76.7406C100.042 76.7633 100 76.7862 99.958 76.8094C99.6487 76.9791 99.3191 77.1622 98.9998 77.3644C98.6338 77.5962 98.2158 77.7861 97.8464 77.8693C97.6745 77.9081 97.4762 77.9636 97.3012 78.0527C97.2186 78.0948 97.072 78.1783 96.9415 78.3266C96.798 78.4896 96.6171 78.8075 96.7054 79.2173C96.7826 79.5755 97.0211 79.7729 97.1302 79.8499C97.2539 79.9372 97.3774 79.9873 97.4603 80.0164C97.6313 80.0762 97.8218 80.1111 97.9994 80.134C98.3962 80.1852 98.8016 80.38 99.3996 80.6766L99.4299 80.6917C99.9598 80.9547 100.665 81.3048 101.451 81.3848C101.831 81.4234 102.178 81.4706 102.543 81.5203C102.805 81.5559 103.075 81.5928 103.374 81.6286C103.905 81.6924 104.433 81.6255 104.826 81.5756C104.853 81.5722 104.88 81.5688 104.905 81.5656C105.357 81.5091 105.643 81.4848 105.887 81.5283C106.373 81.615 106.85 81.5812 107.202 81.5563L107.239 81.5536C107.634 81.5258 107.899 81.5114 108.148 81.5531C108.517 81.6149 108.922 81.6303 109.246 81.6426C109.342 81.6462 109.43 81.6495 109.509 81.6538C109.905 81.675 110.188 81.7164 110.425 81.8159C111.378 82.2153 112.335 82.6296 113.298 83.0466C115.66 84.0689 118.059 85.1069 120.509 85.9778C120.854 86.1003 121.211 86.1995 121.57 86.2825C121.287 86.29 121.005 86.2819 120.723 86.2546C119.723 86.1577 118.667 86.1648 117.72 86.171L117.577 86.172C117.194 86.1744 116.803 86.0941 116.285 85.9842L116.26 85.9788C115.782 85.8772 115.189 85.7512 114.561 85.7584C112.658 85.7802 110.831 85.848 108.855 86.5386C108.197 86.7685 107.559 87.04 106.956 87.2967C106.852 87.3413 106.748 87.3853 106.646 87.4287C105.939 87.7279 105.269 87.9992 104.577 88.2C104.083 88.343 103.547 88.558 103.067 88.7502C102.843 88.84 102.631 88.9249 102.442 88.995C101.78 89.241 101.217 89.3879 100.675 89.3666C100.487 89.3592 99.8345 89.3445 99.2296 89.346C98.9289 89.3468 98.6226 89.3516 98.3857 89.3649C98.2729 89.3713 98.1446 89.3811 98.0324 89.3995C97.9859 89.4071 97.8825 89.4252 97.7711 89.4685C97.7219 89.4876 97.5954 89.5395 97.468 89.651C97.3327 89.7693 97.0865 90.0631 97.1406 90.5046C97.2055 91.0331 97.6866 91.409 98.2151 91.3442C98.2877 91.3353 98.3574 91.3185 98.4234 91.2949C98.4264 91.2947 98.4295 91.2944 98.4327 91.2942C98.4509 91.2929 98.4713 91.2916 98.4938 91.2903C98.6776 91.28 98.9421 91.2752 99.2347 91.2745C99.8165 91.2729 100.441 91.2874 100.6 91.2936C101.53 91.3301 102.383 91.074 103.113 90.8029C103.41 90.6928 103.673 90.587 103.919 90.4877C104.336 90.3196 104.705 90.1705 105.113 90.0522C105.924 89.8172 106.684 89.5067 107.398 89.2046C107.507 89.1582 107.615 89.1122 107.722 89.0666C108.327 88.8092 108.898 88.5661 109.491 88.3591C111.146 87.7806 112.698 87.7083 114.583 87.6867C114.975 87.6822 115.372 87.7616 115.884 87.8705L115.934 87.8812C116.404 87.981 116.983 88.1042 117.59 88.1004L117.699 88.0997C118.673 88.0933 119.639 88.0871 120.537 88.174C121.771 88.2935 122.942 88.1232 124.024 87.9064C124.409 87.8292 124.773 87.749 125.125 87.6711C125.806 87.5207 126.446 87.3794 127.122 87.2872C127.23 87.2723 127.398 87.2531 127.585 87.2317L127.598 87.2302C127.773 87.2103 127.963 87.1886 128.1 87.1701C128.161 87.1618 128.248 87.1497 128.32 87.134C128.339 87.1297 128.375 87.1216 128.417 87.1087C128.424 87.1065 128.433 87.1036 128.443 87.1001C128.463 87.0936 128.486 87.085 128.513 87.0738C128.544 87.0608 128.629 87.0236 128.724 86.9524L128.724 86.9521C128.775 86.9135 129.093 86.6733 129.107 86.2117C129.123 85.6859 128.747 85.4214 128.656 85.3641C128.535 85.288 128.426 85.2575 128.392 85.2482C128.343 85.235 128.303 85.2281 128.28 85.2245C128.163 85.2064 128.025 85.2093 127.967 85.21C127.872 85.2113 127.743 85.2152 127.579 85.2216C127.049 85.2422 126.436 85.1543 125.827 85.031C125.249 84.9139 124.62 84.8264 124.02 84.7429C123.79 84.7109 123.565 84.6795 123.348 84.6472C122.531 84.5258 121.792 84.3874 121.155 84.1608C118.769 83.3126 116.465 82.3153 114.128 81.3038C113.151 80.8809 112.168 80.4555 111.171 80.0375C110.616 79.8049 110.06 79.7521 109.612 79.7281C109.466 79.7202 109.335 79.7152 109.216 79.7106C108.928 79.6995 108.703 79.6908 108.466 79.6512C107.972 79.5684 107.495 79.6023 107.141 79.6273L107.104 79.63C106.707 79.6579 106.455 79.6706 106.226 79.6298C105.656 79.5282 105.09 79.5989 104.678 79.6506L104.666 79.6521C104.2 79.7104 103.89 79.7483 103.604 79.7139C103.374 79.6863 103.123 79.6525 102.865 79.6176C102.461 79.5632 102.04 79.5062 101.646 79.4662C101.251 79.426 100.843 79.2401 100.257 78.9491C100.23 78.936 100.203 78.9227 100.176 78.909C100.175 78.9083 100.173 78.9076 100.172 78.9068C100.394 78.7714 100.631 78.6397 100.885 78.5003C100.925 78.4785 100.965 78.4564 101.006 78.4341C101.273 78.288 101.559 78.1314 101.838 77.9654C102.482 77.5815 103.17 77.1005 103.716 76.4021C104.077 75.9392 104.504 75.5108 104.98 75.0337L104.997 75.0163C105.455 74.5584 105.96 74.0529 106.401 73.4874C107.337 72.2904 108.444 71.1595 109.67 70.5768C110.416 70.2219 111.18 69.9336 111.979 69.6459C112.133 69.5905 112.288 69.535 112.445 69.4789C113.093 69.2477 113.767 69.0074 114.435 68.7341C115.009 68.4992 115.61 68.3093 116.258 68.1045C116.484 68.0331 116.715 67.9599 116.954 67.8823C117.842 67.5931 118.791 67.2516 119.653 66.7412C120.493 66.2442 121.324 65.8585 122.208 65.4481C122.704 65.2176 123.217 64.9794 123.758 64.7093C123.843 64.6672 124.178 64.4865 124.468 64.3027C124.6 64.2189 124.787 64.0946 124.93 63.961C124.969 63.9239 125.023 63.8699 125.076 63.8014C125.12 63.744 125.213 63.614 125.264 63.4263C125.323 63.2079 125.33 62.8617 125.089 62.5527C124.885 62.292 124.621 62.2142 124.51 62.189C124.255 62.1311 124.006 62.1565 123.854 62.1783C123.679 62.2035 123.501 62.2455 123.345 62.2887C123.032 62.375 122.728 62.487 122.551 62.5608C121.047 63.1879 119.725 63.678 118.239 63.7325C117.263 63.7682 116.289 63.8271 115.327 63.8858L115.257 63.89C114.316 63.9475 113.387 64.0041 112.461 64.0402C111.907 64.0618 111.34 63.9846 110.671 63.8935C110.624 63.8871 110.577 63.8807 110.529 63.8742C109.834 63.78 109.027 63.6783 108.207 63.7632C107.901 63.7949 107.577 63.8141 107.223 63.8341L107.172 63.837C106.84 63.8558 106.483 63.876 106.126 63.9094C105.381 63.9792 104.556 64.1123 103.789 64.4663C102.581 65.0237 101.307 65.5541 100.082 65.8913C99.4361 66.069 98.8231 66.3279 98.2825 66.5563C98.1653 66.6058 98.0515 66.6538 97.9415 66.6993C97.5188 66.8742 97.13 67.0218 96.7436 67.1239C96.923 66.8671 97.0815 66.6041 97.2229 66.3502C97.4758 65.8964 97.7217 65.3764 97.9322 64.9312C98.0395 64.7044 98.1376 64.4969 98.2228 64.3275C98.6519 63.4742 98.8459 62.5782 99.0022 61.7897C99.0196 61.7016 99.0366 61.6149 99.0533 61.5297C99.1931 60.8168 99.3139 60.2005 99.5398 59.6143C100.082 58.2081 100.755 56.9362 101.656 55.7831C102.094 55.2228 102.676 54.7562 103.366 54.2668C103.531 54.1495 103.707 54.0284 103.888 53.9035C104.422 53.5347 105.006 53.1325 105.519 52.6949C105.85 52.4128 106.215 52.1527 106.621 51.8625C106.8 51.7348 106.987 51.6013 107.183 51.4575C107.783 51.0173 108.442 50.4961 108.939 49.8592C109.503 49.1379 109.862 48.3304 110.165 47.6344L110.207 47.538C110.506 46.85 110.755 46.2766 111.108 45.7758C111.197 45.6493 111.322 45.4895 111.483 45.2877C111.502 45.264 111.521 45.2398 111.541 45.2152C111.681 45.0392 111.839 44.8411 111.991 44.6402C112.308 44.2217 112.725 43.6354 112.878 43.0703C112.904 42.9734 112.926 42.9054 112.941 42.8622C112.971 42.8053 112.998 42.7465 113.018 42.6881L113.018 42.6871C113.024 42.67 113.048 42.6024 113.062 42.5142C113.065 42.492 113.092 42.3399 113.05 42.1527C113.028 42.0553 112.963 41.8357 112.755 41.6479C112.508 41.4252 112.206 41.3753 111.97 41.4097C111.773 41.4383 111.636 41.5206 111.579 41.5578C111.512 41.6017 111.465 41.6449 111.438 41.6702C111.386 41.7208 111.351 41.7664 111.336 41.7862C111.303 41.8301 111.28 41.868 111.271 41.8845C111.247 41.9252 111.226 41.9666 111.209 42.004C111.187 42.0357 111.139 42.1 111.053 42.1882C110.845 42.4014 110.63 42.6045 110.4 42.8225C110.321 42.8974 110.24 42.9739 110.157 43.0533C109.843 43.3535 109.509 43.6817 109.201 44.0428C108.711 44.6154 107.843 45.1129 106.962 45.6179L106.895 45.6562C106.69 45.7736 106.494 45.8897 106.305 46.002C105.6 46.4195 104.983 46.785 104.335 46.9693C103.854 47.1061 103.363 47.2732 102.899 47.4311C102.734 47.4874 102.572 47.5426 102.415 47.5949C101.796 47.8008 101.218 47.9745 100.65 48.0733C98.3291 48.4766 96.7812 49.715 95.4917 51.0812C95.0341 51.5659 94.5894 52.089 94.1602 52.5939C93.9991 52.7835 93.8401 52.9705 93.6834 53.152C93.0945 53.8342 92.5086 54.4744 91.8518 55.0391C91.3671 55.4558 90.8655 55.8465 90.3423 56.2541C90.2992 56.2877 90.256 56.3214 90.2126 56.3552C89.6495 56.7941 89.0643 57.2541 88.4976 57.7589C88.3899 57.8547 88.2676 57.9559 88.1357 58.0561C88.3638 57.3553 88.499 56.6248 88.5881 55.9259C88.6979 55.0636 88.7472 54.1155 88.7905 53.2836C88.8145 52.8206 88.8367 52.3937 88.8664 52.0376C88.9035 51.5942 88.9241 51.1301 88.9439 50.6865C88.9561 50.4113 88.968 50.144 88.9833 49.8945C89.0156 49.3646 88.9513 48.8665 88.8995 48.4664L88.8966 48.4438C88.8409 48.0125 88.8015 47.6903 88.8205 47.3725C88.8383 47.0727 88.8488 46.7588 88.859 46.4532C88.861 46.395 88.8629 46.337 88.8649 46.2796C88.8774 45.9134 88.8918 45.5564 88.9196 45.2067C88.9759 44.4984 89.0833 43.8857 89.2975 43.3874C89.7286 42.3844 90.1473 41.3535 90.562 40.3324C90.8265 39.6813 91.0893 39.0341 91.3527 38.4007C91.4792 38.0965 91.61 37.8174 91.7508 37.517C91.843 37.3204 91.9394 37.1147 92.0416 36.8869C92.2829 36.3494 92.5245 35.7537 92.6726 35.1114C92.7268 34.8762 92.7872 34.6332 92.8493 34.3834C93.0471 33.5875 93.262 32.7229 93.3489 31.8254C93.3554 31.7588 93.3623 31.6721 93.3607 31.5878L93.3607 31.5871C93.3601 31.5568 93.358 31.4536 93.3263 31.3332C93.3126 31.2812 93.2689 31.1255 93.1425 30.9683C92.9829 30.7699 92.6683 30.5573 92.2522 30.6163C91.9373 30.661 91.7498 30.8428 91.697 30.8964C91.6245 30.9698 91.5793 31.0391 91.5587 31.0724C91.5152 31.1425 91.4882 31.2054 91.4769 31.2325C91.4505 31.2955 91.43 31.3588 91.4168 31.4012C91.3645 31.5692 91.3035 31.8206 91.2823 31.9391C91.2721 31.9964 91.2291 32.1305 91.141 32.3101C91.0566 32.4822 90.9635 32.6297 90.8992 32.7119C90.4942 33.2303 90.1321 33.7621 89.7906 34.2636L89.7844 34.2727C89.4355 34.7851 89.1075 35.2662 88.7478 35.7266C88.3898 36.1848 87.9255 36.6062 87.3847 37.066C87.2917 37.1451 87.1956 37.226 87.0975 37.3085C86.6506 37.6845 86.1622 38.0954 85.734 38.5335C85.4603 38.8136 85.1391 39.054 84.7472 39.3474C84.6889 39.391 84.629 39.4358 84.5675 39.4821C84.1246 39.8155 83.6005 40.2237 83.1828 40.7584C83.0166 40.971 82.8466 41.177 82.6755 41.3843C82.0984 42.0836 81.5095 42.7971 81.0197 43.8253C80.6806 44.5369 80.5338 45.2389 80.4255 45.8592C80.4016 45.9958 80.3798 46.1264 80.3588 46.2525C80.2796 46.727 80.2111 47.1372 80.084 47.5596C79.7031 48.8248 79.0616 49.8208 78.0607 50.5634C77.3172 51.1151 76.6711 51.9542 76.1813 52.5903C76.1788 52.5936 76.1762 52.597 76.1736 52.6003C76.1534 50.3697 75.4179 47.9766 74.4977 46.2289C74.4401 46.1194 74.3827 46.0108 74.3257 45.903C73.5399 44.4151 72.8334 43.0776 72.5082 41.5722C72.2926 40.5745 72.0937 39.6148 71.9745 38.6439C71.9232 38.2258 71.9574 37.8278 72.0206 37.3489C72.0301 37.2772 72.0405 37.2024 72.0512 37.1248C72.1087 36.7102 72.1771 36.2166 72.1783 35.6959C72.1789 35.4318 72.2365 35.152 72.3279 34.7609C72.3338 34.7359 72.3398 34.7103 72.3459 34.6841C72.4277 34.3366 72.5321 33.893 72.5554 33.4288C72.5907 32.7235 72.6469 32.024 72.7133 31.3036C72.8384 29.9475 72.7733 28.1696 72.1411 26.761C72.0953 26.6591 72.047 26.5399 71.9886 26.3946L71.9756 26.3621C71.9228 26.2306 71.863 26.0816 71.7992 25.9337C71.6676 25.6285 71.4824 25.2378 71.2208 24.9201C71.1856 24.8774 71.1441 24.8236 71.0931 24.7576L71.0861 24.7486C71.0471 24.6982 70.9847 24.6174 70.932 24.5583C70.9165 24.5408 70.8876 24.5091 70.8508 24.4749C70.8325 24.4578 70.8009 24.4295 70.7592 24.3987C70.728 24.3758 70.6373 24.3105 70.5047 24.2634C70.3976 24.2253 70.0038 24.1107 69.6164 24.3889C69.25 24.6521 69.2192 25.0361 69.2146 25.1269C69.2044 25.3297 69.2645 25.4917 69.2685 25.5024L69.2687 25.503C69.3095 25.6231 69.3862 25.7677 69.4431 25.8738C69.4448 25.88 69.4558 25.9158 69.4627 25.9952C69.4723 26.1048 69.4702 26.2478 69.4557 26.423C69.4415 26.5958 69.4173 26.7768 69.3903 26.9619C69.3844 27.0021 69.3782 27.044 69.3718 27.0867C69.3511 27.226 69.3291 27.3739 69.3148 27.4979C69.2867 27.7418 69.238 27.9666 69.1791 28.2387C69.156 28.3454 69.1313 28.4595 69.1056 28.5849C69.0221 28.9926 68.9385 29.4858 68.9746 30.0196C69.0088 30.5238 68.8933 31.2307 68.6534 31.9747C68.4157 32.7119 68.0873 33.3886 67.7727 33.8303C67.2024 34.631 66.7982 35.5402 66.4392 36.3478L66.4231 36.3842C66.0448 37.235 65.7111 37.9782 65.2634 38.6095C63.1649 41.5689 62.9203 45.1367 63.3213 48.4035C63.4 49.045 63.3998 49.6933 63.3925 50.3995C63.392 50.4486 63.3914 50.498 63.3909 50.5477C63.3876 50.843 63.3842 51.1497 63.3878 51.4629C63.2752 51.2294 63.1551 50.9914 63.0202 50.7416C62.6386 50.0349 62.0724 49.4497 61.5221 48.9668C61.1213 48.6151 60.6814 48.2788 60.2963 47.9844C60.1602 47.8804 60.031 47.7816 59.9128 47.6892L56.9901 45.4055C56.54 45.0538 56.3979 44.8046 56.1313 44.337C56.0183 44.1389 55.8831 43.9017 55.6926 43.6009C54.9347 42.404 54.389 41.083 53.9048 39.6788C53.6701 38.9981 53.4532 38.3082 53.232 37.6046L53.2109 37.5375C52.9838 36.8153 52.7517 36.0791 52.4976 35.3521C51.6026 32.7908 49.4105 30.0914 47.3487 28.4804C47.3124 28.452 47.2527 28.4076 47.1778 28.3662L47.1743 28.3643C47.1332 28.3413 46.9176 28.2207 46.6247 28.2395C46.4313 28.2518 46.1851 28.3278 45.9849 28.5357C45.7985 28.7293 45.7402 28.9462 45.7218 29.0756C45.6903 29.2963 45.7438 29.4728 45.7564 29.5144L45.7572 29.517C45.7931 29.6361 45.8468 29.7386 45.8708 29.7838C45.9031 29.8446 45.9393 29.9064 45.9728 29.9617C46.0399 30.0726 46.1182 30.1934 46.1801 30.2884L46.2001 30.3191C46.224 30.3559 46.2449 30.3879 46.2633 30.4166C46.2748 30.4344 46.2841 30.4489 46.2914 30.4606C46.295 30.4663 46.2978 30.4709 46.3 30.4744L46.3024 30.4783L46.3032 30.4797C46.6088 30.9975 46.8834 31.9383 47.0756 32.7023C47.1127 32.8499 47.1495 32.9953 47.1859 33.139C47.5802 34.6969 47.9205 36.0412 48.0177 37.5729C48.0648 38.315 48.0481 39.0559 48.0305 39.8415C48.0252 40.0765 48.0198 40.3154 48.0161 40.5596C48.0114 40.8585 48.0386 41.1914 48.0606 41.4606C48.0682 41.5541 48.0752 41.6399 48.0801 41.714C48.1021 42.0519 48.0961 42.2896 48.047 42.4861C47.9084 43.0403 47.9538 43.5518 48.0098 43.9517C48.0311 44.1037 48.0518 44.2314 48.0702 44.3454C48.1069 44.572 48.1348 44.7447 48.1416 44.9469C48.1651 45.6439 48.2885 46.2916 48.4192 46.8827C48.4584 47.06 48.4974 47.2287 48.5351 47.3923C48.6286 47.797 48.7148 48.1705 48.7803 48.5667C48.964 49.6783 49.3209 50.7186 49.7071 51.6952C49.8889 52.1549 50.0635 52.5695 50.2335 52.9731C50.4488 53.4845 50.6567 53.9783 50.8624 54.5237C50.88 54.5704 50.8979 54.6177 50.916 54.6655C51.1234 55.214 51.3576 55.8332 51.5314 56.4615C50.3217 55.5662 49.0479 54.8242 47.7223 54.1577C46.9149 53.7518 46.088 53.4186 45.3036 53.1026L45.2875 53.0961C44.4863 52.7733 43.7286 52.4675 43.0001 52.1012C42.7415 51.9712 42.4766 51.8499 42.2301 51.737C42.1963 51.7216 42.1629 51.7063 42.1299 51.6911C41.8483 51.5619 41.5895 51.4411 41.3439 51.3107C40.8551 51.051 40.4672 50.7777 40.1707 50.4175C39.2495 49.2987 38.1072 48.112 37.0139 47.1524C36.6429 46.8268 36.3238 46.4242 35.9353 45.934C35.9114 45.9039 35.8873 45.8734 35.8628 45.8426C35.4644 45.3405 34.9897 44.7521 34.3817 44.277C34.2891 44.2047 34.1955 44.1314 34.1009 44.0574C32.9752 43.1763 31.713 42.1883 30.4616 41.4166C30.157 41.2287 29.8502 41.0982 29.6218 41.0012C29.5878 40.9867 29.5555 40.973 29.5253 40.9599C29.3791 40.8968 29.2621 40.8427 29.1603 40.7853C29.0941 40.7321 29.0292 40.6811 28.977 40.6427C28.9562 40.6275 28.927 40.6066 28.8947 40.5856C28.8787 40.5753 28.8531 40.5592 28.8216 40.542L28.8212 40.5417C28.8009 40.5306 28.7271 40.4902 28.6266 40.4602C28.5809 40.4465 28.4605 40.4131 28.3033 40.4204C28.1407 40.428 27.7997 40.4918 27.5626 40.8229C27.3454 41.1263 27.3769 41.4358 27.3957 41.5471C27.4174 41.6747 27.4599 41.7681 27.4787 41.807C27.5402 41.9348 27.6229 42.0283 27.6285 42.0347L27.6288 42.035L27.6926 42.1101L27.7702 42.1707C27.8634 42.2436 27.9566 42.3084 28.0485 42.3665ZM75.0261 53.5342C75.0239 53.5351 75.0231 53.5353 75.0237 53.5351C75.024 53.5349 75.0248 53.5346 75.0261 53.5342ZM94.8789 67.3365C94.8794 67.3365 94.8827 67.3369 94.8884 67.3382C94.8814 67.3372 94.8785 67.3365 94.8789 67.3365ZM47.5683 28.868C47.5684 28.8682 47.5697 28.8707 47.5718 28.8753C47.5692 28.8701 47.5681 28.8678 47.5683 28.868ZM38.0292 78.1586C38.029 78.1586 38.0276 78.1573 38.025 78.1548C38.028 78.1574 38.0293 78.1586 38.0292 78.1586ZM38.5832 76.6975C38.5863 76.6974 38.5878 76.6975 38.5876 76.6975C38.5874 76.6975 38.5859 76.6976 38.5832 76.6975Z" fill="#F59324"/>
</svg>
