<svg width="3724" height="2646" viewBox="0 0 3724 2646" fill="none" xmlns="http://www.w3.org/2000/svg">
<path fill-rule="evenodd" clip-rule="evenodd" d="M2177.18 256.546C2177.49 258.25 2177.86 260.329 2178.22 262.393C2178.84 265.861 2179.44 269.288 2179.76 270.822C2194.14 340.712 2162.18 405.348 2127.06 476.379C2125.47 479.607 2123.87 482.849 2122.26 486.105C2106.89 517.288 2100.2 550.162 2094.11 580.08C2092.32 588.909 2090.58 597.48 2088.68 605.675C2083.41 628.406 2086.18 651.207 2089.49 670.452C2090.54 676.569 2091.62 682.229 2092.64 687.571C2095.09 700.512 2097.2 711.585 2097.76 722.774C2099.18 750.911 2098.05 776.88 2092.23 802.836C2083.25 791.747 2073.57 781.779 2064.93 773.938C2047.17 757.804 2028.51 742.32 2010.25 727.178C2000.21 718.845 1990.29 710.615 1980.71 702.438L1979.5 701.408C1954.53 680.084 1932.67 661.417 1911.17 638.723C1903.12 630.232 1895.22 616.281 1887.65 598.983C1881.59 585.133 1876.44 570.873 1871.71 557.75C1870.63 554.75 1869.57 551.81 1868.52 548.947C1860.83 527.865 1850.37 508.644 1840.71 491.134C1840.17 490.153 1839.63 489.179 1839.1 488.21C1829.8 471.379 1821.38 456.132 1814.91 440.072C1806.87 420.093 1794.23 403.912 1781.32 390.256C1772.86 381.294 1763.15 372.343 1754.37 364.235C1750.34 360.521 1746.51 356.984 1743.07 353.703C1743.07 353.705 1742.99 353.625 1742.8 353.432C1742.62 353.246 1742.39 353.004 1742.1 352.7C1741.52 352.086 1740.83 351.328 1740.03 350.446C1738.88 349.173 1737.69 347.829 1736.47 346.45C1735.95 345.874 1735.44 345.291 1734.91 344.705C1733.36 342.956 1731.46 340.839 1730.03 339.38C1729.65 338.992 1729.07 338.413 1728.4 337.805C1728.07 337.503 1727.53 337.028 1726.85 336.499C1726.38 336.13 1724.89 334.969 1722.77 333.889C1721.76 333.372 1719.49 332.296 1716.41 331.685C1713.6 331.131 1706.74 330.308 1699.51 334.498C1691.41 339.192 1688.54 346.748 1687.75 351.432C1687.03 355.632 1687.61 358.976 1687.87 360.321C1688.45 363.177 1689.42 365.292 1689.68 365.858L1689.69 365.874C1690.1 366.759 1690.48 367.471 1690.73 367.901C1697.47 379.879 1702.75 389.91 1706.2 400.564C1716.26 431.555 1725.04 460.178 1731.43 491.224C1738.85 527.281 1740.95 563.679 1743.19 602.515C1743.4 606.194 1743.61 609.895 1743.83 613.619C1744.35 622.499 1744.63 631.497 1744.92 640.946C1744.95 642.17 1744.99 643.401 1745.03 644.64C1745.36 655.292 1745.75 666.455 1746.59 677.675C1748.27 700.104 1751.82 723.925 1761.1 747.232C1771.62 773.638 1789.11 797.446 1804.18 817.949C1808.66 824.046 1812.93 829.85 1816.73 835.344C1834.34 860.78 1845.8 883.561 1844.78 911.852C1841.97 910.239 1839.2 908.725 1836.5 907.298C1830.3 904.022 1824.01 900.958 1818.27 898.162L1817.18 897.633C1810.99 894.614 1805.51 891.929 1800.6 889.249C1775.76 875.704 1740.12 859.656 1707.12 857.166C1698.64 856.526 1690.16 854.105 1679.26 850.99C1676.95 850.331 1674.53 849.64 1671.97 848.928C1667.87 847.783 1661.83 846.529 1656.98 845.524C1654.64 845.036 1652.57 844.608 1651.15 844.279C1644.54 842.753 1641.53 841.485 1640.42 840.754C1634.32 836.737 1628.03 832.874 1622.09 829.221C1621.5 828.856 1620.91 828.494 1620.32 828.134C1613.73 824.078 1607.53 820.229 1601.58 816.21C1589.68 808.164 1579.88 800.115 1572.4 790.608C1554.63 768.024 1533.32 747.855 1513.89 729.472C1510.66 726.417 1507.48 723.412 1504.39 720.454C1480.63 697.776 1453.81 681.481 1428.02 667.245C1420.62 663.159 1413.4 659.293 1406.35 655.51C1393.3 648.517 1380.79 641.812 1368.61 634.538C1366.04 632.797 1363.52 631.198 1361.62 630.006C1359.2 628.484 1356.97 627.127 1355.38 626.17C1354.58 625.694 1353.92 625.297 1353.43 625.016C1353.23 624.894 1352.94 624.726 1352.67 624.573C1352.59 624.532 1352.46 624.457 1352.3 624.369C1352.3 624.369 1351.73 624.054 1351.01 623.718C1350.81 623.62 1350.34 623.403 1349.73 623.159L1349.73 623.158C1349.63 623.118 1347.46 622.196 1344.61 621.728C1342.3 621.462 1334.41 622.233 1329.17 624.312C1321.02 631.457 1316.58 648.386 1318.34 655.111C1319.57 657.62 1321.92 661.041 1322.81 662.065C1323.34 662.63 1324.26 663.523 1324.64 663.86C1325.34 664.479 1325.92 664.92 1326.13 665.074C1326.41 665.282 1326.64 665.444 1326.77 665.539C1327.04 665.728 1327.26 665.872 1327.36 665.938C1332.25 669.163 1337.25 672.281 1342.28 675.31C1343.03 675.822 1343.65 676.264 1344.14 676.629C1344.64 677.002 1344.85 677.178 1344.85 677.177C1344.85 677.177 1344.85 677.177 1344.85 677.177C1354.71 685.894 1362.52 692.864 1371.33 701.87C1388.91 719.846 1403.31 741.872 1418.71 765.41C1419.42 766.507 1420.14 767.607 1420.86 768.711C1438.08 795.021 1450.91 824.121 1464.52 855.378L1465.44 857.493C1478.51 887.517 1492.46 919.558 1511.43 949.137C1512.85 951.358 1514.5 954.032 1516.33 957.001C1521.7 965.73 1528.64 977.002 1536.09 986.762C1546.08 999.851 1560.52 1015.3 1580.37 1021.79C1593.58 1026.11 1607.42 1037.38 1623.52 1050.47C1624.5 1051.27 1625.49 1052.08 1626.49 1052.89C1644.86 1067.8 1655.64 1081.6 1666.66 1103.08C1670 1109.6 1676.04 1123.16 1680.06 1136.55C1682.08 1143.26 1683.32 1149.07 1683.7 1153.46C1683.88 1155.47 1683.83 1156.64 1683.78 1157.19C1678.21 1168.55 1682.33 1182.44 1693.45 1188.86C1705.05 1195.56 1719.88 1191.58 1726.58 1179.98C1732.71 1169.37 1732.75 1157.36 1732.03 1149.23C1731.25 1140.25 1729.03 1130.94 1726.52 1122.59C1721.49 1105.84 1714.23 1089.52 1709.82 1080.94C1696.01 1054.01 1681.12 1034.75 1657.08 1015.23C1655.77 1014.16 1654.38 1013.02 1652.92 1011.82C1638.72 1000.17 1617.81 982.993 1595.45 975.677C1590.02 973.9 1583.06 968.346 1574.66 957.332C1568.79 949.645 1563.95 941.768 1558.95 933.656C1556.78 930.133 1554.59 926.566 1552.27 922.95C1535.42 896.666 1522.8 867.687 1509.23 836.536L1509 836.006C1497.23 808.991 1484.73 780.331 1468.41 753.22C1469.24 753.987 1470.06 754.761 1470.88 755.543C1474.27 758.772 1477.62 761.954 1480.95 765.104C1500.49 783.626 1518.89 801.053 1534.27 820.607C1546.18 835.738 1560.6 847.065 1574.41 856.399C1581.31 861.07 1588.33 865.412 1594.9 869.456C1595.47 869.807 1596.04 870.156 1596.6 870.502C1602.66 874.228 1608.3 877.695 1613.73 881.271C1622.61 887.12 1633.02 889.883 1640.22 891.548C1644.5 892.537 1647.63 893.162 1650.27 893.69C1653.47 894.329 1655.96 894.828 1658.94 895.659C1660.67 896.142 1662.53 896.681 1664.51 897.251C1675.37 900.394 1689.55 904.493 1703.47 905.544C1725.75 907.225 1753.87 919.025 1777.37 931.842C1783.41 935.137 1789.87 938.292 1795.94 941.249L1796.83 941.684C1802.74 944.562 1808.36 947.3 1813.82 950.186C1825.53 956.376 1834.38 962.196 1840.22 968.41L1840.22 968.411C1840.23 968.423 1840.34 968.535 1840.57 968.798C1840.81 969.072 1841.1 969.417 1841.48 969.858C1841.7 970.114 1841.96 970.424 1842.25 970.766C1842.84 971.467 1843.55 972.301 1844.21 973.067C1846.13 975.306 1849.04 978.633 1852.05 981.406C1853.46 982.711 1855.85 984.797 1858.87 986.555L1858.96 986.603C1860.58 987.55 1869.85 992.968 1881.23 988.839C1895.71 983.585 1897.7 969.797 1897.99 966.509C1898.4 961.958 1897.69 957.749 1897.14 955.033C1894.33 941.416 1892.7 927.049 1893.23 914.469C1895.1 869.833 1876.19 835.994 1856.62 807.726C1851.09 799.746 1845.7 792.392 1840.56 785.377C1826.43 766.101 1814.18 749.388 1806.17 729.285C1799.48 712.477 1796.47 694.173 1794.97 674.052C1794.21 663.997 1793.85 653.778 1793.52 643.14C1793.48 641.928 1793.45 640.708 1793.41 639.481C1793.13 630.113 1792.83 620.385 1792.26 610.766C1792.04 606.971 1791.82 603.158 1791.6 599.328C1789.41 561.082 1787.12 521.158 1778.94 481.443C1778.57 479.613 1778.18 477.792 1777.79 475.979C1783.71 488.293 1790.18 500.008 1796.29 511.05C1796.94 512.233 1797.59 513.408 1798.24 514.575C1808 532.26 1816.7 548.465 1822.95 565.586C1823.87 568.112 1824.85 570.815 1825.87 573.656C1830.61 586.813 1836.43 602.951 1843.21 618.437C1851.32 636.985 1861.93 657.299 1875.95 672.093C1899.24 696.671 1922.81 716.794 1947.26 737.668L1949.21 739.332C1959.95 748.502 1970.37 757.147 1980.61 765.635C1998.2 780.212 2015.22 794.327 2032.31 809.849C2040.75 817.514 2050.45 827.722 2058.67 838.677C2067.09 849.917 2072.8 860.419 2075.01 868.776C2075.53 870.744 2076.13 872.813 2076.82 874.712C2077.17 875.65 2077.69 876.988 2078.44 878.443C2078.96 879.462 2080.61 882.634 2083.81 885.636C2087.21 888.819 2097.18 895.674 2109.88 890.475C2118.88 886.789 2122.32 879.287 2122.93 877.935L2122.97 877.868C2124.68 874.131 2125.17 870.493 2125.28 869.715C2125.28 869.677 2125.29 869.646 2125.29 869.622C2125.55 867.802 2125.75 865.222 2125.85 863.913C2125.87 863.636 2125.88 863.416 2125.9 863.272C2125.92 862.971 2125.95 862.723 2125.97 862.523C2129.9 849.913 2133.55 836.866 2136.9 824.31C2146.33 788.952 2147.96 754.893 2146.22 720.333C2145.47 705.54 2142.42 689.494 2139.74 675.417C2138.85 670.766 2138.01 666.329 2137.3 662.224C2134.17 644.002 2132.99 629.346 2135.94 616.626C2138.48 605.682 2140.58 595.392 2142.59 585.571C2148.41 557.11 2153.43 532.597 2165.77 507.558C2167.96 503.127 2170.19 498.639 2172.45 494.096C2187.15 464.543 2203 432.655 2214.62 398.799C2214.74 404.11 2214.6 409.83 2214.39 416.144C2214.36 417.2 2214.32 418.278 2214.28 419.377C2213.84 431.604 2213.32 446.319 2215.44 460.77C2219.52 488.55 2221.52 520.704 2221.08 548.865C2220.8 566.864 2225.46 582.707 2230.85 596.272C2233.53 603.024 2236.52 609.52 2239.28 615.441C2239.62 616.167 2239.95 616.883 2240.28 617.59C2242.73 622.834 2244.96 627.599 2246.99 632.401C2254.44 650.011 2263.2 666.704 2271.44 682.393L2271.66 682.811C2280.11 698.912 2288 713.991 2294.62 729.623C2307.44 759.918 2317.66 789.834 2324.1 821.121C2326.01 830.437 2325.67 840.506 2323.09 850.146C2322.79 851.281 2322.36 852.986 2322.07 854.767C2321.95 855.566 2321.68 857.402 2321.73 859.666C2321.75 860.81 2321.87 862.832 2322.48 865.256C2323.06 867.51 2324.49 871.878 2328.35 875.996C2332.84 880.78 2338.96 883.465 2345.3 883.682C2350.72 883.868 2354.81 882.206 2356.79 881.247C2360.56 879.425 2362.96 877.033 2363.48 876.53C2364.95 875.093 2366.12 873.589 2366.45 873.161L2366.49 873.105C2367.76 871.485 2368.35 870.762 2368.5 870.537C2384.74 858.501 2395.95 839.868 2403.8 823.66C2411.39 808.003 2417.31 791.416 2421.71 779.085C2422.1 777.984 2422.48 776.917 2422.85 775.887C2426.94 764.46 2431.05 751.53 2434.98 739.155C2437.8 730.298 2440.52 721.726 2443.09 714.192C2449.8 694.453 2457.05 676.376 2466.85 660.051C2471.98 651.518 2476.66 642.466 2480.89 634.29C2482.38 631.424 2483.8 628.665 2485.18 626.074C2490.76 615.521 2496.08 606.363 2502.61 598.14C2507.12 592.456 2511.33 585.508 2514.35 580.521C2515.28 578.995 2516.09 577.652 2516.77 576.586C2520.39 570.872 2522.93 567.905 2525.63 565.971C2534.91 559.331 2541.59 551.011 2546.49 544.417C2548.43 541.805 2550.03 539.577 2551.45 537.591C2554.18 533.788 2556.27 530.874 2558.92 527.85C2561.83 524.535 2564.85 521.138 2567.94 517.667C2579.14 505.089 2591.21 491.527 2601.82 477.313C2616.02 458.286 2627.16 439.057 2637.23 419.759C2634.78 434.26 2631.25 447.964 2626.58 460.069C2621.04 474.42 2615 488.749 2608.78 503.478L2608.11 505.041C2602.14 519.166 2596.01 533.671 2590.28 548.349C2578.38 578.797 2567.75 611.058 2562.9 645.49C2562.42 648.859 2561.74 652.395 2561.03 656.136C2558.4 669.801 2555.26 686.202 2559.59 707.246L2575.31 783.608C2576.14 787.645 2576.99 791.565 2577.82 795.421C2579.88 804.899 2581.85 813.993 2583.25 823.481C2585.17 836.568 2585.48 847.589 2583.58 856.564C2580.92 869.055 2577.9 879.436 2574.15 892.351C2573.91 893.158 2573.68 893.975 2573.44 894.803C2572.37 898.488 2571.09 902.207 2569.57 906.596L2569.48 906.836C2568.13 910.755 2566.58 915.242 2565.2 919.911C2565.1 920.109 2564.95 920.433 2564.71 920.901C2564.19 921.921 2563.64 922.941 2562.98 924.162C2562.77 924.557 2562.54 924.974 2562.31 925.418C2562.27 925.479 2562.23 925.554 2562.19 925.64C2561.6 926.715 2560 929.675 2559.06 932.328L2559.04 932.376C2558.8 933.048 2557.82 935.786 2557.59 939.332C2557.48 941.008 2557.32 945.609 2559.64 950.842C2562.62 957.566 2568.89 963.28 2577.34 964.89C2583.9 966.138 2589.01 964.345 2590.82 963.635C2593.08 962.755 2594.73 961.723 2595.56 961.17C2597.27 960.037 2598.54 958.897 2599.11 958.374C2601.29 956.371 2604.48 954.831 2612.07 951.165C2613.09 950.673 2614.19 950.142 2615.37 949.568C2623.02 945.861 2636.31 939.353 2645.03 926.893C2652.18 916.693 2660.4 907.225 2669.67 896.56C2670.23 895.91 2670.8 895.256 2671.37 894.598C2681.02 883.478 2691.67 871.074 2700.96 856.964C2736.21 803.443 2780.72 760.107 2839.21 745.207C2859.6 740.012 2878.72 730.822 2895.34 722.836L2896.37 722.341C2914.07 713.835 2929.13 706.699 2944.37 702.85C2956.97 699.668 2970.8 693.958 2984.02 686.874C2983.71 687.203 2983.4 687.532 2983.09 687.862C2979.24 691.955 2974.53 695.437 2967.5 700.635L2967.28 700.793C2960.83 705.566 2952.12 712.011 2944.76 720.621C2939.78 726.458 2934.54 731.147 2928.03 736.974C2926.66 738.202 2925.23 739.48 2923.74 740.831C2915.61 748.182 2906.15 757.177 2898.04 769.484C2885.51 788.517 2874.79 808.199 2864.66 827.114C2846.35 861.306 2838.2 898.169 2830.82 931.556C2830.18 934.428 2829.55 937.274 2828.92 940.09C2818.64 986.089 2791.58 1039.81 2757.7 1066.47C2754.74 1068.8 2746.38 1075.92 2745.88 1088.18C2745.3 1102.44 2755.37 1110.11 2759.24 1112.52C2763.67 1115.26 2768.33 1116.64 2771.35 1117.4C2774.74 1118.25 2778.25 1118.82 2781.46 1119.22C2787.9 1120.04 2794.69 1120.36 2800.07 1120.44C2802.79 1120.48 2805.34 1120.45 2807.49 1120.38C2808.89 1120.33 2812.13 1120.22 2815 1119.63C2817.51 1119.11 2819.97 1118.59 2822.38 1118.09C2839.73 1114.45 2854.74 1111.31 2867.49 1112.15C2904.68 1114.62 2937.89 1103.96 2967.9 1084.55C2978.32 1077.82 2987.71 1069.87 2995.62 1063.18C2997.43 1061.65 2999.16 1060.19 3000.8 1058.82C3010.26 1050.96 3018.38 1044.93 3027.77 1040.72C3044.21 1033.34 3056.62 1031.12 3073.88 1028.02C3080.12 1026.9 3086.99 1025.67 3094.92 1024.03C3102.56 1022.46 3111.24 1022.59 3122.85 1023.28C3124.22 1023.36 3125.64 1023.45 3127.11 1023.55C3137.06 1024.18 3149.28 1024.96 3161.2 1023.86C3171.65 1022.89 3182.38 1022.94 3194.52 1022.99C3197.43 1023.01 3200.42 1023.02 3203.51 1023.02C3206.17 1023.02 3208.89 1023.01 3211.66 1022.97C3203.91 1026.98 3196.23 1030.98 3188.6 1034.96C3168.48 1045.45 3148.63 1055.8 3128.3 1065.88C3111.63 1074.15 3097.51 1086.51 3085.73 1098.33C3079.76 1104.32 3074.1 1110.47 3068.87 1116.22C3067.99 1117.18 3067.13 1118.13 3066.28 1119.06C3061.95 1123.82 3057.97 1128.2 3054.04 1132.3C3046.31 1140.36 3040.5 1149.31 3035.99 1156.26L3035.49 1157.04C3030.53 1164.68 3026.86 1170.17 3022.36 1174.86C3017.51 1179.91 3013.32 1184.43 3009.31 1188.75C3003.63 1194.88 2998.32 1200.6 2992.01 1206.88C2984.54 1214.32 2977.53 1221.77 2970.52 1229.23C2959.64 1240.82 2948.74 1252.42 2936.02 1264.03C2915.91 1282.37 2896.99 1294.89 2878.89 1298.61C2875.24 1299.36 2867.77 1300.99 2861.69 1305.74C2857.94 1308.67 2852.45 1314.63 2851.6 1324.02C2850.79 1332.9 2854.7 1339.33 2856.92 1342.27C2860.64 1347.21 2865.77 1350.38 2867.46 1351.43L2867.66 1351.55C2868.7 1352.2 2871.04 1353.58 2872.68 1354.54C2873.48 1355.01 2874.11 1355.38 2874.35 1355.53C2885.11 1362.04 2897.81 1365.44 2908.75 1367.29C2920.02 1369.2 2931.35 1369.77 2940.65 1369.56C2954.98 1369.23 2969.28 1369.76 2984.31 1370.4C2985.51 1370.45 2986.71 1370.5 2987.92 1370.55C3001.65 1371.14 3016.05 1371.76 3030.62 1371.67C3052.19 1371.55 3072.9 1368.86 3092.23 1365.86C3097.97 1364.97 3103.52 1364.06 3108.92 1363.18C3122.23 1361.01 3134.72 1358.97 3147.42 1357.57C3182.01 1353.76 3212.55 1355.49 3243.5 1373.72C3256.91 1381.63 3271.05 1387.71 3284.22 1393.02C3288.11 1394.59 3291.85 1396.07 3295.49 1397.5C3304.7 1401.14 3313.24 1404.52 3321.69 1408.37C3340.43 1416.91 3362.79 1420.66 3380.17 1423.59C3383.44 1424.14 3386.53 1424.66 3389.39 1425.17C3381.15 1428.79 3373.47 1431.58 3365.57 1433.21C3355.34 1435.31 3342.92 1435.18 3327.84 1434.09C3324.12 1433.83 3320.12 1433.49 3315.96 1433.14C3304.7 1432.18 3292.28 1431.13 3281.11 1431.15C3269.38 1431.16 3257.93 1430 3245.1 1428.71C3240.04 1428.2 3234.76 1427.67 3229.17 1427.17C3210.54 1425.54 3189.53 1424.56 3168.29 1428.93C3133.01 1436.19 3100.76 1449.19 3069.92 1465.98C3054.66 1474.29 3041.16 1485.07 3029.6 1494.3C3028.14 1495.47 3026.71 1496.61 3025.31 1497.72C3012.12 1508.19 3000.97 1516.4 2988.6 1521.64C2982.82 1524.08 2977.49 1526.5 2972.28 1528.87C2963.97 1532.65 2955.95 1536.3 2946.8 1539.72C2932.61 1545.03 2921.33 1547.38 2912.75 1546.52C2907.29 1545.98 2901.88 1545.76 2896.93 1546.29C2893.13 1546.69 2884.17 1547.99 2877.12 1555.18C2872.98 1559.41 2870.28 1564.93 2869.63 1571.03C2869.02 1576.64 2870.29 1581.31 2871.51 1584.38C2873.77 1590.06 2877.47 1594.24 2879.61 1596.48C2884.32 1601.41 2890.52 1606.03 2895.24 1609.35C2899.27 1612.19 2903.39 1614.88 2906.29 1616.78C2906.97 1617.22 2907.59 1617.63 2908.12 1617.97C2924.06 1628.47 2940.78 1634.42 2955.48 1639.17C2958.51 1640.14 2961.42 1641.06 2964.24 1641.95C2975.81 1645.61 2985.77 1648.76 2995.63 1653.35C3023.14 1666.16 3053.5 1675.79 3081.24 1683.52C3091.07 1686.27 3101.2 1691.96 3112.67 1700C3118.14 1703.84 3123.55 1707.93 3129.3 1712.28L3129.94 1712.77C3135.78 1717.19 3142.03 1721.91 3148.35 1726.24C3157.7 1732.66 3166.02 1741.46 3176.08 1752.65C3176.88 1753.55 3177.69 1754.46 3178.52 1755.38C3187.44 1765.36 3198.01 1777.17 3210.4 1786.9C3226.11 1799.23 3242.09 1811.22 3257.83 1823.03L3259.18 1824.03C3262.17 1826.28 3265.15 1828.52 3268.12 1830.75C3266.1 1829.91 3264.06 1829.04 3261.99 1828.17C3248.38 1822.44 3233.74 1816.28 3219.44 1811.6C3206.08 1807.23 3193.21 1802.36 3179.78 1797.28C3176.4 1796 3172.97 1794.7 3169.49 1793.4C3152.53 1787.03 3134.67 1780.6 3115.67 1775.53C3077.93 1765.47 3036.51 1770.22 3003.26 1777.07C2991.39 1779.51 2978.96 1780.56 2964.79 1781.72L2964.13 1781.77C2950.65 1782.87 2935.52 1784.11 2920.56 1787.18C2910.26 1789.3 2899.06 1788.64 2885.6 1786.37C2879.74 1785.38 2873.9 1784.17 2867.58 1782.86C2866.6 1782.66 2865.62 1782.46 2864.62 1782.25C2857.35 1780.76 2849.47 1779.18 2841.47 1778.05C2832.78 1776.83 2823.96 1774.28 2817.42 1770.86C2814.04 1769.09 2809.76 1767.09 2805.26 1766.02C2803.15 1765.52 2799.1 1764.74 2794.28 1765.45C2788.96 1766.22 2780.38 1769.33 2775.43 1778.56C2771.1 1786.62 2772.46 1794.21 2773.27 1797.35C2774.19 1800.94 2775.69 1803.78 2776.71 1805.54C2778.84 1809.17 2781.63 1812.56 2784.24 1815.43C2789.36 1821.06 2792.95 1829.02 2798.56 1842.07L2798.91 1842.9C2803.78 1854.23 2810.55 1870.02 2822.56 1882.53C2828.1 1888.29 2832.92 1893.67 2838.04 1899.38C2841.74 1903.51 2845.6 1907.81 2849.99 1912.56C2857.98 1921.19 2867.73 1927.55 2874.66 1932.07C2875.16 1932.4 2875.64 1932.72 2876.11 1933.02C2884.18 1938.31 2888.58 1941.51 2891.45 1944.99C2898.39 1953.39 2906.83 1959.59 2912.76 1963.96L2913.47 1964.48C2920.24 1969.45 2924.28 1972.56 2927.34 1976.2C2932.6 1982.43 2939.17 1988.46 2944.21 1993.08C2945.65 1994.4 2946.96 1995.6 2948.08 1996.67C2954.07 2002.33 2957.61 2006.45 2959.74 2010.65C2969.51 2029.92 2979.17 2049.54 2988.91 2069.3C3011.56 2115.26 3034.6 2162.02 3060.26 2207.09C3048.14 2195.59 3035.21 2184.74 3023.44 2174.88L3021.1 2172.92C3015.32 2168.06 3010.4 2161.81 3003.56 2152.93L3003.15 2152.41C2996.91 2144.32 2988.9 2133.93 2978.41 2125.21C2947.61 2099.64 2916.99 2075.47 2875.28 2059.37C2861.48 2054.04 2847.43 2049.67 2834.29 2045.58C2832.01 2044.87 2829.77 2044.17 2827.55 2043.47C2812.17 2038.65 2797.95 2033.93 2784.35 2027.82C2774.32 2023.31 2762.41 2019.32 2752.02 2015.84C2747.28 2014.25 2742.86 2012.77 2739.08 2011.39C2725.26 2006.36 2714.84 2001.26 2707.06 1994.1C2704.09 1991.37 2693.8 1982.22 2684.06 1973.98C2679.22 1969.88 2674.18 1965.74 2670.12 1962.66C2668.2 1961.2 2665.87 1959.51 2663.64 1958.16C2662.73 1957.62 2660.54 1956.32 2657.76 1955.36C2656.54 1954.93 2653.3 1953.87 2649.06 1953.93C2644.56 1954 2635.07 1955.61 2628.92 1964.94C2621.55 1976.13 2624.65 1991.18 2635.84 1998.54C2637.21 1999.45 2638.63 2000.19 2640.1 2000.79C2640.31 2000.94 2640.55 2001.12 2640.82 2001.33C2643.81 2003.59 2648.05 2007.06 2652.73 2011.02C2662.04 2018.89 2671.81 2027.59 2674.21 2029.8C2689.19 2043.59 2706.96 2051.33 2722.48 2056.98C2728.98 2059.34 2734.72 2061.25 2740.03 2063.02C2748.84 2065.94 2756.47 2068.48 2764.46 2072.07C2780.88 2079.45 2797.47 2084.88 2813.03 2089.76C2815.43 2090.52 2817.8 2091.25 2820.14 2091.98C2833.33 2096.1 2845.64 2099.93 2857.81 2104.63C2891.54 2117.65 2916.95 2137.24 2947.41 2162.54C2953.35 2167.47 2958.37 2173.79 2965.14 2182.56L2965.86 2183.49C2971.97 2191.43 2979.8 2201.59 2989.92 2210.08L2991.6 2211.49C3007.35 2224.7 3022.77 2237.64 3035.82 2251.11C3054.36 2270.24 3075.84 2283.68 3096.23 2295C3103.6 2299.09 3110.59 2302.79 3117.32 2306.36C3130.19 2313.17 3142.12 2319.49 3154.06 2327.13C3155.95 2328.34 3158.86 2330.29 3162.17 2332.5L3162.41 2332.67C3165.47 2334.72 3168.83 2336.97 3171.31 2338.57C3172.4 2339.26 3174.07 2340.32 3175.6 2341.14C3176.02 2341.36 3176.81 2341.78 3177.8 2342.2C3178.3 2342.41 3179.13 2342.76 3180.19 2343.09C3180.99 2343.34 3183.23 2344.03 3186.19 2344.19L3186.2 2344.19C3187.81 2344.29 3197.8 2344.86 3205.6 2336.25C3214.48 2326.44 3211.57 2315.23 3210.76 2312.66C3209.69 2309.23 3208.09 2306.87 3207.59 2306.14C3206.88 2305.11 3206.23 2304.32 3205.85 2303.88C3203.96 2301.7 3201.43 2299.64 3200.57 2298.94C3198.98 2297.62 3196.84 2295.91 3194.11 2293.77C3185.73 2287.19 3177.35 2277.74 3169.32 2267.54C3161.57 2257.69 3152.57 2247.58 3144.07 2238.05C3140.85 2234.43 3137.69 2230.89 3134.71 2227.48C3123.32 2214.45 3113.58 2202.42 3106.66 2190.46C3080.07 2144.52 3056.84 2097.37 3033.21 2049.41C3023.3 2029.31 3013.33 2009.06 3003.01 1988.71C2996.97 1976.79 2988.35 1967.98 2981.44 1961.43C2979.07 1959.19 2976.98 1957.28 2975.11 1955.55C2970.76 1951.56 2967.52 1948.59 2964.44 1944.93C2957.34 1936.51 2948.9 1930.31 2942.93 1925.92L2942.22 1925.4C2935.41 1920.39 2931.62 1917.44 2928.88 1914.12C2920.74 1904.26 2910.3 1897.42 2903.05 1892.67L2902.7 1892.44C2894.33 1886.96 2889.31 1883.62 2885.59 1879.6C2882.37 1876.12 2878.86 1872.21 2875.2 1868.15C2869.44 1861.73 2863.34 1854.95 2857.56 1848.93C2853.07 1844.25 2849.66 1837.77 2845.29 1827.87C2848.36 1828.45 2851.53 1829.09 2854.84 1829.77C2855.77 1829.97 2856.72 1830.16 2857.67 1830.36C2863.93 1831.65 2870.72 1833.06 2877.52 1834.2C2893.26 1836.86 2911.39 1838.61 2930.35 1834.7C2942.16 1832.27 2954.57 1831.23 2968.75 1830.07L2969.35 1830.02C2982.85 1828.92 2998.02 1827.68 3013.04 1824.59C3044.14 1818.19 3076.52 1815.3 3103.17 1822.41C3119.75 1826.83 3135.76 1832.56 3152.45 1838.82C3155.65 1840.02 3158.88 1841.24 3162.15 1842.48C3175.68 1847.6 3189.84 1852.96 3204.36 1857.71C3216.58 1861.71 3228.58 1866.76 3241.69 1872.28C3246.31 1874.22 3251.07 1876.22 3256.02 1878.26C3274.23 1885.74 3294.42 1893.33 3315.63 1896.97C3335.67 1900.41 3353.89 1905.46 3373.49 1910.88C3384.61 1913.96 3396.17 1917.16 3408.75 1920.26C3410.8 1920.76 3418.77 1922.46 3426.05 1923.48C3429.32 1923.94 3434.34 1924.55 3438.85 1924.33C3440.12 1924.27 3441.94 1924.12 3444 1923.68C3445.71 1923.32 3449.56 1922.37 3453.55 1919.63C3458.2 1916.43 3463.96 1909.95 3464.37 1900.13C3464.71 1891.85 3460.93 1886.1 3459.25 1883.87C3455.51 1878.87 3450.66 1875.56 3447.82 1873.78C3444.48 1871.67 3440.91 1869.85 3437.73 1868.37C3431.37 1865.42 3424.82 1863.01 3420.84 1861.74C3388.24 1851.32 3361.02 1841.35 3337.09 1822.47C3320.93 1809.73 3304.48 1797.37 3288.29 1785.23L3287.12 1784.35C3271.25 1772.45 3255.64 1760.74 3240.36 1748.74C3231.48 1741.77 3223.67 1733.06 3214.11 1722.4C3213.48 1721.69 3212.83 1720.97 3212.18 1720.24C3202.35 1709.3 3190.52 1696.34 3175.79 1686.23C3170.55 1682.64 3165.17 1678.59 3159.22 1674.09L3158.36 1673.43C3152.79 1669.22 3146.74 1664.63 3140.51 1660.27C3127.5 1651.15 3112.02 1641.74 3094.27 1636.79C3067.42 1629.3 3040.03 1620.51 3016.12 1609.37C3003.1 1603.31 2989.45 1599.01 2977.68 1595.31C2975.15 1594.52 2972.71 1593.75 2970.38 1593C2965.23 1591.34 2960.43 1589.7 2955.9 1587.95C2958.61 1587.05 2961.25 1586.11 2963.8 1585.16C2974.13 1581.29 2985.46 1576.18 2994.97 1571.88C2999.71 1569.73 3004.01 1567.79 3007.51 1566.31C3026.54 1558.26 3042.22 1546.24 3055.46 1535.73C3056.94 1534.56 3058.39 1533.41 3059.81 1532.28C3071.8 1522.72 3081.84 1514.73 3093.11 1508.59C3120.67 1493.59 3148.4 1482.56 3178.07 1476.45C3192.11 1473.56 3207.3 1473.96 3224.93 1475.5C3229.07 1475.87 3233.46 1476.31 3238.01 1476.77C3251.64 1478.15 3266.77 1479.68 3281.17 1479.66C3290.14 1479.65 3299.25 1480.42 3309.62 1481.3C3314.26 1481.7 3319.14 1482.11 3324.37 1482.49C3340.03 1483.61 3358.14 1484.27 3375.35 1480.73C3394.76 1476.73 3411.91 1468.46 3426.21 1461.45L3428.03 1460.56C3442.34 1453.54 3453.8 1447.92 3465.86 1444.8C3468.87 1444.02 3472.94 1443.2 3478.29 1442.15L3480.2 1441.77C3484.84 1440.87 3490.12 1439.84 3495.34 1438.68C3506.03 1436.31 3521.43 1432.46 3532.3 1425C3533.81 1423.96 3534.93 1423.26 3535.67 1422.82C3536.98 1422.28 3538.29 1421.66 3539.52 1420.94C3539.86 1420.73 3541.43 1419.82 3543.17 1418.33L3543.22 1418.28C3543.78 1417.8 3546.65 1415.34 3548.82 1411.21C3549.99 1408.99 3552.32 1403.72 3551.39 1396.73C3550.29 1388.44 3545.31 1382.55 3540.23 1379.37C3535.98 1376.71 3532.02 1376.06 3530.33 1375.85C3528.33 1375.6 3526.72 1375.65 3525.8 1375.71C3523.98 1375.82 3522.56 1376.12 3521.96 1376.26C3520.62 1376.56 3519.57 1376.92 3519.13 1377.07C3518.18 1377.4 3517.29 1377.78 3516.49 1378.14C3515.79 1378.31 3514.46 1378.58 3512.46 1378.77C3506.3 1379.34 3500.21 1379.67 3493.58 1380.02C3491.28 1380.15 3488.92 1380.28 3486.48 1380.42C3477.33 1380.95 3467.35 1381.67 3457.28 1383.28C3442.34 1385.67 3422.23 1381.93 3400.82 1377.95L3399.75 1377.75C3394.7 1376.81 3389.87 1375.98 3385.25 1375.19C3368.38 1372.29 3354.18 1369.86 3341.8 1364.22C3332.13 1359.82 3321.86 1355.75 3312.25 1351.96C3308.85 1350.62 3305.54 1349.31 3302.37 1348.03C3289.69 1342.91 3278.31 1337.92 3268.12 1331.93C3224.42 1306.17 3181.77 1304.98 3142.11 1309.35C3128.07 1310.9 3113.67 1313.25 3099.89 1315.49C3094.75 1316.33 3089.7 1317.16 3084.78 1317.92C3066.11 1320.82 3048.25 1323.06 3030.35 1323.16C3017.01 1323.23 3003.76 1322.67 2989.81 1322.07C2988.67 1322.02 2987.52 1321.97 2986.37 1321.93C2972.41 1321.33 2957.79 1320.77 2942.84 1320.99C2952.12 1314.39 2960.76 1307.13 2968.72 1299.87C2982.29 1287.49 2996.27 1272.68 3008.37 1259.86C3015.01 1252.82 3021.09 1246.38 3026.23 1241.27C3032.89 1234.64 3039.68 1227.35 3046.09 1220.45C3050.02 1216.23 3053.81 1212.15 3057.34 1208.47C3065.34 1200.15 3071.27 1191.02 3075.86 1183.95L3076.17 1183.47C3081.19 1175.75 3084.75 1170.38 3089.07 1165.86C3093.48 1161.26 3097.97 1156.33 3102.29 1151.57C3103.11 1150.67 3103.92 1149.77 3104.73 1148.89C3109.91 1143.2 3114.95 1137.74 3120.09 1132.58C3130.52 1122.11 3140.22 1114.12 3149.85 1109.35C3170.44 1099.14 3191.26 1088.29 3211.84 1077.56C3224.93 1070.74 3237.93 1063.97 3250.7 1057.44C3256.81 1054.32 3262.56 1051.7 3268.82 1048.84C3272.98 1046.95 3277.37 1044.95 3282.24 1042.63C3293.5 1037.27 3305.76 1030.88 3317.19 1022.38C3321.15 1019.43 3325.35 1016.41 3329.7 1013.29C3343.74 1003.21 3359.3 992.041 3373.15 978.624C3374.18 977.624 3375.61 976.198 3376.88 974.637L3376.9 974.618C3377.36 974.059 3378.97 972.084 3380.31 969.291C3380.88 968.084 3382.58 964.397 3382.72 959.329C3382.89 952.934 3380.33 943.739 3371.4 938.092C3364.64 933.82 3358.09 934.252 3356.21 934.416C3353.63 934.643 3351.65 935.232 3350.73 935.53C3348.78 936.157 3347.27 936.907 3346.65 937.221C3345.2 937.958 3343.89 938.77 3343.06 939.291C3339.82 941.349 3335.28 944.639 3333.18 946.369C3332.65 946.809 3330.52 948.195 3326.82 949.804C3323.31 951.328 3320.08 952.325 3318.26 952.699C3304.59 955.514 3291.45 959.13 3279.18 962.504L3278.91 962.579C3266.32 966.041 3254.65 969.246 3242.77 971.691C3231.23 974.067 3218.4 974.502 3203.51 974.503C3200.98 974.504 3198.37 974.49 3195.7 974.477C3183.42 974.414 3169.76 974.344 3156.72 975.551C3148.86 976.279 3140.77 975.779 3130.47 975.141C3128.94 975.047 3127.36 974.949 3125.73 974.852C3114.1 974.161 3099.68 973.523 3085.14 976.515C3079.77 977.621 3074.36 978.584 3068.87 979.561C3050.03 982.913 3030.25 986.433 3007.92 996.452C2992.29 1003.46 2980.04 1013 2969.8 1021.51C2967.49 1023.42 2965.33 1025.25 2963.25 1027C2955.56 1033.49 2949.12 1038.93 2941.56 1043.81C2918.84 1058.5 2895.84 1065.41 2870.7 1063.74C2854.72 1062.68 2837.24 1065.51 2822.48 1068.48C2849.31 1033.03 2867.84 988.406 2876.27 950.67C2876.83 948.172 2877.38 945.696 2877.93 943.24C2885.63 908.576 2892.41 878.053 2907.43 850.021C2917.56 831.107 2927.36 813.173 2938.56 796.169C2943.14 789.214 2948.79 783.583 2956.27 776.823C2957.37 775.83 2958.53 774.791 2959.75 773.707C2966.31 767.857 2974.36 760.675 2981.66 752.126C2984.93 748.297 2989.3 744.846 2996.12 739.806C2996.56 739.48 2997.02 739.145 2997.48 738.801C3003.49 734.374 3011.48 728.488 3018.43 721.094C3028.55 710.335 3038.93 699.941 3049.78 689.328C3070.45 669.11 3094.17 639.17 3103.5 607.047C3104.13 604.88 3104.95 602.387 3106 599.256L3106.23 598.56C3107.17 595.741 3108.26 592.49 3109.27 589.2C3111.33 582.466 3113.83 573.233 3113.98 563.986C3114 562.899 3114.06 561.541 3114.14 559.766L3114.15 559.507C3114.21 558.198 3114.32 555.916 3114.28 554.104C3114.27 553.56 3114.23 552.52 3114.09 551.292C3114.02 550.681 3113.87 549.635 3113.58 548.375C3113.36 547.438 3112.69 544.715 3110.91 541.657C3109.48 539.188 3103.81 530.575 3091.85 529.597C3080.54 528.672 3073.7 535.529 3072.14 537.19C3068.62 540.929 3067.15 545.026 3067.08 545.21L3067.08 545.216C3066.03 547.864 3065.26 551.268 3064.74 553.66C3064.61 553.89 3064.37 554.3 3063.94 554.896C3062.78 556.528 3060.98 558.613 3058.44 561.137C3055.95 563.62 3053.18 566.122 3050.24 568.708C3049.62 569.253 3048.96 569.826 3048.29 570.417C3046.05 572.372 3043.61 574.505 3041.65 576.344C3038.03 579.726 3034.4 582.501 3029.83 585.998C3027.98 587.411 3025.98 588.942 3023.76 590.679C3016.81 596.124 3008.4 603.153 3001.39 612.641C2995.49 620.616 2984.48 630.049 2970.73 638.56C2957.14 646.975 2943.05 653.145 2932.49 655.812C2912.06 660.971 2892.9 670.179 2876.25 678.184L2875.35 678.612C2857.64 687.122 2842.54 694.292 2827.23 698.194C2751.95 717.372 2698.75 772.121 2660.45 830.279C2653.14 841.377 2644.47 851.575 2634.73 862.795C2634.05 863.58 2633.36 864.372 2632.67 865.171C2632.09 865.839 2631.5 866.511 2630.92 867.188C2630.95 867.009 2630.99 866.83 2631.03 866.65C2634.68 849.461 2633.51 831.839 2631.25 816.422C2629.59 805.187 2627.08 793.599 2624.91 783.613C2624.16 780.129 2623.44 776.839 2622.82 773.828L2607.11 697.465C2604.85 686.496 2605.82 681.384 2607.83 670.733C2608.72 666.002 2609.82 660.177 2610.94 652.261C2615.03 623.218 2624.15 594.963 2635.47 566.005C2640.95 551.957 2646.86 537.995 2652.9 523.697L2653.46 522.365C2659.66 507.714 2665.98 492.708 2671.84 477.538C2692.71 423.463 2694.32 349.583 2683.11 295.15C2682.9 294.103 2682.5 292.349 2681.75 290.388L2681.72 290.295C2681.32 289.226 2679.17 283.436 2673.27 279.041C2669.37 276.133 2663.43 273.582 2656.21 274.304C2649.49 274.976 2644.85 278.18 2642.4 280.351C2638.22 284.046 2636.39 288.261 2635.97 289.231L2635.94 289.295C2634.73 292.073 2634.13 294.772 2633.89 295.853C2633.56 297.37 2633.28 298.934 2633.06 300.312C2632.62 303.074 2632.22 306.135 2631.92 308.493L2631.81 309.304C2631.7 310.2 2631.6 310.972 2631.51 311.66C2631.45 312.093 2631.4 312.435 2631.36 312.702C2631.34 312.857 2631.33 312.957 2631.32 313.012L2631.31 313.059C2629.27 324.857 2621.13 343.163 2613.77 358.086C2612.37 360.944 2610.98 363.76 2609.62 366.538C2594.69 396.915 2582 422.75 2562.94 448.295C2553.7 460.669 2543.5 472.138 2532.55 484.452C2529.25 488.162 2525.88 491.949 2522.45 495.86C2518.16 500.748 2513.86 506.731 2510.53 511.364C2509.42 512.914 2508.42 514.313 2507.56 515.469C2503.37 521.103 2500.34 524.416 2497.4 526.52C2487 533.962 2480.43 543.296 2475.8 550.593C2473.95 553.516 2472.49 555.924 2471.22 558.02C2468.82 561.991 2467.09 564.848 2464.61 567.983C2455.26 579.759 2448.28 592.07 2442.3 603.378C2440.47 606.829 2438.78 610.104 2437.14 613.259C2433.16 620.963 2429.54 627.954 2425.26 635.076C2412.85 655.737 2404.3 677.564 2397.16 698.567C2393.74 708.616 2390.88 717.658 2388.12 726.415C2384.64 737.425 2381.31 747.986 2377.17 759.534C2376.82 760.514 2376.47 761.505 2376.11 762.505C2373.15 770.791 2369.96 779.738 2366.31 788.624C2359.3 761.736 2350 736.003 2339.3 710.713C2331.83 693.068 2323.06 676.352 2314.82 660.652L2314.61 660.267C2306.16 644.165 2298.27 629.098 2291.67 613.491C2289.26 607.815 2286.64 602.196 2284.23 597.037C2283.9 596.331 2283.58 595.634 2283.26 594.946C2280.51 589.046 2278.05 583.68 2275.94 578.366C2271.74 567.8 2269.45 558.696 2269.59 549.626C2270.07 518.961 2267.92 484.19 2263.44 453.717C2261.99 443.821 2262.34 433.372 2262.8 420.091C2262.83 419.331 2262.85 418.562 2262.88 417.783C2263.33 404.346 2263.77 388.017 2260.39 371.608C2259.89 369.181 2259.39 366.722 2258.88 364.236C2252.85 334.843 2246.05 301.623 2236.44 272.004C2234.02 264.537 2230.73 257.981 2228.4 253.334C2228.06 252.649 2227.74 252.006 2227.44 251.407C2226.04 248.578 2225.01 246.34 2224.25 244.328C2223.93 242.657 2223.59 241.02 2223.28 239.708C2223.15 239.149 2222.95 238.329 2222.68 237.446C2222.55 237.011 2222.33 236.303 2222.01 235.474L2222.01 235.461C2221.8 234.93 2221.05 232.968 2219.62 230.764C2218.97 229.761 2217.21 227.161 2214.08 224.742C2210.84 222.238 2203.27 217.906 2193.33 220.389C2184.22 222.665 2179.79 229.11 2178.34 231.548C2176.67 234.343 2175.97 236.824 2175.69 237.87C2175.1 240.125 2174.97 241.982 2174.93 242.55C2174.88 243.389 2174.87 244.104 2174.87 244.572L2174.86 247.05L2175.36 249.477C2175.88 251.962 2176.49 254.318 2177.18 256.546ZM2328.12 843.416C2328.13 843.402 2328.17 843.349 2328.24 843.265C2328.14 843.388 2328.11 843.432 2328.12 843.416ZM2782.71 1070.22C2782.59 1070.19 2782.55 1070.17 2782.56 1070.17C2782.57 1070.18 2782.63 1070.19 2782.71 1070.22ZM2914.44 1562.69C2914.45 1562.69 2914.51 1562.76 2914.62 1562.9C2914.49 1562.76 2914.44 1562.69 2914.44 1562.69ZM2669.44 1991.63C2667.3 1994.87 2664.76 1997.16 2662.18 1998.78C2664.99 1996.99 2667.49 1994.59 2669.44 1991.63ZM3170.65 2337.17C3170.65 2337.17 3170.64 2337.16 3170.63 2337.15C3170.66 2337.18 3170.66 2337.18 3170.65 2337.17ZM3369.24 980.144C3369.23 980.147 3369.22 980.151 3369.22 980.156C3369.26 980.13 3369.26 980.128 3369.24 980.144ZM1695.4 373.354C1695.4 373.355 1695.4 373.355 1695.4 373.355C1695.37 373.326 1695.37 373.323 1695.4 373.354ZM1849.7 965.303C1849.7 965.295 1849.69 965.228 1849.67 965.106C1849.7 965.248 1849.71 965.311 1849.7 965.303Z" fill="#F59324"/>
<path fill-rule="evenodd" clip-rule="evenodd" d="M2107.42 1292.62C2067.42 1331.09 2045.82 1382.36 2061.08 1442.74C2063.71 1453.13 2057.42 1463.68 2047.02 1466.31C2036.63 1468.93 2026.08 1462.64 2023.45 1452.25C2004.11 1375.72 2032.59 1310.74 2080.51 1264.64C2127.9 1219.06 2195.03 1190.93 2257.47 1185.5C2398.69 1173.22 2523.13 1277.71 2535.41 1418.89C2546.87 1550.77 2456.44 1667.98 2329.38 1692.89C2323.82 1693.98 2307.2 1695.38 2292.9 1696.51C2284.74 1697.16 2276.8 1697.76 2270.5 1698.24C2264.86 1698.66 2260.53 1698.99 2258.52 1699.16C2247.84 1700.09 2238.43 1692.19 2237.51 1681.51C2236.58 1670.84 2244.48 1661.43 2255.16 1660.5C2257.26 1660.32 2261.98 1659.96 2267.96 1659.51C2274.36 1659.02 2282.2 1658.43 2289.82 1657.82C2297.34 1657.23 2304.76 1656.61 2310.79 1656.04C2313.81 1655.76 2316.4 1655.5 2318.44 1655.26C2319.46 1655.15 2320.29 1655.04 2320.93 1654.95C2321.25 1654.91 2321.5 1654.87 2321.68 1654.84C2321.84 1654.82 2321.91 1654.8 2321.91 1654.8C2429.73 1633.66 2506.47 1534.15 2496.74 1422.25C2486.32 1302.43 2380.71 1213.74 2260.83 1224.17C2206.55 1228.89 2147.94 1253.64 2107.42 1292.62Z" fill="white"/>
<path fill-rule="evenodd" clip-rule="evenodd" d="M2550.5 1631.1C2562 1631.1 2571.33 1621.63 2571.33 1609.93C2571.33 1598.24 2562 1588.76 2550.5 1588.76C2539 1588.76 2529.67 1598.24 2529.67 1609.93C2529.67 1621.63 2539 1631.1 2550.5 1631.1ZM2550.5 1640.93C2567.34 1640.93 2581 1627.05 2581 1609.93C2581 1592.81 2567.34 1578.93 2550.5 1578.93C2533.66 1578.93 2520 1592.81 2520 1609.93C2520 1627.05 2533.66 1640.93 2550.5 1640.93Z" fill="white"/>
<path fill-rule="evenodd" clip-rule="evenodd" d="M2272 976.451C2019.36 976.451 1814.55 1181.12 1814.55 1433.59C1814.55 1458.45 1816.54 1482.83 1820.35 1506.59C1822.47 1519.82 1813.46 1532.27 1800.23 1534.39C1786.99 1536.51 1774.54 1527.51 1772.41 1514.28C1768.19 1487.99 1766 1461.03 1766 1433.59C1766 1154.32 1992.54 927.934 2272 927.934C2551.46 927.934 2778 1154.32 2778 1433.59C2778 1663.1 2645.4 1852.49 2400.55 1923.95C2387.68 1927.71 2374.2 1920.33 2370.44 1907.47C2366.68 1894.61 2374.07 1881.14 2386.94 1877.38C2611.09 1811.96 2729.45 1641.54 2729.45 1433.59C2729.45 1181.12 2524.64 976.451 2272 976.451Z" fill="#F59324"/>
<path fill-rule="evenodd" clip-rule="evenodd" d="M2053.47 1100.93L2118 1182.03L2104.17 1188.62C2080.27 1200.01 2067.33 1207.95 2057.45 1217.26C2047.51 1226.63 2040.01 1237.96 2027.94 1257.77L2020.53 1269.93L1955 1214.21L1957.17 1206.66C1967.42 1170.91 1982.74 1149.27 1999.56 1134.59C2011.38 1124.27 2024.43 1117.26 2034.74 1111.72C2038.33 1109.79 2041.59 1108.04 2044.34 1106.39L2053.47 1100.93ZM1982.83 1205.93L2014.66 1232.99C2023.23 1219.45 2030.9 1208.84 2040.79 1199.52C2050.96 1189.94 2063.07 1182.1 2080.02 1173.39L2047.53 1132.55C2046.33 1133.19 2045.14 1133.83 2043.96 1134.46C2034.37 1139.61 2025.15 1144.56 2015.54 1152.95C2003.66 1163.32 1991.74 1178.88 1982.83 1205.93Z" fill="white"/>
<path fill-rule="evenodd" clip-rule="evenodd" d="M2106.2 1077.09L2140.03 1174.68L2152.95 1166.54C2195.13 1139.96 2240.47 1135.83 2285.7 1136.58L2299.89 1136.81L2287.95 1051.91L2280.44 1049.71C2208.54 1028.67 2142.05 1058.98 2115.66 1072.31L2106.2 1077.09ZM2266.14 1071.01L2271.94 1112.26C2233.45 1112.6 2192.55 1117.52 2153.14 1138.42L2136.12 1089.33C2163.86 1076.41 2213.37 1058.44 2266.14 1071.01Z" fill="white"/>
<path d="M1951.7 1844.23C1931.8 1844.23 1916.48 1837.6 1905.74 1824.33C1895.32 1811.07 1888.21 1795.12 1884.42 1776.48C1880.63 1757.85 1878.73 1740.32 1878.73 1723.89C1878.73 1688.83 1886.95 1654.09 1903.37 1619.66C1920.11 1585.23 1943.01 1553.96 1972.07 1525.85C2001.13 1497.43 2034.45 1474.84 2072.04 1458.1C2109.94 1441.05 2149.89 1432.52 2191.9 1432.52C2206.11 1432.52 2219.54 1434.1 2232.17 1437.26C2244.81 1440.1 2257.91 1443.73 2271.5 1448.15C2270.86 1451.94 2268.65 1462.21 2264.86 1478.95C2261.07 1495.37 2256.65 1515.11 2251.6 1538.17C2246.54 1561.23 2241.49 1584.6 2236.44 1608.29C2231.7 1631.98 2227.59 1653.3 2224.12 1672.25C2220.96 1690.89 2219.38 1704.15 2219.38 1712.05C2219.38 1732.26 2224.12 1742.37 2233.59 1742.37C2242.12 1742.37 2253.65 1736.53 2268.18 1724.84C2283.02 1713.15 2299.92 1697.68 2318.87 1678.41C2337.83 1659.14 2357.72 1637.98 2378.57 1614.92V1669.41C2370.99 1678.57 2359.93 1690.41 2345.41 1704.94C2331.19 1719.16 2315.08 1734.32 2297.08 1750.42C2279.08 1766.53 2260.92 1781.69 2242.6 1795.91C2224.59 1810.12 2207.69 1821.65 2191.9 1830.49C2176.42 1839.65 2163.95 1844.23 2154.47 1844.23C2140.26 1844.23 2130.63 1837.92 2125.57 1825.28C2120.83 1812.33 2118.47 1797.96 2118.47 1782.17C2118.47 1773.96 2118.78 1765.9 2119.41 1758C2120.36 1749.79 2121.31 1742.53 2122.26 1736.21C2109.31 1752.95 2093.83 1769.69 2075.83 1786.43C2057.82 1803.17 2038.24 1817.07 2017.08 1828.12C1995.92 1838.86 1974.12 1844.23 1951.7 1844.23ZM2026.08 1768.43C2035.87 1768.43 2046.93 1764.8 2059.24 1757.53C2071.88 1750.27 2084.35 1741.42 2096.67 1731C2108.99 1720.58 2119.41 1710.79 2127.94 1701.63L2182.43 1468.53C2155.89 1468.53 2130.47 1475.63 2106.15 1489.85C2081.83 1504.06 2060.19 1522.7 2041.24 1545.75C2022.29 1568.49 2007.29 1593.29 1996.23 1620.14C1985.18 1646.67 1979.65 1672.41 1979.65 1697.36C1979.65 1715.68 1982.97 1732.11 1989.6 1746.63C1996.55 1761.16 2008.71 1768.43 2026.08 1768.43Z" fill="white"/>
<path d="M1724.28 1844.23C1707.86 1844.23 1697.44 1839.97 1693.02 1831.44C1688.59 1822.91 1686.38 1815.17 1686.38 1808.23C1686.38 1782.96 1689.86 1757.37 1696.81 1731.47C1704.07 1705.57 1712.44 1680.78 1721.92 1657.09C1731.39 1633.4 1739.6 1611.92 1746.55 1592.66C1753.82 1573.39 1757.45 1557.91 1757.45 1546.23C1757.45 1538.01 1755.55 1531.7 1751.76 1527.28C1747.97 1522.54 1743.71 1520.17 1738.97 1520.17C1723.5 1520.17 1707.86 1528.38 1692.07 1544.8C1676.28 1561.23 1660.96 1582.39 1646.11 1608.29C1631.58 1634.19 1618.16 1661.51 1605.84 1690.25C1593.84 1719 1583.57 1746 1575.04 1771.27C1566.83 1796.22 1560.99 1815.96 1557.52 1830.49H1467.02C1467.34 1815.96 1469.39 1797.01 1473.18 1773.64C1476.66 1750.27 1481.39 1725 1487.4 1697.84C1493.71 1670.36 1500.35 1643.03 1507.29 1615.87C1514.24 1588.71 1521.19 1563.76 1528.14 1541.01C1535.09 1517.96 1541.25 1499.64 1546.62 1486.06C1552.94 1469.32 1562.25 1458.89 1574.57 1454.79C1586.89 1450.37 1601.26 1448.15 1617.68 1448.15H1649.43C1649.43 1448.15 1647.53 1454.47 1643.74 1467.11C1640.27 1479.74 1635.69 1495.53 1630 1514.48C1624.63 1533.43 1618.95 1552.54 1612.95 1571.81C1607.26 1590.76 1602.37 1606.87 1598.26 1620.14C1607.74 1602.45 1620.37 1582.87 1636.16 1561.39C1652.27 1539.91 1670.43 1519.38 1690.65 1499.8C1710.86 1480.21 1732.02 1464.1 1754.13 1451.47C1776.24 1438.84 1798.04 1432.52 1819.51 1432.52C1850.47 1432.52 1865.94 1451 1865.94 1487.95C1865.94 1497.74 1863.73 1511.17 1859.31 1528.22C1854.89 1545.28 1849.36 1563.91 1842.73 1584.13C1836.1 1604.03 1829.31 1623.77 1822.36 1643.35C1815.72 1662.62 1810.2 1679.67 1805.77 1694.52C1801.35 1709.05 1799.14 1719.16 1799.14 1724.84C1799.14 1730.53 1801.04 1733.37 1804.83 1733.37C1808.93 1733.37 1814.46 1731.16 1821.41 1726.74C1825.52 1723.89 1832.46 1718.05 1842.26 1709.21C1852.05 1700.05 1862.79 1689.78 1874.47 1678.41C1886.47 1667.04 1897.69 1656.3 1908.11 1646.19C1918.85 1636.09 1927.06 1628.66 1932.75 1623.93V1676.99C1925.17 1684.57 1914.43 1695.15 1900.53 1708.73C1886.63 1722 1871.16 1736.53 1854.1 1752.32C1837.04 1767.8 1819.99 1782.48 1802.93 1796.38C1786.19 1810.28 1770.72 1821.65 1756.5 1830.49C1742.6 1839.65 1731.87 1844.23 1724.28 1844.23Z" fill="white"/>
<path d="M1311.15 1844.23C1295.99 1844.23 1285.25 1837.6 1278.93 1824.33C1272.62 1810.75 1269.46 1796.7 1269.46 1782.17C1269.46 1772.06 1271.19 1757.06 1274.67 1737.16C1278.46 1716.94 1283.04 1694.83 1288.41 1670.83C1294.09 1646.51 1299.94 1622.5 1305.94 1598.82C1312.25 1574.81 1317.94 1553.81 1322.99 1535.8C1328.36 1517.48 1332.47 1504.85 1335.31 1497.9C1341.95 1480.85 1350 1469 1359.47 1462.37C1369.27 1455.42 1380.79 1451.31 1394.06 1450.05C1407.33 1448.79 1422.65 1448.15 1440.02 1448.15C1436.86 1458.89 1432.28 1474.05 1426.28 1493.64C1420.28 1513.22 1413.8 1535.01 1406.85 1559.02C1399.9 1582.71 1393.27 1606.4 1386.95 1630.09C1380.64 1653.46 1375.43 1674.62 1371.32 1693.57C1367.21 1712.52 1365.16 1726.74 1365.16 1736.21C1365.16 1740.63 1366.11 1746.95 1368 1755.16C1370.21 1763.37 1374.79 1767.48 1381.74 1767.48C1385.53 1767.48 1394.06 1761.64 1407.33 1749.95C1420.91 1738.26 1436.23 1724.21 1453.28 1707.78C1470.34 1691.04 1486.45 1674.78 1501.61 1658.99C1516.77 1643.19 1527.98 1631.19 1535.25 1622.98V1676.04C1481.87 1728.47 1438.44 1769.22 1404.96 1798.28C1371.48 1827.33 1340.21 1842.65 1311.15 1844.23ZM1438.6 1335.87C1425.33 1335.87 1415.85 1332.24 1410.17 1324.97C1404.48 1317.39 1401.64 1308.71 1401.64 1298.91C1401.64 1288.18 1404.33 1277.12 1409.7 1265.75C1415.38 1254.06 1423.12 1244.27 1432.91 1236.38C1443.02 1228.16 1454.55 1224.06 1467.5 1224.06C1486.13 1224.06 1499.56 1227.85 1507.77 1235.43C1515.98 1242.69 1520.09 1251.22 1520.09 1261.01C1520.09 1271.75 1516.3 1282.96 1508.71 1294.65C1501.13 1306.34 1491.19 1316.13 1478.87 1324.02C1466.55 1331.92 1453.12 1335.87 1438.6 1335.87Z" fill="white"/>
<path d="M27.8441 1984.93C19.5501 1984.93 12.8359 1979.2 7.70156 1967.74C2.56719 1956.28 0 1934.95 0 1903.73C0 1887.53 6.91166 1874.49 20.735 1864.61C34.5583 1854.73 52.3311 1845.64 74.0535 1837.35C95.7758 1829.44 119.078 1820.36 143.96 1810.08C168.842 1799.81 192.736 1786.57 215.644 1770.37C238.551 1753.77 257.706 1731.84 273.109 1704.58C295.621 1656.37 321.096 1602.24 349.532 1542.18C378.364 1481.72 407.985 1419.48 438.396 1355.47C468.808 1291.46 498.429 1229.42 527.261 1169.36C556.092 1108.9 581.764 1054.57 604.276 1006.36C620.469 976.727 644.166 952.623 675.367 934.052C706.569 915.085 739.547 905.601 774.303 905.601L781.412 909.75C767.589 1014.07 758.307 1119.37 753.568 1225.67C748.828 1331.56 743.102 1437.46 736.388 1543.36H745.274C764.627 1504.64 781.215 1471.84 795.038 1444.97C808.861 1418.1 822.289 1392.22 835.323 1367.33C848.356 1342.04 862.97 1313.59 879.163 1281.97C895.356 1249.97 915.301 1210.26 938.998 1162.84C962.695 1115.42 992.316 1055.56 1027.86 983.247C1033.39 974.159 1043.27 964.675 1057.48 954.797C1072.1 944.523 1088.49 935.04 1106.65 926.346C1124.82 917.258 1142.4 909.948 1159.38 904.416C1176.76 898.489 1190.78 895.328 1201.44 894.933C1201.44 895.328 1202.04 895.723 1203.22 896.118C1204.8 896.118 1205.79 896.513 1206.18 897.303C1196.31 949.067 1185.65 1004.78 1174.19 1064.45C1162.74 1123.72 1151.48 1183.78 1140.42 1244.63C1129.36 1305.09 1119.29 1363.77 1110.21 1420.67C1101.13 1477.17 1093.82 1528.74 1088.29 1575.37C1082.76 1621.6 1080 1659.73 1080 1689.76C1080 1728.09 1089.28 1747.25 1107.84 1747.25C1117.32 1747.25 1131.34 1740.93 1149.9 1728.29C1168.46 1715.64 1188.8 1699.84 1210.92 1680.87C1233.43 1661.51 1255.16 1641.95 1276.09 1622.19C1297.42 1602.43 1315.39 1585.44 1330 1571.22V1638.79C1286.95 1680.67 1244.89 1718.61 1203.81 1752.59C1162.74 1786.57 1125.02 1813.44 1090.66 1833.2C1056.69 1853.35 1028.06 1863.43 1004.76 1863.43C983.43 1863.43 966.842 1853.75 954.993 1834.38C943.54 1815.42 937.813 1783.81 937.813 1739.55C937.813 1704.38 940.38 1664.47 945.514 1619.82C951.044 1574.77 957.758 1528.35 965.657 1480.53C973.556 1432.72 981.653 1386.49 989.947 1341.84C998.635 1297.19 1005.94 1257.48 1011.87 1222.7C1013.45 1210.45 1015.82 1196.43 1018.98 1180.62C1022.14 1164.81 1025.1 1150.39 1027.86 1137.35C1031.02 1123.92 1032.6 1115.22 1032.6 1111.27C1032.6 1104.56 1030.63 1101.2 1026.68 1101.2C1021.15 1101.2 1017.59 1103.57 1016.01 1108.31C1007.72 1124.51 995.081 1149.4 978.098 1182.99C961.115 1216.58 941.17 1255.5 918.263 1299.76C895.751 1344.01 871.856 1390.44 846.579 1439.04C821.697 1487.65 797.013 1535.26 772.526 1581.89C748.039 1628.51 725.131 1670.99 703.804 1709.32C682.872 1747.65 665.099 1778.67 650.486 1802.38C636.267 1826.09 626.986 1839.13 622.641 1841.5C610.398 1837.94 602.104 1832.61 597.759 1825.49C593.415 1817.98 591.243 1811.66 591.243 1806.53L607.831 1162.25H599.537L315.764 1753.18C303.915 1774.52 287.13 1798.43 265.408 1824.9C243.685 1851.37 219.198 1876.66 191.947 1900.77C164.695 1925.27 136.851 1945.42 108.414 1961.22C79.9777 1977.03 53.121 1984.93 27.8441 1984.93Z" fill="white"/>
</svg>
