<svg width="3970" height="2820" viewBox="0 0 3970 2820" fill="none" xmlns="http://www.w3.org/2000/svg">
<path d="M2080.61 1966.04C2059.39 1966.04 2043.06 1958.97 2031.61 1944.83C2020.5 1930.68 2012.93 1913.68 2008.89 1893.81C2004.84 1873.95 2002.82 1855.26 2002.82 1837.75C2002.82 1800.38 2011.58 1763.34 2029.09 1726.64C2046.93 1689.93 2071.35 1656.6 2102.32 1626.63C2133.3 1596.33 2168.82 1572.25 2208.89 1554.41C2249.3 1536.23 2291.89 1527.13 2336.68 1527.13C2351.83 1527.13 2366.14 1528.82 2379.61 1532.18C2393.08 1535.21 2407.05 1539.09 2421.53 1543.8C2420.85 1547.84 2418.5 1558.78 2414.46 1576.63C2410.42 1594.14 2405.7 1615.18 2400.31 1639.76C2394.93 1664.34 2389.54 1689.26 2384.15 1714.51C2379.1 1739.77 2374.72 1762.5 2371.02 1782.7C2367.65 1802.57 2365.97 1816.71 2365.97 1825.13C2365.97 1846.67 2371.02 1857.45 2381.12 1857.45C2390.21 1857.45 2402.5 1851.22 2417.99 1838.76C2433.82 1826.3 2451.83 1809.8 2472.03 1789.27C2492.24 1768.73 2513.45 1746.17 2535.67 1721.59V1779.67C2527.59 1789.43 2515.81 1802.06 2500.32 1817.55C2485.17 1832.7 2467.99 1848.86 2448.8 1866.04C2429.61 1883.21 2410.25 1899.37 2390.72 1914.52C2371.53 1929.67 2353.51 1941.96 2336.68 1951.39C2320.18 1961.16 2306.88 1966.04 2296.78 1966.04C2281.62 1966.04 2271.35 1959.31 2265.97 1945.84C2260.92 1932.03 2258.39 1916.71 2258.39 1899.88C2258.39 1891.12 2258.73 1882.53 2259.4 1874.12C2260.41 1865.36 2261.42 1857.62 2262.43 1850.88C2248.63 1868.73 2232.13 1886.58 2212.93 1904.42C2193.74 1922.27 2172.86 1937.08 2150.3 1948.87C2127.74 1960.32 2104.51 1966.04 2080.61 1966.04ZM2159.9 1885.23C2170.34 1885.23 2182.12 1881.36 2195.26 1873.61C2208.72 1865.87 2222.02 1856.44 2235.16 1845.33C2248.29 1834.22 2259.4 1823.78 2268.49 1814.01L2326.57 1565.52C2298.29 1565.52 2271.18 1573.1 2245.26 1588.25C2219.33 1603.4 2196.27 1623.27 2176.06 1647.85C2155.86 1672.09 2139.87 1698.52 2128.08 1727.14C2116.3 1755.43 2110.4 1782.87 2110.4 1809.47C2110.4 1829 2113.94 1846.51 2121.01 1862C2128.42 1877.48 2141.38 1885.23 2159.9 1885.23Z" fill="white"/>
<path d="M1838.17 1966.04C1820.66 1966.04 1809.55 1961.49 1804.84 1952.4C1800.12 1943.31 1797.77 1935.06 1797.77 1927.65C1797.77 1900.72 1801.47 1873.44 1808.88 1845.83C1816.62 1818.22 1825.54 1791.79 1835.65 1766.54C1845.75 1741.28 1854.5 1718.39 1861.91 1697.85C1869.65 1677.31 1873.53 1660.81 1873.53 1648.35C1873.53 1639.6 1871.51 1632.86 1867.47 1628.15C1863.42 1623.1 1858.88 1620.57 1853.83 1620.57C1837.33 1620.57 1820.66 1629.33 1803.83 1646.84C1786.99 1664.34 1770.66 1686.9 1754.83 1714.51C1739.35 1742.13 1725.04 1771.25 1711.9 1801.89C1699.11 1832.53 1688.17 1861.32 1679.07 1888.26C1670.32 1914.86 1664.09 1935.9 1660.39 1951.39H1563.92C1564.25 1935.9 1566.44 1915.7 1570.48 1890.78C1574.19 1865.87 1579.24 1838.93 1585.64 1809.97C1592.37 1780.68 1599.44 1751.55 1606.85 1722.6C1614.26 1693.64 1621.66 1667.04 1629.07 1642.79C1636.48 1618.21 1643.05 1598.69 1648.77 1584.21C1655.5 1566.36 1665.44 1555.25 1678.57 1550.87C1691.7 1546.16 1707.02 1543.8 1724.53 1543.8H1758.37C1758.37 1543.8 1756.35 1550.54 1752.31 1564C1748.61 1577.47 1743.72 1594.31 1737.66 1614.51C1731.94 1634.71 1725.88 1655.08 1719.48 1675.62C1713.42 1695.83 1708.2 1713 1703.82 1727.14C1713.92 1708.29 1727.39 1687.41 1744.23 1664.51C1761.4 1641.62 1780.76 1619.73 1802.31 1598.85C1823.86 1577.98 1846.42 1560.81 1869.99 1547.34C1893.56 1533.87 1916.79 1527.13 1939.69 1527.13C1972.69 1527.13 1989.19 1546.83 1989.19 1586.23C1989.19 1596.67 1986.83 1610.98 1982.12 1629.16C1977.4 1647.34 1971.51 1667.21 1964.44 1688.76C1957.37 1709.97 1950.13 1731.01 1942.72 1751.89C1935.65 1772.43 1929.76 1790.61 1925.04 1806.44C1920.33 1821.93 1917.97 1832.7 1917.97 1838.76C1917.97 1844.82 1919.99 1847.85 1924.03 1847.85C1928.41 1847.85 1934.3 1845.5 1941.71 1840.78C1946.09 1837.75 1953.5 1831.52 1963.93 1822.09C1974.37 1812.33 1985.82 1801.39 1998.28 1789.27C2011.07 1777.14 2023.03 1765.7 2034.14 1754.92C2045.59 1744.15 2054.34 1736.23 2060.4 1731.18V1787.75C2052.32 1795.83 2040.87 1807.11 2026.06 1821.59C2011.24 1835.73 1994.74 1851.22 1976.56 1868.06C1958.38 1884.56 1940.2 1900.21 1922.01 1915.03C1904.17 1929.84 1887.67 1941.96 1872.52 1951.39C1857.7 1961.16 1846.25 1966.04 1838.17 1966.04Z" fill="white"/>
<path d="M1397.75 1966.04C1381.58 1966.04 1370.14 1958.97 1363.4 1944.83C1356.67 1930.35 1353.3 1915.36 1353.3 1899.88C1353.3 1889.1 1355.15 1873.11 1358.86 1851.89C1362.9 1830.34 1367.78 1806.77 1373.5 1781.18C1379.56 1755.26 1385.79 1729.67 1392.19 1704.41C1398.93 1678.82 1404.99 1656.43 1410.37 1637.24C1416.1 1617.71 1420.48 1604.24 1423.51 1596.83C1430.58 1578.65 1439.16 1566.02 1449.26 1558.95C1459.7 1551.55 1471.99 1547.17 1486.13 1545.82C1500.28 1544.47 1516.61 1543.8 1535.13 1543.8C1531.76 1555.25 1526.88 1571.41 1520.48 1592.29C1514.08 1613.16 1507.18 1636.4 1499.77 1661.99C1492.36 1687.24 1485.29 1712.5 1478.56 1737.75C1471.82 1762.67 1466.27 1785.23 1461.89 1805.43C1457.51 1825.63 1455.32 1840.78 1455.32 1850.88C1455.32 1855.6 1456.34 1862.33 1458.36 1871.09C1460.71 1879.84 1465.59 1884.22 1473 1884.22C1477.04 1884.22 1486.13 1877.99 1500.28 1865.53C1514.75 1853.07 1531.09 1838.09 1549.27 1820.58C1567.45 1802.73 1584.62 1785.39 1600.79 1768.56C1616.95 1751.72 1628.9 1738.93 1636.65 1730.17V1786.74C1579.74 1842.63 1533.44 1886.07 1497.75 1917.05C1462.06 1948.03 1428.72 1964.36 1397.75 1966.04ZM1533.61 1424.1C1519.47 1424.1 1509.37 1420.23 1503.31 1412.48C1497.25 1404.4 1494.22 1395.14 1494.22 1384.7C1494.22 1373.26 1497.08 1361.47 1502.8 1349.35C1508.86 1336.89 1517.11 1326.45 1527.55 1318.04C1538.32 1309.28 1550.61 1304.9 1564.42 1304.9C1584.29 1304.9 1598.6 1308.94 1607.35 1317.03C1616.11 1324.77 1620.48 1333.86 1620.48 1344.3C1620.48 1355.75 1616.44 1367.7 1608.36 1380.16C1600.28 1392.62 1589.67 1403.06 1576.54 1411.47C1563.41 1419.89 1549.1 1424.1 1533.61 1424.1Z" fill="white"/>
<path d="M29.6649 2115.36C20.8286 2115.36 13.6753 2109.25 8.20519 2097.05C2.73506 2084.84 0 2062.11 0 2028.86C0 2011.6 7.36364 1997.71 22.0909 1987.19C36.8182 1976.66 55.7532 1966.98 78.8961 1958.14C102.039 1949.72 126.865 1940.04 153.374 1929.1C179.883 1918.16 205.34 1904.05 229.745 1886.8C254.151 1869.12 274.558 1845.76 290.969 1816.71C314.953 1765.36 342.093 1707.69 372.39 1643.71C403.106 1579.31 434.665 1513.02 467.065 1444.83C499.465 1376.64 531.023 1310.55 561.74 1246.57C592.457 1182.17 619.808 1124.29 643.792 1072.94C661.044 1041.37 686.291 1015.69 719.532 995.911C752.774 975.707 787.909 965.605 824.938 965.605L832.512 970.024C817.784 1081.15 807.896 1193.32 802.847 1306.55C797.797 1419.36 791.696 1532.17 784.543 1644.98H794.01C814.628 1603.73 832.301 1568.79 847.028 1540.17C861.756 1511.54 876.062 1483.97 889.948 1457.45C903.834 1430.52 919.402 1400.21 936.654 1366.53C953.906 1332.44 975.156 1290.14 1000.4 1239.63C1025.65 1189.12 1057.21 1125.35 1095.08 1048.32C1100.97 1038.63 1111.49 1028.53 1126.64 1018.01C1142.2 1007.07 1159.67 996.964 1179.02 987.703C1198.38 978.022 1217.1 970.235 1235.2 964.342C1253.71 958.028 1268.65 954.661 1280.01 954.24C1280.01 954.661 1280.64 955.082 1281.9 955.503C1283.59 955.503 1284.64 955.923 1285.06 956.765C1274.54 1011.91 1263.18 1071.26 1250.98 1134.82C1238.77 1197.95 1226.78 1261.94 1215 1326.76C1203.22 1391.16 1192.49 1453.67 1182.81 1514.28C1173.13 1574.47 1165.35 1629.4 1159.46 1679.07C1153.57 1728.32 1150.62 1768.94 1150.62 1800.93C1150.62 1841.76 1160.51 1862.17 1180.29 1862.17C1190.38 1862.17 1205.32 1855.44 1225.1 1841.97C1244.88 1828.5 1266.55 1811.66 1290.11 1791.46C1314.09 1770.83 1337.24 1750 1359.54 1728.95C1382.26 1707.9 1401.41 1689.8 1416.97 1674.65V1746.63C1371.11 1791.25 1326.3 1831.66 1282.53 1867.85C1238.77 1904.05 1198.59 1932.68 1161.98 1953.72C1125.79 1975.19 1095.29 1985.92 1070.46 1985.92C1047.74 1985.92 1030.07 1975.61 1017.44 1954.99C1005.24 1934.78 999.14 1901.11 999.14 1853.96C999.14 1816.5 1001.88 1773.99 1007.35 1726.42C1013.24 1678.44 1020.39 1628.98 1028.81 1578.05C1037.22 1527.12 1045.85 1477.87 1054.68 1430.3C1063.94 1382.74 1071.72 1340.44 1078.04 1303.4C1079.72 1290.35 1082.24 1275.4 1085.61 1258.57C1088.98 1241.73 1092.13 1226.37 1095.08 1212.48C1098.44 1198.17 1100.13 1188.9 1100.13 1184.7C1100.13 1177.54 1098.02 1173.96 1093.82 1173.96C1087.92 1173.96 1084.14 1176.49 1082.45 1181.54C1073.62 1198.8 1060.15 1225.31 1042.06 1261.09C1023.97 1296.87 1002.72 1338.33 978.312 1385.48C954.327 1432.62 928.87 1482.08 901.94 1533.85C875.431 1585.63 849.132 1636.35 823.044 1686.02C796.956 1735.68 772.551 1780.93 749.828 1821.76C727.527 1862.59 708.592 1895.64 693.023 1920.89C677.875 1946.15 667.987 1960.04 663.358 1962.56C650.314 1958.77 641.478 1953.09 636.849 1945.52C632.221 1937.52 629.906 1930.78 629.906 1925.31L647.579 1238.99H638.743L336.413 1868.49C323.79 1891.22 305.906 1916.68 282.764 1944.88C259.621 1973.09 233.532 2000.03 204.499 2025.7C175.465 2051.8 145.8 2073.27 115.504 2090.1C85.2078 2106.94 56.5948 2115.36 29.6649 2115.36Z" fill="white"/>
<path fill-rule="evenodd" clip-rule="evenodd" d="M2324.2 1049.62C2284.34 1048.76 2241.72 1054.63 2206.65 1069.47C2174.52 1083.07 2143.91 1101.99 2112.09 1121.67C2101.97 1127.92 2091.73 1134.26 2081.28 1140.52C2043.9 1162.9 2008.66 1192.44 1975.97 1223.82C1973.72 1225.98 1971.58 1228.01 1969.52 1229.96C1961.4 1237.67 1954.67 1244.07 1948.09 1251.77C1948.14 1251.71 1948.13 1251.73 1948.05 1251.85C1947.85 1252.14 1947.21 1253.09 1945.96 1255.15C1945.57 1255.81 1945.06 1256.67 1944.49 1257.63C1943.27 1259.69 1941.76 1262.25 1940.45 1264.36C1938.38 1267.69 1935.61 1271.91 1932.31 1275.74C1929.5 1279.01 1923.75 1285.1 1915.02 1288.06C1901.5 1292.66 1886.81 1285.42 1882.22 1271.89C1878.18 1260.01 1883.29 1247.22 1893.76 1241.18C1894.43 1240.3 1895.34 1238.97 1896.53 1237.05C1897.6 1235.33 1898.46 1233.86 1899.44 1232.21C1900.09 1231.1 1900.8 1229.9 1901.65 1228.49C1903.24 1225.85 1905.79 1221.67 1908.76 1218.19C1917.27 1208.22 1926.41 1199.55 1934.72 1191.68C1936.58 1189.92 1938.4 1188.19 1940.16 1186.5C1974.31 1153.73 2012.71 1121.3 2054.7 1096.15C2063.69 1090.77 2072.97 1085.02 2082.5 1079.12C2114.98 1059.02 2150.33 1037.15 2186.49 1021.84C2230.11 1003.38 2280.43 996.94 2325.33 997.915C2376.6 999.029 2428.04 1004.47 2478.44 1012.9C2536.84 1022.67 2584.43 1041.48 2635.69 1064.53C2651.28 1071.54 2664.83 1081.36 2676.17 1089.71C2676.91 1090.25 2677.63 1090.79 2678.35 1091.31C2689.39 1099.45 2698.48 1106.15 2708.26 1111.24C2712.42 1113.41 2716.91 1115.68 2721.6 1118.05C2741.32 1128.02 2764.77 1139.86 2783.69 1154.22C2826.38 1186.6 2859.14 1231.14 2886.23 1272.17C2917.45 1319.47 2937.12 1373.39 2949.34 1426.64C2952.8 1441.67 2956.61 1454.88 2960.59 1468.67C2963.42 1478.46 2966.34 1488.55 2969.26 1499.78C2975.85 1525.09 2981.23 1552.26 2980.76 1582.31C2979.48 1663.98 2959.83 1734.96 2936.97 1807.8C2932.12 1823.25 2924.3 1837.35 2916.84 1849.5C2913 1855.74 2909.71 1860.82 2906.64 1865.55C2902.88 1871.34 2899.46 1876.61 2895.8 1882.86C2885.92 1899.72 2874.6 1917.09 2861.16 1932.83C2848.42 1947.75 2820.89 1971.68 2801.82 1987.84C2795.08 1993.55 2789.05 1998.58 2784.6 2002.28C2783.65 2003.31 2782.61 2004.28 2781.48 2005.17L2780.74 2005.75C2778.26 2007.71 2775.94 2009.53 2774.88 2010.26L2774.87 2010.27C2774.74 2010.37 2773.97 2010.9 2772.97 2011.48C2772.66 2011.65 2771.89 2012.06 2771.43 2012.29C2770.72 2012.63 2768.78 2013.41 2767.52 2013.83C2764.95 2014.46 2755.94 2014.59 2749.8 2012.79C2740.51 2005.97 2734.22 1988.92 2735.18 1982.07C2736.09 1979.39 2737.99 1975.61 2738.75 1974.44C2739.22 1973.77 2740.04 1972.71 2740.37 1972.31C2741.01 1971.55 2741.56 1971 2741.76 1970.8C2742.08 1970.48 2742.37 1970.21 2742.55 1970.04C2742.63 1969.96 2742.69 1969.91 2742.73 1969.87C2743.21 1969.43 2743.72 1969 2743.92 1968.84L2743.94 1968.82C2744.52 1968.33 2745.39 1967.61 2746.4 1966.77C2746.88 1966.37 2747.42 1965.92 2748 1965.44C2752.47 1961.73 2759.83 1955.63 2768.38 1948.39C2788.48 1931.36 2812.38 1910.32 2821.83 1899.25C2832.51 1886.74 2842.08 1872.24 2851.17 1856.72C2854.9 1850.35 2859.87 1842.63 2864.49 1835.46C2867.56 1830.68 2870.48 1826.15 2872.77 1822.43C2879.55 1811.39 2884.7 1801.61 2887.62 1792.31C2910.24 1720.23 2927.89 1655.26 2929.05 1581.5C2929.42 1558.15 2925.28 1536.12 2919.21 1512.82C2917.05 1504.51 2914.41 1495.31 2911.65 1485.68C2907.24 1470.29 2902.52 1453.83 2898.94 1438.22C2887.65 1389.05 2869.94 1341.37 2843.06 1300.67C2816.55 1260.51 2787.77 1222.23 2752.44 1195.42C2737.64 1184.2 2719.74 1175.13 2700.43 1165.33C2695.17 1162.67 2689.81 1159.95 2684.37 1157.11C2670.85 1150.07 2658.62 1141.04 2648.28 1133.4C2647.34 1132.71 2646.42 1132.03 2645.51 1131.36C2633.92 1122.83 2624.43 1116.17 2614.48 1111.7C2564.57 1089.26 2521.75 1072.58 2469.91 1063.91C2421.54 1055.82 2372.61 1050.67 2324.2 1049.62ZM1892.96 1242.18C1892.96 1242.18 1892.96 1242.17 1892.97 1242.16C1892.96 1242.17 1892.96 1242.18 1892.96 1242.18Z" fill="#F59324"/>
<path fill-rule="evenodd" clip-rule="evenodd" d="M2320.98 273.491C2321.31 275.307 2321.7 277.523 2322.09 279.724C2322.74 283.421 2323.39 287.074 2323.72 288.709C2339.06 363.216 2304.99 432.121 2267.55 507.843C2265.85 511.285 2264.14 514.741 2262.43 518.212C2246.04 551.454 2238.91 586.5 2232.43 618.394C2230.51 627.806 2228.65 636.943 2226.63 645.679C2221.01 669.911 2223.97 694.219 2227.5 714.734C2228.62 721.256 2229.77 727.289 2230.85 732.984C2233.47 746.78 2235.71 758.584 2236.31 770.513C2237.83 800.508 2236.62 828.192 2230.42 855.863C2220.85 844.04 2210.52 833.415 2201.32 825.055C2182.38 807.856 2162.48 791.349 2143.02 775.207C2132.32 766.324 2121.74 757.551 2111.53 748.833L2110.25 747.735C2083.62 725.003 2060.32 705.103 2037.39 680.91C2028.81 671.858 2020.4 656.986 2012.32 638.545C2005.86 623.78 2000.38 608.578 1995.33 594.589C1994.18 591.391 1993.05 588.256 1991.93 585.204C1983.73 562.73 1972.59 542.24 1962.28 523.572C1961.71 522.527 1961.13 521.489 1960.56 520.455C1950.65 502.513 1941.68 486.259 1934.78 469.139C1926.2 447.84 1912.73 430.59 1898.97 416.032C1889.95 406.479 1879.6 396.936 1870.24 388.293C1865.94 384.333 1861.86 380.562 1858.19 377.065C1858.2 377.067 1858.11 376.981 1857.91 376.775C1857.71 376.578 1857.47 376.32 1857.16 375.996C1856.55 375.341 1855.81 374.533 1854.96 373.592C1853.73 372.236 1852.46 370.802 1851.15 369.333C1850.61 368.718 1850.06 368.097 1849.5 367.473C1847.84 365.608 1845.82 363.351 1844.3 361.796C1843.89 361.382 1843.27 360.764 1842.56 360.116C1842.2 359.795 1841.63 359.288 1840.91 358.724C1840.41 358.332 1838.81 357.093 1836.55 355.942C1835.47 355.391 1833.06 354.243 1829.77 353.593C1826.78 353.002 1819.47 352.124 1811.76 356.592C1803.12 361.595 1800.07 369.651 1799.22 374.643C1798.45 379.121 1799.07 382.686 1799.35 384.12C1799.96 387.165 1801 389.419 1801.28 390.022L1801.29 390.039C1801.72 390.983 1802.14 391.742 1802.39 392.2C1809.58 404.97 1815.21 415.663 1818.89 427.021C1829.61 460.059 1838.97 490.572 1845.78 523.668C1853.69 562.107 1855.93 600.91 1858.32 642.31C1858.55 646.232 1858.77 650.177 1859.01 654.148C1859.56 663.615 1859.86 673.207 1860.16 683.28C1860.2 684.584 1860.24 685.897 1860.28 687.218C1860.64 698.573 1861.05 710.473 1861.94 722.434C1863.73 746.345 1867.52 771.739 1877.42 796.585C1888.63 824.736 1907.28 850.117 1923.34 871.974C1928.12 878.473 1932.67 884.661 1936.72 890.517C1955.5 917.633 1967.71 941.919 1966.62 972.079C1963.63 970.359 1960.67 968.745 1957.79 967.223C1951.19 963.731 1944.48 960.465 1938.36 957.485L1937.2 956.921C1930.6 953.702 1924.76 950.839 1919.52 947.983C1893.05 933.543 1855.05 916.435 1819.87 913.781C1810.83 913.099 1801.79 910.518 1790.17 907.197C1787.7 906.494 1785.12 905.757 1782.4 904.999C1778.03 903.778 1771.58 902.441 1766.42 901.37C1763.92 900.85 1761.72 900.393 1760.2 900.042C1753.16 898.415 1749.95 897.064 1748.76 896.285C1742.26 892.003 1735.56 887.885 1729.23 883.99C1728.59 883.601 1727.96 883.215 1727.34 882.831C1720.31 878.507 1713.7 874.404 1707.36 870.12C1694.68 861.542 1684.23 852.961 1676.25 842.826C1657.31 818.751 1634.59 797.249 1613.88 777.652C1610.43 774.396 1607.05 771.193 1603.75 768.039C1578.42 743.863 1549.83 726.492 1522.34 711.316C1514.45 706.96 1506.75 702.838 1499.23 698.806C1485.32 691.351 1471.99 684.203 1459 676.448C1456.26 674.592 1453.58 672.888 1451.55 671.617C1448.97 669.995 1446.59 668.547 1444.9 667.528C1444.05 667.02 1443.34 666.597 1442.82 666.297C1442.6 666.167 1442.3 665.988 1442.01 665.826C1441.93 665.781 1441.79 665.702 1441.61 665.608C1441.61 665.608 1441.01 665.272 1440.24 664.913C1440.02 664.809 1439.52 664.578 1438.88 664.318L1438.87 664.317C1438.77 664.274 1436.46 663.291 1433.42 662.793C1430.96 662.509 1422.54 663.331 1416.96 665.547C1408.27 673.163 1403.53 691.212 1405.41 698.381C1406.73 701.055 1409.23 704.702 1410.17 705.793C1410.75 706.396 1411.73 707.348 1412.13 707.707C1412.87 708.367 1413.5 708.837 1413.72 709.002C1414.01 709.223 1414.26 709.396 1414.4 709.497C1414.69 709.698 1414.92 709.852 1415.03 709.923C1420.25 713.36 1425.57 716.684 1430.94 719.913C1431.73 720.459 1432.39 720.931 1432.92 721.32C1433.45 721.718 1433.68 721.904 1433.68 721.904C1433.68 721.904 1433.68 721.904 1433.68 721.904C1444.18 731.197 1452.51 738.627 1461.9 748.227C1480.64 767.39 1496 790.872 1512.41 815.964C1513.17 817.134 1513.94 818.307 1514.71 819.483C1533.06 847.531 1546.73 878.553 1561.25 911.875L1562.23 914.13C1576.16 946.137 1591.04 980.294 1611.25 1011.83C1612.77 1014.19 1614.53 1017.04 1616.48 1020.21C1622.21 1029.51 1629.61 1041.53 1637.54 1051.94C1648.19 1065.89 1663.59 1082.35 1684.74 1089.28C1698.83 1093.88 1713.59 1105.89 1730.74 1119.85C1731.79 1120.7 1732.85 1121.56 1733.92 1122.43C1753.5 1138.33 1764.99 1153.04 1776.73 1175.94C1780.3 1182.89 1786.74 1197.35 1791.02 1211.61C1793.17 1218.77 1794.5 1224.96 1794.91 1229.64C1795.1 1231.78 1795.04 1233.04 1794.99 1233.62C1789.06 1245.73 1793.44 1260.54 1805.29 1267.38C1817.66 1274.52 1833.48 1270.28 1840.62 1257.92C1847.15 1246.6 1847.19 1233.81 1846.43 1225.13C1845.59 1215.57 1843.23 1205.63 1840.55 1196.73C1835.19 1178.88 1827.44 1161.48 1822.75 1152.34C1808.03 1123.63 1792.15 1103.1 1766.52 1082.28C1765.13 1081.15 1763.64 1079.93 1762.09 1078.65C1746.96 1066.23 1724.67 1047.92 1700.82 1040.12C1695.03 1038.22 1687.62 1032.3 1678.66 1020.56C1672.41 1012.37 1667.24 1003.97 1661.92 995.322C1659.6 991.567 1657.26 987.764 1654.79 983.91C1636.83 955.89 1623.37 924.997 1608.91 891.788L1608.66 891.223C1596.12 862.423 1582.79 831.871 1565.39 802.969C1566.28 803.787 1567.16 804.612 1568.03 805.446C1571.64 808.888 1575.22 812.28 1578.76 815.638C1599.6 835.383 1619.21 853.962 1635.61 874.807C1648.3 890.938 1663.68 903.013 1678.39 912.963C1685.75 917.943 1693.23 922.571 1700.24 926.883C1700.85 927.257 1701.45 927.628 1702.06 927.998C1708.52 931.97 1714.53 935.665 1720.32 939.478C1729.78 945.713 1740.88 948.659 1748.56 950.434C1753.12 951.488 1756.45 952.154 1759.27 952.717C1762.67 953.399 1765.33 953.93 1768.51 954.816C1770.35 955.331 1772.34 955.905 1774.44 956.513C1786.03 959.863 1801.14 964.234 1815.98 965.354C1839.73 967.145 1869.71 979.725 1894.76 993.389C1901.2 996.902 1908.08 1000.26 1914.55 1003.42L1915.51 1003.88C1921.81 1006.95 1927.8 1009.87 1933.62 1012.94C1946.1 1019.54 1955.53 1025.75 1961.76 1032.37L1961.76 1032.37C1961.78 1032.39 1961.89 1032.51 1962.13 1032.79C1962.39 1033.08 1962.7 1033.45 1963.1 1033.92C1963.34 1034.19 1963.62 1034.52 1963.93 1034.88C1964.56 1035.63 1965.31 1036.52 1966.01 1037.34C1968.07 1039.72 1971.17 1043.27 1974.37 1046.23C1975.88 1047.62 1978.43 1049.84 1981.65 1051.72L1981.74 1051.77C1983.46 1052.78 1993.35 1058.55 2005.48 1054.15C2020.91 1048.55 2023.04 1033.85 2023.35 1030.35C2023.79 1025.49 2023.03 1021.01 2022.44 1018.11C2019.45 1003.6 2017.7 988.279 2018.27 974.869C2020.27 927.285 2000.11 891.21 1979.24 861.075C1973.35 852.568 1967.61 844.728 1962.13 837.25C1947.06 816.701 1934 798.884 1925.47 777.453C1918.33 759.536 1915.12 740.022 1913.52 718.572C1912.72 707.853 1912.33 696.959 1911.98 685.619C1911.94 684.326 1911.9 683.025 1911.86 681.718C1911.56 671.731 1911.24 661.36 1910.64 651.107C1910.4 647.061 1910.17 642.996 1909.93 638.912C1907.59 598.141 1905.15 555.58 1896.44 513.242C1896.04 511.291 1895.63 509.349 1895.21 507.417C1901.52 520.544 1908.42 533.033 1914.93 544.804C1915.62 546.065 1916.32 547.318 1917 548.562C1927.41 567.415 1936.69 584.69 1943.35 602.942C1944.34 605.636 1945.37 608.516 1946.47 611.545C1951.52 625.572 1957.72 642.775 1964.94 659.284C1973.6 679.057 1984.91 700.713 1999.85 716.484C2024.68 742.685 2049.8 764.138 2075.87 786.39L2077.95 788.164C2089.39 797.94 2100.51 807.155 2111.43 816.204C2130.17 831.744 2148.32 846.792 2166.54 863.339C2175.54 871.509 2185.88 882.392 2194.63 894.07C2203.62 906.053 2209.7 917.248 2212.06 926.157C2212.61 928.256 2213.25 930.461 2213.99 932.486C2214.36 933.486 2214.92 934.912 2215.71 936.463C2216.27 937.549 2218.02 940.931 2221.44 944.131C2225.06 947.524 2235.7 954.832 2249.23 949.29C2258.83 945.36 2262.49 937.363 2263.15 935.922L2263.18 935.85C2265.01 931.866 2265.54 927.988 2265.65 927.159C2265.65 927.118 2265.66 927.085 2265.66 927.059C2265.93 925.119 2266.15 922.368 2266.25 920.974C2266.28 920.678 2266.29 920.443 2266.31 920.29C2266.33 919.969 2266.36 919.704 2266.38 919.491C2270.57 906.048 2274.47 892.139 2278.04 878.754C2288.09 841.062 2289.82 804.753 2287.97 767.91C2287.17 752.14 2283.92 735.034 2281.06 720.027C2280.12 715.069 2279.22 710.339 2278.47 705.963C2275.12 686.538 2273.87 670.914 2277.01 657.354C2279.72 645.687 2281.96 634.716 2284.1 624.247C2290.31 593.907 2295.66 567.774 2308.82 541.082C2311.15 536.358 2313.53 531.573 2315.93 526.73C2331.6 495.225 2348.51 461.231 2360.89 425.139C2361.02 430.802 2360.87 436.899 2360.65 443.63C2360.61 444.756 2360.57 445.905 2360.52 447.076C2360.06 460.111 2359.5 475.798 2361.77 491.204C2366.12 520.818 2368.25 555.096 2367.78 585.117C2367.48 604.305 2372.45 621.194 2378.19 635.655C2381.05 642.853 2384.24 649.778 2387.18 656.09C2387.54 656.864 2387.9 657.627 2388.25 658.381C2390.86 663.972 2393.23 669.051 2395.4 674.17C2403.34 692.943 2412.68 710.739 2421.46 727.464L2421.69 727.91C2430.7 745.074 2439.12 761.15 2446.17 777.813C2459.84 810.11 2470.73 842.001 2477.6 875.355C2479.64 885.286 2479.27 896.021 2476.53 906.297C2476.21 907.507 2475.74 909.324 2475.44 911.224C2475.31 912.075 2475.02 914.032 2475.07 916.446C2475.1 917.665 2475.22 919.821 2475.88 922.405C2476.49 924.808 2478.02 929.465 2482.14 933.854C2486.92 938.954 2493.45 941.817 2500.2 942.048C2505.98 942.246 2510.34 940.474 2512.45 939.453C2516.47 937.51 2519.03 934.96 2519.58 934.424C2521.14 932.891 2522.39 931.289 2522.75 930.832L2522.79 930.772C2524.14 929.046 2524.77 928.275 2524.94 928.035C2542.24 915.204 2554.19 895.34 2562.57 878.061C2570.66 861.371 2576.97 843.688 2581.66 830.543C2582.07 829.369 2582.48 828.231 2582.87 827.133C2587.23 814.952 2591.62 801.168 2595.81 787.975C2598.81 778.533 2601.71 769.395 2604.45 761.364C2611.6 740.321 2619.33 721.05 2629.78 703.647C2635.25 694.55 2640.24 684.9 2644.75 676.184C2646.33 673.129 2647.85 670.188 2649.32 667.425C2655.27 656.175 2660.94 646.413 2667.9 637.646C2672.71 631.587 2677.2 624.18 2680.42 618.864C2681.4 617.237 2682.27 615.805 2682.99 614.668C2686.86 608.577 2689.56 605.414 2692.44 603.353C2702.33 596.274 2709.45 587.404 2714.68 580.375C2716.75 577.59 2718.45 575.215 2719.97 573.098C2722.88 569.044 2725.11 565.937 2727.93 562.713C2731.03 559.18 2734.26 555.559 2737.55 551.858C2749.48 538.449 2762.35 523.992 2773.66 508.839C2788.8 488.555 2800.68 468.057 2811.41 447.484C2808.8 462.942 2805.04 477.551 2800.06 490.456C2794.15 505.755 2787.72 521.03 2781.08 536.732L2780.37 538.398C2774.01 553.456 2767.47 568.919 2761.36 584.567C2748.68 617.026 2737.34 651.418 2732.17 688.123C2731.66 691.716 2730.94 695.485 2730.18 699.472C2727.38 714.041 2724.03 731.525 2728.64 753.959L2745.4 835.365C2746.28 839.668 2747.19 843.846 2748.08 847.957C2750.27 858.062 2752.38 867.756 2753.86 877.871C2755.92 891.822 2756.25 903.571 2754.21 913.139C2751.38 926.455 2748.17 937.522 2744.17 951.289C2743.92 952.15 2743.66 953.021 2743.41 953.903C2742.26 957.832 2740.9 961.796 2739.28 966.475L2739.19 966.732C2737.75 970.909 2736.09 975.693 2734.62 980.67C2734.52 980.881 2734.36 981.226 2734.1 981.725C2733.55 982.812 2732.96 983.9 2732.26 985.201C2732.03 985.623 2731.79 986.067 2731.54 986.541C2731.51 986.606 2731.46 986.685 2731.41 986.778C2730.79 987.923 2729.08 991.079 2728.08 993.907L2728.06 993.959C2727.8 994.674 2726.76 997.594 2726.52 1001.37C2726.4 1003.16 2726.22 1008.07 2728.7 1013.64C2731.88 1020.81 2738.56 1026.9 2747.57 1028.62C2754.56 1029.95 2760 1028.04 2761.94 1027.28C2764.34 1026.34 2766.1 1025.24 2766.99 1024.65C2768.82 1023.45 2770.17 1022.23 2770.77 1021.67C2773.1 1019.54 2776.5 1017.9 2784.59 1013.99C2785.68 1013.46 2786.85 1012.9 2788.11 1012.29C2796.26 1008.33 2810.43 1001.4 2819.73 988.113C2827.35 977.239 2836.12 967.146 2845.99 955.776C2846.59 955.084 2847.2 954.387 2847.81 953.685C2858.1 941.831 2869.45 928.607 2879.36 913.566C2916.93 856.51 2964.38 810.311 3026.73 794.427C3048.47 788.888 3068.85 779.092 3086.57 770.578L3087.66 770.051C3106.54 760.983 3122.59 753.375 3138.84 749.272C3152.27 745.88 3167.01 739.793 3181.11 732.241C3180.78 732.592 3180.45 732.943 3180.11 733.294C3176.01 737.658 3170.99 741.37 3163.49 746.911L3163.27 747.08C3156.38 752.167 3147.1 759.038 3139.26 768.217C3133.95 774.44 3128.36 779.438 3121.42 785.65C3119.96 786.959 3118.44 788.322 3116.85 789.762C3108.18 797.598 3098.09 807.188 3089.45 820.308C3076.09 840.598 3064.66 861.58 3053.86 881.744C3034.34 918.194 3025.65 957.492 3017.79 993.084C3017.11 996.146 3016.44 999.179 3015.77 1002.18C3004.81 1051.22 2975.96 1108.49 2939.83 1136.91C2936.69 1139.39 2927.77 1146.99 2927.24 1160.05C2926.62 1175.26 2937.36 1183.43 2941.49 1186C2946.2 1188.92 2951.17 1190.4 2954.39 1191.2C2958.01 1192.11 2961.75 1192.72 2965.17 1193.15C2972.03 1194.01 2979.27 1194.36 2985 1194.44C2987.91 1194.48 2990.63 1194.46 2992.92 1194.38C2994.41 1194.33 2997.86 1194.21 3000.93 1193.58C3003.6 1193.03 3006.22 1192.48 3008.79 1191.94C3027.29 1188.06 3043.29 1184.71 3056.88 1185.61C3096.53 1188.23 3131.93 1176.87 3163.92 1156.19C3175.03 1149.01 3185.04 1140.54 3193.48 1133.4C3195.4 1131.77 3197.24 1130.21 3199 1128.76C3209.08 1120.37 3217.74 1113.95 3227.75 1109.46C3245.28 1101.59 3258.5 1099.22 3276.9 1095.92C3283.55 1094.72 3290.88 1093.41 3299.33 1091.67C3307.48 1089.99 3316.73 1090.13 3329.11 1090.87C3330.56 1090.95 3332.08 1091.05 3333.64 1091.15C3344.26 1091.83 3357.28 1092.66 3369.99 1091.48C3381.13 1090.45 3392.57 1090.5 3405.51 1090.56C3408.61 1090.57 3411.8 1090.59 3415.1 1090.59C3417.93 1090.59 3420.83 1090.58 3423.78 1090.54C3415.52 1094.81 3407.34 1099.08 3399.2 1103.32C3377.75 1114.5 3356.59 1125.54 3334.92 1136.28C3317.14 1145.1 3302.09 1158.28 3289.54 1170.87C3283.18 1177.25 3277.14 1183.82 3271.56 1189.94C3270.62 1190.97 3269.71 1191.98 3268.8 1192.97C3264.19 1198.04 3259.94 1202.71 3255.75 1207.08C3247.51 1215.68 3241.32 1225.22 3236.51 1232.63L3235.97 1233.46C3230.69 1241.6 3226.78 1247.46 3221.98 1252.45C3216.81 1257.84 3212.34 1262.66 3208.07 1267.26C3202.01 1273.8 3196.35 1279.9 3189.63 1286.59C3181.66 1294.52 3174.19 1302.47 3166.72 1310.42C3155.12 1322.77 3143.5 1335.14 3129.94 1347.51C3108.5 1367.07 3088.32 1380.41 3069.03 1384.39C3065.14 1385.19 3057.18 1386.92 3050.7 1391.98C3046.7 1395.11 3040.85 1401.46 3039.94 1411.47C3039.08 1420.94 3043.24 1427.79 3045.61 1430.93C3049.58 1436.19 3055.04 1439.57 3056.85 1440.69L3057.06 1440.82C3058.17 1441.51 3060.67 1442.98 3062.42 1444.01C3063.26 1444.51 3063.94 1444.9 3064.19 1445.06C3075.67 1452 3089.2 1455.63 3100.87 1457.6C3112.88 1459.63 3124.96 1460.24 3134.88 1460.01C3150.14 1459.66 3165.4 1460.23 3181.42 1460.91C3182.69 1460.96 3183.97 1461.02 3185.26 1461.07C3199.9 1461.7 3215.25 1462.36 3230.78 1462.27C3253.78 1462.14 3275.86 1459.27 3296.46 1456.07C3302.59 1455.12 3308.5 1454.16 3314.26 1453.22C3328.45 1450.9 3341.76 1448.73 3355.3 1447.24C3392.18 1443.17 3424.73 1445.02 3457.72 1464.46C3472.02 1472.88 3487.1 1479.36 3501.14 1485.03C3505.28 1486.7 3509.27 1488.27 3513.15 1489.81C3522.97 1493.69 3532.07 1497.29 3541.08 1501.39C3561.06 1510.49 3584.89 1514.5 3603.42 1517.61C3606.9 1518.2 3610.2 1518.75 3613.25 1519.3C3604.47 1523.16 3596.28 1526.13 3587.86 1527.87C3576.95 1530.11 3563.72 1529.97 3547.64 1528.81C3543.67 1528.53 3539.41 1528.17 3534.97 1527.79C3522.97 1526.78 3509.73 1525.66 3497.82 1525.67C3485.32 1525.69 3473.11 1524.45 3459.43 1523.07C3454.04 1522.53 3448.41 1521.96 3442.45 1521.44C3422.59 1519.69 3400.19 1518.65 3377.54 1523.31C3339.93 1531.05 3305.56 1544.91 3272.68 1562.8C3256.41 1571.66 3242.02 1583.16 3229.7 1593C3228.14 1594.24 3226.62 1595.46 3225.13 1596.65C3211.07 1607.8 3199.17 1616.56 3185.99 1622.14C3179.82 1624.75 3174.15 1627.33 3168.6 1629.85C3159.74 1633.88 3151.18 1637.77 3141.43 1641.41C3126.3 1647.07 3114.27 1649.59 3105.13 1648.67C3099.31 1648.09 3093.54 1647.85 3088.26 1648.42C3084.22 1648.85 3074.66 1650.23 3067.15 1657.9C3062.73 1662.4 3059.86 1668.29 3059.16 1674.79C3058.51 1680.78 3059.87 1685.76 3061.17 1689.03C3063.58 1695.08 3067.52 1699.54 3069.8 1701.92C3074.82 1707.18 3081.44 1712.11 3086.47 1715.65C3090.76 1718.67 3095.15 1721.54 3098.24 1723.56C3098.97 1724.04 3099.63 1724.47 3100.19 1724.84C3117.19 1736.03 3135.01 1742.37 3150.68 1747.43C3153.91 1748.47 3157.02 1749.46 3160.02 1750.4C3172.36 1754.3 3182.97 1757.65 3193.49 1762.55C3222.81 1776.21 3255.18 1786.47 3284.75 1794.72C3295.23 1797.64 3306.02 1803.72 3318.25 1812.28C3324.09 1816.38 3329.85 1820.74 3335.98 1825.37L3336.67 1825.9C3342.89 1830.61 3349.55 1835.64 3356.29 1840.26C3366.26 1847.1 3375.13 1856.48 3385.85 1868.42C3386.7 1869.37 3387.57 1870.34 3388.45 1871.32C3397.97 1881.96 3409.23 1894.55 3422.44 1904.92C3439.18 1918.07 3456.22 1930.85 3473.01 1943.44L3474.44 1944.51C3477.63 1946.9 3480.81 1949.29 3483.98 1951.67C3481.82 1950.77 3479.64 1949.85 3477.43 1948.92C3462.93 1942.81 3447.32 1936.24 3432.08 1931.25C3417.84 1926.59 3404.12 1921.4 3389.8 1915.99C3386.19 1914.62 3382.54 1913.24 3378.83 1911.85C3360.75 1905.06 3341.71 1898.21 3321.46 1892.81C3281.22 1882.07 3237.07 1887.15 3201.62 1894.44C3188.97 1897.05 3175.71 1898.16 3160.61 1899.4L3159.9 1899.45C3145.53 1900.63 3129.4 1901.95 3113.46 1905.23C3102.48 1907.49 3090.54 1906.78 3076.19 1904.35C3069.94 1903.3 3063.72 1902.01 3056.98 1900.62C3055.94 1900.41 3054.89 1900.19 3053.82 1899.97C3046.08 1898.38 3037.68 1896.7 3029.14 1895.49C3019.87 1894.19 3010.48 1891.47 3003.51 1887.82C2999.9 1885.93 2995.34 1883.81 2990.55 1882.67C2988.29 1882.13 2983.98 1881.3 2978.83 1882.05C2973.17 1882.87 2964.02 1886.19 2958.74 1896.03C2954.13 1904.63 2955.58 1912.71 2956.44 1916.07C2957.42 1919.89 2959.01 1922.92 2960.11 1924.79C2962.38 1928.66 2965.34 1932.27 2968.13 1935.33C2973.59 1941.34 2977.42 1949.82 2983.4 1963.74L2983.78 1964.62C2988.96 1976.7 2996.18 1993.53 3008.99 2006.87C3014.89 2013.01 3020.03 2018.75 3025.48 2024.83C3029.43 2029.23 3033.54 2033.82 3038.23 2038.88C3046.74 2048.08 3057.14 2054.87 3064.52 2059.68C3065.06 2060.03 3065.57 2060.37 3066.08 2060.7C3074.67 2066.33 3079.36 2069.74 3082.43 2073.46C3089.82 2082.41 3098.82 2089.02 3105.14 2093.67L3105.9 2094.23C3113.11 2099.53 3117.43 2102.85 3120.69 2106.72C3126.29 2113.37 3133.3 2119.8 3138.67 2124.72C3140.2 2126.13 3141.6 2127.41 3142.8 2128.54C3149.18 2134.58 3152.95 2138.98 3155.22 2143.45C3165.64 2163.99 3175.94 2184.91 3186.32 2205.98C3210.47 2254.97 3235.02 2304.82 3262.39 2352.86C3249.46 2340.61 3235.67 2329.04 3223.13 2318.53L3220.64 2316.43C3214.47 2311.26 3209.23 2304.59 3201.93 2295.13L3201.5 2294.57C3194.85 2285.95 3186.32 2274.88 3175.12 2265.58C3142.29 2238.31 3109.65 2212.55 3065.19 2195.39C3050.48 2189.71 3035.5 2185.05 3021.49 2180.68C3019.06 2179.93 3016.67 2179.18 3014.3 2178.44C2997.91 2173.3 2982.75 2168.27 2968.25 2161.76C2957.56 2156.95 2944.86 2152.69 2933.78 2148.98C2928.73 2147.29 2924.02 2145.71 2919.99 2144.24C2905.26 2138.88 2894.15 2133.44 2885.85 2125.81C2882.69 2122.89 2871.72 2113.14 2861.33 2104.36C2856.17 2099.99 2850.8 2095.57 2846.47 2092.29C2844.43 2090.74 2841.95 2088.93 2839.56 2087.5C2838.6 2086.91 2836.26 2085.54 2833.3 2084.51C2832 2084.06 2828.54 2082.93 2824.02 2082.99C2819.23 2083.06 2809.11 2084.78 2802.56 2094.73C2794.7 2106.65 2798 2122.69 2809.93 2130.55C2811.39 2131.51 2812.91 2132.3 2814.47 2132.93C2814.7 2133.1 2814.96 2133.3 2815.24 2133.51C2818.43 2135.93 2822.95 2139.63 2827.94 2143.85C2837.86 2152.23 2848.27 2161.51 2850.83 2163.87C2866.81 2178.57 2885.75 2186.81 2902.3 2192.84C2909.22 2195.36 2915.34 2197.39 2921 2199.27C2930.39 2202.39 2938.53 2205.1 2947.05 2208.93C2964.55 2216.8 2982.23 2222.58 2998.82 2227.79C3001.38 2228.59 3003.91 2229.38 3006.4 2230.16C3020.47 2234.54 3033.59 2238.63 3046.57 2243.64C3082.52 2257.52 3109.61 2278.4 3142.08 2305.37C3148.41 2310.63 3153.77 2317.37 3160.98 2326.72L3161.74 2327.71C3168.26 2336.17 3176.61 2347.01 3187.39 2356.05L3189.19 2357.56C3205.97 2371.64 3222.41 2385.43 3236.33 2399.79C3256.1 2420.19 3278.99 2434.51 3300.72 2446.58C3308.59 2450.94 3316.04 2454.89 3323.22 2458.69C3336.93 2465.95 3349.65 2472.69 3362.38 2480.83C3364.4 2482.12 3367.5 2484.2 3371.02 2486.56L3371.28 2486.74C3374.54 2488.92 3378.12 2491.32 3380.77 2493.02C3381.93 2493.77 3383.71 2494.9 3385.34 2495.77C3385.79 2496.01 3386.63 2496.45 3387.69 2496.9C3388.21 2497.13 3389.11 2497.49 3390.23 2497.85C3391.09 2498.12 3393.48 2498.85 3396.63 2499.02L3396.65 2499.03C3398.35 2499.12 3409.01 2499.73 3417.32 2490.55C3426.79 2480.09 3423.69 2468.15 3422.83 2465.4C3421.68 2461.75 3419.98 2459.24 3419.45 2458.46C3418.69 2457.36 3418 2456.52 3417.59 2456.05C3415.58 2453.73 3412.87 2451.53 3411.96 2450.78C3410.27 2449.38 3407.99 2447.55 3405.07 2445.27C3396.14 2438.25 3387.21 2428.18 3378.65 2417.31C3370.39 2406.8 3360.78 2396.03 3351.73 2385.87C3348.29 2382.01 3344.93 2378.24 3341.75 2374.6C3329.6 2360.72 3319.23 2347.89 3311.85 2335.14C3283.5 2286.16 3258.73 2235.9 3233.54 2184.77C3222.98 2163.34 3212.35 2141.76 3201.35 2120.06C3194.91 2107.36 3185.73 2097.97 3178.35 2090.98C3175.83 2088.59 3173.61 2086.55 3171.61 2084.72C3166.97 2080.46 3163.52 2077.29 3160.23 2073.39C3152.67 2064.41 3143.67 2057.8 3137.3 2053.12L3136.55 2052.57C3129.29 2047.23 3125.24 2044.09 3122.32 2040.54C3113.65 2030.03 3102.52 2022.74 3094.78 2017.68L3094.42 2017.44C3085.5 2011.59 3080.14 2008.03 3076.18 2003.75C3072.75 2000.04 3069 1995.87 3065.1 1991.54C3058.96 1984.7 3052.46 1977.47 3046.3 1971.05C3041.51 1966.06 3037.88 1959.15 3033.21 1948.6C3036.49 1949.22 3039.87 1949.9 3043.4 1950.63C3044.39 1950.83 3045.4 1951.04 3046.42 1951.25C3053.09 1952.63 3060.33 1954.13 3067.58 1955.35C3084.35 1958.18 3103.68 1960.04 3123.89 1955.88C3136.49 1953.29 3149.72 1952.18 3164.82 1950.94L3165.47 1950.89C3179.86 1949.72 3196.04 1948.39 3212.04 1945.1C3245.2 1938.28 3279.72 1935.2 3308.13 1942.78C3325.81 1947.49 3342.87 1953.6 3360.67 1960.27C3364.07 1961.55 3367.52 1962.85 3371 1964.17C3385.43 1969.63 3400.53 1975.35 3416 1980.41C3429.03 1984.67 3441.82 1990.05 3455.8 1995.94C3460.72 1998.01 3465.79 2000.14 3471.08 2002.31C3490.49 2010.29 3512.01 2018.39 3534.62 2022.27C3555.98 2025.93 3575.41 2031.31 3596.3 2037.09C3608.15 2040.37 3620.48 2043.79 3633.9 2047.09C3636.08 2047.63 3644.57 2049.44 3652.34 2050.53C3655.82 2051.02 3661.17 2051.67 3665.98 2051.43C3667.33 2051.36 3669.27 2051.2 3671.46 2050.74C3673.29 2050.35 3677.4 2049.34 3681.65 2046.41C3686.61 2043.01 3692.75 2036.09 3693.18 2025.63C3693.55 2016.81 3689.51 2010.67 3687.73 2008.29C3683.74 2002.96 3678.57 1999.44 3675.54 1997.54C3671.98 1995.29 3668.17 1993.35 3664.78 1991.78C3658.01 1988.63 3651.02 1986.06 3646.78 1984.71C3612.03 1973.6 3583 1962.97 3557.49 1942.84C3540.27 1929.26 3522.74 1916.09 3505.47 1903.14L3504.23 1902.2C3487.31 1889.51 3470.67 1877.03 3454.38 1864.24C3444.91 1856.81 3436.59 1847.53 3426.4 1836.16C3425.72 1835.41 3425.03 1834.64 3424.33 1833.86C3413.85 1822.19 3401.25 1808.38 3385.54 1797.61C3379.95 1793.77 3374.22 1789.46 3367.88 1784.66L3366.96 1783.96C3361.02 1779.47 3354.57 1774.58 3347.93 1769.93C3334.06 1760.21 3317.57 1750.18 3298.64 1744.9C3270.01 1736.91 3240.82 1727.55 3215.32 1715.67C3201.45 1709.2 3186.89 1704.63 3174.34 1700.68C3171.65 1699.83 3169.05 1699.01 3166.57 1698.21C3161.08 1696.44 3155.96 1694.69 3151.13 1692.84C3154.02 1691.87 3156.84 1690.87 3159.55 1689.86C3170.57 1685.74 3182.64 1680.28 3192.78 1675.7C3197.84 1673.41 3202.42 1671.34 3206.15 1669.77C3226.44 1661.18 3243.15 1648.36 3257.27 1637.16C3258.85 1635.91 3260.39 1634.69 3261.9 1633.48C3274.68 1623.3 3285.39 1614.77 3297.41 1608.23C3326.78 1592.24 3356.34 1580.48 3387.97 1573.97C3402.94 1570.89 3419.14 1571.31 3437.93 1572.96C3442.34 1573.35 3447.02 1573.82 3451.88 1574.31C3466.4 1575.78 3482.53 1577.41 3497.89 1577.39C3507.44 1577.38 3517.16 1578.2 3528.22 1579.14C3533.16 1579.56 3538.36 1580 3543.94 1580.4C3560.63 1581.6 3579.93 1582.3 3598.29 1578.53C3618.97 1574.27 3637.26 1565.45 3652.51 1557.98L3654.44 1557.03C3669.7 1549.55 3681.92 1543.55 3694.77 1540.23C3697.99 1539.4 3702.32 1538.52 3708.02 1537.4L3710.06 1537C3715 1536.03 3720.63 1534.94 3726.2 1533.7C3737.6 1531.17 3754.01 1527.07 3765.6 1519.12C3767.21 1518.02 3768.4 1517.27 3769.19 1516.8C3770.59 1516.22 3771.99 1515.55 3773.29 1514.79C3773.66 1514.57 3775.34 1513.6 3777.18 1512.01L3777.24 1511.96C3777.84 1511.44 3780.9 1508.82 3783.21 1504.42C3784.46 1502.05 3786.95 1496.43 3785.95 1488.98C3784.78 1480.14 3779.47 1473.87 3774.05 1470.48C3769.53 1467.64 3765.3 1466.95 3763.5 1466.72C3761.37 1466.46 3759.65 1466.51 3758.68 1466.57C3756.73 1466.7 3755.22 1467.02 3754.57 1467.16C3753.14 1467.48 3752.03 1467.86 3751.56 1468.02C3750.55 1468.38 3749.6 1468.78 3748.75 1469.16C3748 1469.34 3746.59 1469.63 3744.45 1469.83C3737.88 1470.44 3731.39 1470.79 3724.32 1471.17C3721.87 1471.31 3719.36 1471.44 3716.75 1471.59C3707 1472.16 3696.36 1472.93 3685.63 1474.65C3669.69 1477.19 3648.26 1473.21 3625.44 1468.96L3624.3 1468.75C3618.92 1467.75 3613.77 1466.86 3608.83 1466.02C3590.85 1462.93 3575.71 1460.33 3562.52 1454.33C3552.21 1449.63 3541.26 1445.3 3531.02 1441.25C3527.4 1439.82 3523.87 1438.43 3520.48 1437.06C3506.97 1431.61 3494.83 1426.29 3483.98 1419.9C3437.39 1392.45 3391.92 1391.17 3349.64 1395.83C3334.67 1397.48 3319.32 1399.98 3304.63 1402.38C3299.15 1403.27 3293.76 1404.15 3288.52 1404.97C3268.62 1408.06 3249.58 1410.45 3230.49 1410.55C3216.28 1410.63 3202.15 1410.03 3187.28 1409.39C3186.06 1409.34 3184.84 1409.29 3183.61 1409.24C3168.73 1408.61 3153.14 1408 3137.21 1408.24C3147.1 1401.2 3156.31 1393.46 3164.79 1385.72C3179.26 1372.52 3194.16 1356.74 3207.07 1343.07C3214.15 1335.57 3220.63 1328.71 3226.11 1323.25C3233.21 1316.19 3240.44 1308.41 3247.27 1301.06C3251.46 1296.56 3255.5 1292.21 3259.27 1288.29C3267.8 1279.42 3274.12 1269.69 3279.02 1262.15L3279.35 1261.63C3284.69 1253.4 3288.49 1247.68 3293.1 1242.87C3297.8 1237.96 3302.58 1232.7 3307.19 1227.63C3308.06 1226.67 3308.93 1225.71 3309.79 1224.77C3315.32 1218.71 3320.69 1212.88 3326.16 1207.39C3337.29 1196.23 3347.63 1187.71 3357.9 1182.62C3379.84 1171.74 3402.03 1160.17 3423.97 1148.73C3437.93 1141.46 3451.78 1134.24 3465.4 1127.28C3471.92 1123.96 3478.04 1121.16 3484.72 1118.12C3489.16 1116.1 3493.83 1113.96 3499.03 1111.49C3511.03 1105.78 3524.09 1098.97 3536.28 1089.91C3540.5 1086.76 3544.98 1083.55 3549.62 1080.22C3564.59 1069.47 3581.18 1057.56 3595.94 1043.26C3597.04 1042.19 3598.56 1040.67 3599.92 1039.01L3599.94 1038.99C3600.42 1038.39 3602.14 1036.29 3603.57 1033.31C3604.18 1032.02 3605.99 1028.09 3606.14 1022.69C3606.33 1015.87 3603.59 1006.07 3594.07 1000.05C3586.86 995.497 3579.88 995.958 3577.88 996.133C3575.13 996.374 3573.02 997.003 3572.03 997.32C3569.96 997.989 3568.35 998.789 3567.69 999.123C3566.15 999.909 3564.74 1000.77 3563.87 1001.33C3560.4 1003.52 3555.57 1007.03 3553.33 1008.88C3552.77 1009.34 3550.49 1010.82 3546.55 1012.54C3542.81 1014.16 3539.36 1015.23 3537.43 1015.62C3522.85 1018.62 3508.84 1022.48 3495.76 1026.08L3495.47 1026.16C3482.06 1029.85 3469.61 1033.26 3456.94 1035.87C3444.64 1038.4 3430.97 1038.87 3415.09 1038.87C3412.4 1038.87 3409.62 1038.85 3406.76 1038.84C3393.68 1038.77 3379.11 1038.7 3365.22 1039.98C3356.83 1040.76 3348.21 1040.23 3337.23 1039.55C3335.6 1039.45 3333.92 1039.34 3332.18 1039.24C3319.78 1038.5 3304.4 1037.82 3288.91 1041.01C3283.18 1042.19 3277.41 1043.22 3271.56 1044.26C3251.48 1047.83 3230.4 1051.59 3206.58 1062.27C3189.92 1069.74 3176.86 1079.9 3165.94 1088.98C3163.49 1091.02 3161.18 1092.97 3158.97 1094.83C3150.77 1101.75 3143.9 1107.55 3135.84 1112.75C3111.62 1128.41 3087.11 1135.78 3060.3 1134C3043.27 1132.87 3024.63 1135.89 3008.89 1139.06C3037.5 1101.26 3057.25 1053.69 3066.24 1013.46C3066.84 1010.8 3067.42 1008.16 3068.01 1005.54C3076.22 968.586 3083.45 936.047 3099.46 906.164C3110.26 886 3120.71 866.882 3132.64 848.755C3137.53 841.34 3143.55 835.338 3151.53 828.131C3152.7 827.072 3153.94 825.965 3155.23 824.81C3162.23 818.572 3170.81 810.916 3178.59 801.802C3182.08 797.721 3186.74 794.042 3194.01 788.67C3194.48 788.322 3194.96 787.964 3195.46 787.598C3201.87 782.879 3210.38 776.604 3217.79 768.721C3228.58 757.252 3239.64 746.171 3251.21 734.857C3273.25 713.304 3298.53 681.387 3308.48 647.141C3309.15 644.832 3310.02 642.173 3311.14 638.836L3311.39 638.094C3312.39 635.089 3313.55 631.623 3314.63 628.116C3316.83 620.938 3319.49 611.095 3319.65 601.237C3319.67 600.077 3319.74 598.63 3319.82 596.738L3319.84 596.462C3319.9 595.066 3320.01 592.633 3319.97 590.702C3319.96 590.122 3319.92 589.013 3319.77 587.704C3319.69 587.052 3319.54 585.937 3319.22 584.594C3318.99 583.596 3318.27 580.693 3316.38 577.432C3314.86 574.801 3308.8 565.619 3296.06 564.577C3284.01 563.591 3276.71 570.901 3275.04 572.671C3271.3 576.657 3269.72 581.025 3269.65 581.22L3269.65 581.227C3268.54 584.049 3267.71 587.678 3267.16 590.228C3267.02 590.474 3266.76 590.911 3266.31 591.546C3265.07 593.286 3263.15 595.508 3260.45 598.2C3257.79 600.846 3254.83 603.514 3251.7 606.27C3251.04 606.851 3250.34 607.463 3249.62 608.092C3247.24 610.176 3244.64 612.451 3242.54 614.411C3238.68 618.016 3234.82 620.974 3229.94 624.703C3227.97 626.209 3225.84 627.841 3223.47 629.692C3216.06 635.497 3207.1 642.99 3199.62 653.106C3193.33 661.607 3181.6 671.663 3166.94 680.737C3152.45 689.706 3137.43 696.285 3126.17 699.128C3104.4 704.628 3083.97 714.444 3066.22 722.977L3065.27 723.434C3046.39 732.505 3030.29 740.149 3013.96 744.309C2933.71 764.754 2877 823.119 2836.16 885.118C2828.37 896.949 2819.13 907.821 2808.75 919.781C2808.02 920.619 2807.29 921.463 2806.55 922.314C2805.93 923.026 2805.31 923.743 2804.68 924.465C2804.72 924.274 2804.76 924.083 2804.8 923.891C2808.7 905.567 2807.45 886.781 2805.03 870.346C2803.27 858.368 2800.59 846.016 2798.28 835.369C2797.48 831.655 2796.72 828.149 2796.06 824.938L2779.3 743.532C2776.89 731.839 2777.92 726.388 2780.07 715.034C2781.02 709.99 2782.19 703.781 2783.38 695.342C2787.75 664.38 2797.47 634.26 2809.53 603.388C2815.38 588.413 2821.67 573.529 2828.12 558.286L2828.72 556.867C2835.32 541.248 2842.06 525.25 2848.31 509.079C2870.56 451.432 2872.27 372.672 2860.32 314.644C2860.1 313.528 2859.67 311.659 2858.88 309.567L2858.84 309.468C2858.42 308.329 2856.12 302.157 2849.84 297.472C2845.68 294.372 2839.34 291.652 2831.65 292.421C2824.49 293.138 2819.54 296.554 2816.92 298.868C2812.47 302.807 2810.52 307.3 2810.07 308.334L2810.04 308.402C2808.75 311.364 2808.11 314.242 2807.86 315.394C2807.5 317.011 2807.21 318.678 2806.97 320.147C2806.49 323.092 2806.07 326.355 2805.75 328.869L2805.64 329.733C2805.51 330.688 2805.41 331.511 2805.31 332.245C2805.25 332.706 2805.2 333.071 2805.16 333.355C2805.13 333.521 2805.12 333.628 2805.11 333.686L2805.1 333.737C2802.92 346.314 2794.25 365.828 2786.41 381.738C2784.91 384.784 2783.43 387.786 2781.98 390.748C2766.07 423.13 2752.54 450.673 2732.21 477.904C2722.37 491.095 2711.49 503.323 2699.82 516.45C2696.3 520.405 2692.71 524.441 2689.05 528.611C2684.48 533.822 2679.9 540.2 2676.35 545.139C2675.16 546.792 2674.09 548.283 2673.17 549.515C2668.71 555.521 2665.48 559.053 2662.34 561.296C2651.26 569.23 2644.26 579.18 2639.32 586.959C2637.34 590.075 2635.79 592.642 2634.44 594.877C2631.88 599.11 2630.04 602.156 2627.39 605.497C2617.43 618.051 2609.99 631.176 2603.61 643.23C2601.66 646.91 2599.85 650.4 2598.11 653.764C2593.86 661.976 2590 669.43 2585.44 677.022C2572.22 699.047 2563.1 722.316 2555.48 744.707C2551.84 755.419 2548.8 765.058 2545.85 774.394C2542.14 786.131 2538.59 797.389 2534.18 809.7C2533.81 810.745 2533.43 811.801 2533.05 812.868C2529.89 821.7 2526.49 831.239 2522.6 840.712C2515.12 812.047 2505.21 784.615 2493.8 757.655C2485.84 738.844 2476.49 721.025 2467.7 704.287L2467.49 703.877C2458.48 686.711 2450.07 670.649 2443.03 654.012C2440.46 647.96 2437.67 641.97 2435.1 636.471C2434.75 635.718 2434.4 634.975 2434.06 634.242C2431.13 627.951 2428.51 622.231 2426.26 616.566C2421.79 605.303 2419.34 595.598 2419.49 585.928C2420 553.238 2417.71 516.17 2412.94 483.684C2411.39 473.135 2411.77 461.995 2412.25 447.838C2412.28 447.028 2412.31 446.208 2412.34 445.377C2412.82 431.052 2413.28 413.645 2409.68 396.152C2409.15 393.565 2408.61 390.944 2408.07 388.294C2401.65 356.959 2394.39 321.545 2384.15 289.97C2381.57 282.01 2378.07 275.02 2375.58 270.066C2375.22 269.336 2374.87 268.65 2374.56 268.012C2373.07 264.996 2371.97 262.611 2371.16 260.466C2370.81 258.684 2370.46 256.939 2370.13 255.54C2369.98 254.945 2369.77 254.071 2369.48 253.129C2369.34 252.665 2369.11 251.911 2368.77 251.027L2368.76 251.013C2368.55 250.447 2367.75 248.355 2366.22 246.006C2365.53 244.936 2363.65 242.165 2360.31 239.586C2356.86 236.917 2348.79 232.298 2338.19 234.946C2328.49 237.372 2323.75 244.242 2322.21 246.842C2320.44 249.821 2319.68 252.466 2319.39 253.581C2318.76 255.985 2318.62 257.965 2318.58 258.571C2318.52 259.465 2318.51 260.227 2318.51 260.726L2318.51 263.367L2319.04 265.955C2319.59 268.604 2320.25 271.116 2320.98 273.491ZM2481.88 899.122C2481.89 899.108 2481.94 899.051 2482.01 898.961C2481.91 899.092 2481.87 899.14 2481.88 899.122ZM2966.5 1140.91C2966.38 1140.87 2966.33 1140.85 2966.34 1140.86C2966.36 1140.86 2966.41 1140.88 2966.5 1140.91ZM3106.93 1665.9C3106.94 1665.9 3107.01 1665.98 3107.13 1666.13C3106.99 1665.97 3106.93 1665.9 3106.93 1665.9ZM2845.75 2123.17C2843.47 2126.63 2840.76 2129.07 2838.01 2130.79C2841.01 2128.89 2843.67 2126.33 2845.75 2123.17ZM3380.07 2491.54C3380.06 2491.53 3380.05 2491.53 3380.04 2491.51C3380.07 2491.54 3380.08 2491.55 3380.07 2491.54ZM3591.77 1044.88C3591.76 1044.88 3591.75 1044.89 3591.75 1044.89C3591.79 1044.87 3591.8 1044.86 3591.77 1044.88ZM1807.38 398.014C1807.38 398.014 1807.38 398.014 1807.38 398.015C1807.34 397.983 1807.34 397.981 1807.38 398.014ZM1971.87 1029.06C1971.87 1029.05 1971.85 1028.98 1971.84 1028.85C1971.87 1029 1971.87 1029.07 1971.87 1029.06Z" fill="#F59324"/>
</svg>
